<svg width="188" height="187" viewBox="0 0 188 187" fill="none" xmlns="http://www.w3.org/2000/svg">
<g filter="url(#filter0_d)">
<path d="M49.2028 76H64.2028V99H49.2028V76Z" fill="white"/>
<path d="M75.2028 59H90.2028V99H75.2028V59Z" fill="white"/>
<path d="M102.203 70H117.203V99H102.203V70Z" fill="white"/>
<path d="M127.203 52H142.203V99H127.203V52Z" fill="white"/>
<path d="M166.277 0H151.647V5.82107H159.213L131.164 33.7214L106.899 9.58438C105.756 8.44816 103.904 8.44816 102.762 9.58438L69.718 42.453L51.3045 24.137C50.1619 23.0008 48.3097 23.0008 47.1671 24.137L6.20276 64.8845L10.3402 69L49.2358 30.3103L67.6493 48.6263C68.7919 49.7625 70.644 49.7625 71.7867 48.6263L104.83 15.7576L129.096 39.8947C130.238 41.0309 132.091 41.0309 133.233 39.8947L163.351 9.93656V17.4632H169.203V2.91053C169.203 1.30309 167.893 0 166.277 0Z" fill="white"/>
<path d="M168.232 104.942C165.206 100.279 159.171 98.6612 154.238 101.19L138.36 109.365C140.599 114.729 138.582 120.932 133.623 123.929L101.306 143.2C93.7271 147.741 84.7002 149.171 76.1 147.195L46.8983 140.167L48.2487 134.487L77.3922 141.495C84.5402 143.13 92.0396 141.941 98.3409 138.175L130.656 118.904C133.402 117.255 134.318 113.691 132.711 110.91C129.204 104.804 121.55 102.537 115.311 105.756L91.8739 117.85C88.5459 119.57 84.5916 119.544 81.2863 117.78L65.3149 109.251C54.5403 103.521 41.5483 103.982 31.2028 110.463L40.3094 154.112L45.1589 153.061C47.7055 152.51 50.3274 152.405 52.9094 152.751L89.182 156.751C96.0051 157.666 102.925 156.04 108.638 152.179L166.638 113.053C169.283 111.243 169.996 107.634 168.241 104.945L168.232 104.942Z" fill="white"/>
<path fill-rule="evenodd" clip-rule="evenodd" d="M13.4435 169L0.202759 105.898L22.9591 101L36.2028 164.102L13.4435 169ZM10.5161 112.656L11.7217 118.394L17.4621 117.185L16.2565 111.451L10.5161 112.656Z" fill="white"/>
</g>
<defs>
<filter id="filter0_d" x="0.202759" y="0" width="187" height="187" filterUnits="userSpaceOnUse" color-interpolation-filters="sRGB">
<feFlood flood-opacity="0" result="BackgroundImageFix"/>
<feColorMatrix in="SourceAlpha" type="matrix" values="0 0 0 0 0 0 0 0 0 0 0 0 0 0 0 0 0 0 127 0"/>
<feOffset dx="16" dy="16"/>
<feGaussianBlur stdDeviation="1"/>
<feColorMatrix type="matrix" values="0 0 0 0 0 0 0 0 0 0 0 0 0 0 0 0 0 0 0.115275 0"/>
<feBlend mode="normal" in2="BackgroundImageFix" result="effect1_dropShadow"/>
<feBlend mode="normal" in="SourceGraphic" in2="effect1_dropShadow" result="shape"/>
</filter>
</defs>
</svg>
