<svg width="177" height="183" viewBox="0 0 177 183" fill="none" xmlns="http://www.w3.org/2000/svg">
<g filter="url(#filter0_d)">
<path d="M66.9556 51H74.2028L72.8139 34.0588H68.8889C64.2944 34.0588 60.5556 30.2584 60.5556 25.5882C60.5556 20.9181 64.2944 17.1176 68.8889 17.1176H69.3333C73.6333 17.1176 77.2806 20.5285 77.6389 24.8852L77.925 28.4118H82.0722L82.3611 24.8852C82.7194 20.5285 86.3667 17.1176 90.6667 17.1176H91.1111C95.7056 17.1176 99.4444 20.9181 99.4444 25.5882C99.4444 30.2584 95.7056 34.0588 91.1111 34.0588H87.1861L85.7972 51H93.0444C100.208 46.4711 105 37.5092 105 28.4118C105 14.3986 93.7833 3 80 3C66.2167 3 55 14.3986 55 28.4118C55 37.5092 59.7917 46.4711 66.9556 51Z" fill="white"/>
<path d="M74.1125 67V68.8908C74.1125 70.4328 73.7031 71.8899 73 73.1598L79.5 80L86 73.1598C85.2969 71.8899 84.8875 70.4328 84.8875 68.8908V67H74.1125Z" fill="white"/>
<path d="M68.4325 98H90.9492C92.1395 91.4037 95.3915 85.5551 100 81.1576L90.2656 77.0028L79.5343 87.9939L68.8057 77L60 80.7614C64.5703 85.2231 67.659 91.2474 68.4325 98Z" fill="white"/>
<path d="M93 26.5C93 25.12 91.8011 24 90.3298 24H89.9025C88.5247 24 87.3551 25.005 87.2403 26.2925L87 29H90.3298C91.8011 29 93 27.88 93 26.5Z" fill="white"/>
<path d="M68 57H90V62H68V57Z" fill="white"/>
<path d="M96 103.982V144L108.178 138.929C109.217 138.496 109.889 137.488 109.889 136.367V133.727C104.686 128.728 101.556 121.744 101.556 114.183V101.981L121 95.5047L140.444 101.981V114.183C140.444 121.744 137.314 128.725 132.111 133.727V136.367C132.111 137.488 132.783 138.496 133.819 138.929L146 144V103.982C146 90.2057 134.783 79 121 79C107.217 79 96 90.2057 96 103.982Z" fill="white"/>
<path d="M111.949 148H130.054L132 143.82L131.296 143.504C128.718 142.352 126.933 139.884 126.478 137C125.022 137.885 123.483 138.646 121.847 139.232L121.001 139.537L120.155 139.235C118.523 138.652 116.984 137.888 115.525 137.003C115.07 139.887 113.284 142.355 110.704 143.507L110 143.82L111.949 148Z" fill="white"/>
<path d="M135 113.833V105.629L121 101L107 105.629V113.833C107 122.827 112.589 130.815 121 134C129.411 130.815 135 122.827 135 113.833Z" fill="white"/>
<path d="M82 34H78L79.7241 51H80.2759L82 34Z" fill="white"/>
<path d="M69.0975 24H68.6702C67.1989 24 66 25.12 66 26.5C66 27.88 67.1989 29 68.6702 29H72L71.7597 26.2925C71.6422 25.005 70.4753 24 69.0975 24Z" fill="white"/>
<path d="M20.8389 125C19.3694 121.648 18.5556 117.972 18.5556 114.143V101.179H24.5861C28.9111 101.179 32.9778 99.4993 36.0361 96.4468L38 94.4867L39.9639 96.4468C43.0222 99.4993 47.0889 101.179 51.4139 101.179H57.4444V114.143C57.4444 117.972 56.6306 121.648 55.1611 125C59.9389 121.432 63 115.796 63 109.497V101.712C63 89.1886 52.7917 79 40.2444 79C34.1667 79 28.4528 81.3649 24.1528 85.651L22.7556 87.0483L22.0083 87.2313C16.7028 88.5565 13 93.2918 13 98.748V109.497C13 115.798 16.0611 121.435 20.8389 125Z" fill="white"/>
<path d="M66.1497 151.213L56.0101 147L51.113 164.096L38.4986 154.66L25.8814 164.096L20.9844 147L10.8475 151.213C4.99379 153.645 0.942902 158.887 0 165H77C76.0543 158.887 72.0034 153.645 66.1497 151.213Z" fill="white"/>
<path d="M93.7575 150.787C87.9523 153.294 83.9351 158.698 83 165H114L104.836 146L93.7575 150.787Z" fill="white"/>
<path d="M148.243 150.787L137.162 146L128 165H159C158.065 158.698 154.048 153.294 148.243 150.787Z" fill="white"/>
<path d="M120.458 164H122.542L128 153H115L120.458 164Z" fill="white"/>
<path d="M50 143.639L48.5479 143L42 149.901L47.1879 154L50 143.639Z" fill="white"/>
<path d="M52 105.592H51.5212C46.5568 105.592 41.8444 103.976 38 101C34.1556 103.976 29.4432 105.592 24.4788 105.592H24V112.971C24 121.903 29.5888 129.837 38 133C46.4112 129.84 52 121.906 52 112.971V105.592Z" fill="white"/>
<path d="M26 143.636L28.8093 154L34 149.901L27.4521 143L26 143.636Z" fill="white"/>
<path d="M44 139.932C43.5178 139.033 43.1757 138.049 43.0114 137C41.546 137.902 39.9971 138.678 38.3512 139.276L37.5 139.583L36.6488 139.276C35.0056 138.681 33.4567 137.902 31.9886 137C31.8243 138.049 31.4822 139.036 31 139.932L37.5 147L44 139.932Z" fill="white"/>
<path d="M116 26H133V31H116V26Z" fill="white"/>
<path d="M109.488 8.33319L123.897 0.0138632L126.67 4.81689L112.261 13.1362L109.488 8.33319Z" fill="white"/>
<path d="M32.6454 4.83118L35.4185 0.0281516L49.8276 8.34748L47.0545 13.1505L32.6454 4.83118Z" fill="white"/>
<path d="M27 26H44V31H27V26Z" fill="white"/>
<path d="M32.6436 52.7071L47.0526 44.3878L49.8257 49.1908L35.4167 57.5101L32.6436 52.7071Z" fill="white"/>
<path d="M109.495 49.2025L112.268 44.3994L126.677 52.7188L123.904 57.5218L109.495 49.2025Z" fill="white"/>
</g>
<defs>
<filter id="filter0_d" x="0" y="0.013855" width="177" height="182.986" filterUnits="userSpaceOnUse" color-interpolation-filters="sRGB">
<feFlood flood-opacity="0" result="BackgroundImageFix"/>
<feColorMatrix in="SourceAlpha" type="matrix" values="0 0 0 0 0 0 0 0 0 0 0 0 0 0 0 0 0 0 127 0"/>
<feOffset dx="16" dy="16"/>
<feGaussianBlur stdDeviation="1"/>
<feColorMatrix type="matrix" values="0 0 0 0 0 0 0 0 0 0 0 0 0 0 0 0 0 0 0.115275 0"/>
<feBlend mode="normal" in2="BackgroundImageFix" result="effect1_dropShadow"/>
<feBlend mode="normal" in="SourceGraphic" in2="effect1_dropShadow" result="shape"/>
</filter>
</defs>
</svg>
