<svg width="210" height="180" viewBox="0 0 210 180" fill="none" xmlns="http://www.w3.org/2000/svg">
<g filter="url(#filter0_d)">
<path d="M140.777 43L105.191 156L191.191 43H140.777Z" fill="white"/>
<path d="M27.8382 3L0.191162 36H47.1912L27.8382 3Z" fill="white"/>
<path d="M163.544 3L144.191 36H191.191L163.544 3Z" fill="white"/>
<path d="M50.6049 43H0.191162L86.1912 156L50.6049 43Z" fill="white"/>
<path d="M104.191 0L137.034 33L156.191 0H104.191Z" fill="white"/>
<path d="M34.1912 0L53.3481 33L86.1912 0H34.1912Z" fill="white"/>
<path d="M57.1912 43L94.6912 162L132.191 43H57.1912Z" fill="white"/>
<path d="M95.1912 2L61.1912 36H129.191L95.1912 2Z" fill="white"/>
</g>
<defs>
<filter id="filter0_d" x="0.191162" y="0" width="209" height="180" filterUnits="userSpaceOnUse" color-interpolation-filters="sRGB">
<feFlood flood-opacity="0" result="BackgroundImageFix"/>
<feColorMatrix in="SourceAlpha" type="matrix" values="0 0 0 0 0 0 0 0 0 0 0 0 0 0 0 0 0 0 127 0"/>
<feOffset dx="16" dy="16"/>
<feGaussianBlur stdDeviation="1"/>
<feColorMatrix type="matrix" values="0 0 0 0 0 0 0 0 0 0 0 0 0 0 0 0 0 0 0.115275 0"/>
<feBlend mode="normal" in2="BackgroundImageFix" result="effect1_dropShadow"/>
<feBlend mode="normal" in="SourceGraphic" in2="effect1_dropShadow" result="shape"/>
</filter>
</defs>
</svg>
