<svg width="62" height="42" viewBox="0 0 62 42" fill="none" xmlns="http://www.w3.org/2000/svg">
<g filter="url(#filter0_d)">
<rect x="4" y="2" width="54" height="34" rx="8" fill="white"/>
</g>
<path d="M41.686 22.0401C40.2835 27.6652 34.5853 31.0881 28.9589 29.6857C23.3352 28.2833 19.9115 22.5858 21.3144 16.9611C22.7163 11.3354 28.4142 7.91181 34.0389 9.31421C39.6649 10.7166 43.0883 16.4148 41.6857 22.0401H41.686Z" fill="#F7931A"/>
<path fill-rule="evenodd" clip-rule="evenodd" d="M36.9739 18.226C37.1817 16.8601 36.1227 16.1258 34.6747 15.6359L35.1444 13.7856L33.9973 13.5049L33.54 15.3065C33.2388 15.2327 32.9292 15.1631 32.6215 15.0941L33.082 13.2807L31.9359 13L31.4658 14.8497C31.2163 14.7939 30.9713 14.7387 30.7335 14.6806L30.7348 14.6748L29.1532 14.287L28.8481 15.49C28.8481 15.49 29.699 15.6815 29.6811 15.6933C30.1455 15.8072 30.2298 16.1091 30.2154 16.3484L29.6804 18.4563C29.7124 18.4643 29.7539 18.4759 29.7996 18.4938L29.6788 18.4643L28.9285 21.4172C28.8716 21.5558 28.7276 21.7637 28.4029 21.6847C28.4143 21.7011 27.5693 21.4804 27.5693 21.4804L27 22.77L28.4927 23.1353C28.6612 23.1768 28.8277 23.2195 28.9923 23.2616L28.9924 23.2617L28.9929 23.2618C29.0993 23.2891 29.205 23.3161 29.31 23.3426L28.8354 25.2144L29.9809 25.4951L30.4513 23.6435C30.7639 23.7269 31.0676 23.8039 31.3649 23.8764L30.8965 25.7193L32.0433 26L32.5179 24.132C34.4735 24.4955 35.9444 24.3489 36.5627 22.6121C37.0615 21.2135 36.5382 20.4067 35.5093 19.8803C36.2586 19.71 36.823 19.2259 36.9736 18.226H36.9739ZM34.3533 21.8345C34.0277 23.1182 31.9814 22.5871 31.0459 22.3443C30.9621 22.3225 30.8872 22.3031 30.8233 22.2875L31.4531 19.8081C31.5312 19.8273 31.6266 19.8483 31.7347 19.8721L31.7348 19.8721C32.7026 20.0854 34.6859 20.5225 34.3536 21.8345H34.3533ZM31.9293 18.7216C32.7099 18.9261 34.4113 19.3719 34.7077 18.2058C35.0107 17.0128 33.3563 16.6532 32.5482 16.4776C32.4574 16.4579 32.3773 16.4404 32.3118 16.4244L31.7408 18.6732C31.7949 18.6864 31.8583 18.703 31.9293 18.7216Z" fill="white"/>
<defs>
<filter id="filter0_d" x="0" y="0" width="62" height="42" filterUnits="userSpaceOnUse" color-interpolation-filters="sRGB">
<feFlood flood-opacity="0" result="BackgroundImageFix"/>
<feColorMatrix in="SourceAlpha" type="matrix" values="0 0 0 0 0 0 0 0 0 0 0 0 0 0 0 0 0 0 127 0"/>
<feOffset dy="2"/>
<feGaussianBlur stdDeviation="2"/>
<feColorMatrix type="matrix" values="0 0 0 0 0 0 0 0 0 0 0 0 0 0 0 0 0 0 0.178185 0"/>
<feBlend mode="normal" in2="BackgroundImageFix" result="effect1_dropShadow"/>
<feBlend mode="normal" in="SourceGraphic" in2="effect1_dropShadow" result="shape"/>
</filter>
</defs>
</svg>
