<svg width="22" height="21" viewBox="0 0 22 21" fill="none" xmlns="http://www.w3.org/2000/svg">
<path d="M21.686 13.0401C20.2835 18.6652 14.5853 22.0881 8.95894 20.6857C3.33522 19.2833 -0.0884886 13.5858 1.3144 7.96112C2.71631 2.33545 8.41419 -1.08819 14.0389 0.314209C19.6649 1.71661 23.0883 7.4148 21.6857 13.0401H21.686Z" fill="#F7931A"/>
<path fill-rule="evenodd" clip-rule="evenodd" d="M16.9739 9.22598C17.1817 7.86006 16.1227 7.12577 14.6747 6.63593L15.1444 4.78561L13.9973 4.50492L13.54 6.30648C13.2388 6.2327 12.9292 6.16308 12.6215 6.09411L13.082 4.28069L11.9359 4L11.4658 5.84967C11.2163 5.79386 10.9713 5.73868 10.7335 5.68062L10.7348 5.67484L9.15321 5.28701L8.84813 6.48997C8.84813 6.48997 9.69902 6.68148 9.68106 6.69335C10.1455 6.80723 10.2298 7.10909 10.2154 7.3484L9.6804 9.45631C9.71242 9.46433 9.7539 9.47588 9.79963 9.49384L9.67877 9.46433L8.92848 12.4172C8.87165 12.5558 8.7276 12.7637 8.40292 12.6847C8.41435 12.7011 7.56933 12.4804 7.56933 12.4804L7 13.77L8.49274 14.1353C8.66123 14.1768 8.82768 14.2195 8.9923 14.2616L8.99237 14.2617L8.99288 14.2618C9.09933 14.2891 9.20501 14.3161 9.31 14.3426L8.83539 16.2144L9.98091 16.4951L10.4513 14.6435C10.7639 14.7269 11.0676 14.8039 11.3649 14.8764L10.8965 16.7193L12.0433 17L12.5179 15.132C14.4735 15.4955 15.9444 15.3489 16.5627 13.6121C17.0615 12.2135 16.5382 11.4067 15.5093 10.8803C16.2586 10.71 16.823 10.2259 16.9736 9.22598H16.9739ZM14.3533 12.8345C14.0277 14.1182 11.9814 13.5871 11.0459 13.3443C10.9621 13.3225 10.8872 13.3031 10.8233 13.2875L11.4531 10.8081C11.5312 10.8273 11.6266 10.8483 11.7347 10.8721L11.7348 10.8721C12.7026 11.0854 14.6859 11.5225 14.3536 12.8345H14.3533ZM11.9293 9.72161C12.7099 9.92612 14.4113 10.3719 14.7077 9.20577C15.0107 8.01278 13.3563 7.65321 12.5482 7.4776C12.4574 7.45786 12.3773 7.44044 12.3118 7.42443L11.7408 9.67316C11.7949 9.68638 11.8583 9.703 11.9293 9.72161Z" fill="white"/>
</svg>
