<svg width="134" height="135" viewBox="0 0 134 135" fill="none" xmlns="http://www.w3.org/2000/svg">
<g filter="url(#filter0_d)">
<path fill-rule="evenodd" clip-rule="evenodd" d="M46.6537 115.888C36.5202 113.816 27.0776 109.094 19.7077 102.53C0.707319 85.6604 -5.22311 59.1174 4.85286 35.4533C7.32867 29.638 11.3591 23.7651 16.3107 18.6408L20.6865 14.1498L20.9744 40.52C21.2623 65.7963 21.3199 67.063 22.529 70.2298C24.9472 76.6208 27.4806 80.6512 31.914 85.027C43.3143 96.3697 60.0116 99.191 74.2331 92.2242C87.591 85.6604 95.9972 71.3237 95.0184 56.8143C94.385 47.0838 91.1032 39.9443 84.0212 32.8623C78.6665 27.5076 72.3906 23.9954 65.5966 22.556C58.6298 21.1166 58.9752 20.8863 58.9752 26.7591V31.8259L62.7753 32.5168C77.515 35.223 87.3031 49.7323 84.2515 64.3569C83.2727 69.0206 81.0848 73.1662 77.5726 76.9663C72.2179 82.724 64.6753 85.4876 58.1116 85.4876C47.2295 85.4876 38.1899 79.2693 33.7565 70.1722C33.7565 70.1722 32.605 67.5812 32.2595 65.9691C30.0716 56.4689 31.4534 36.5472 31.4534 36.5472L31.2807 7.3557L33.008 6.49205C33.9292 5.97385 34.8505 5.62839 35.0232 5.62839C35.1959 5.62839 35.3687 19.0438 35.4838 35.4533C35.4838 35.4533 33.411 56.9295 36.002 65.163C36.3475 66.3721 37.096 68.3873 37.096 68.3873C39.3415 72.9934 42.9688 77.0814 47.6901 79.3269C51.2599 80.9966 53.1024 81.8027 58.3994 81.8027C61.8541 81.8027 64.9056 80.7088 68.4754 79.0966C72.6209 77.1966 77.3998 72.1298 79.1847 67.4661C84.0212 54.684 77.2847 40.9807 64.2147 37.123C58.8601 35.5684 58.9752 35.4533 58.9752 41.2685V46.3353L61.5086 47.0262C70.7209 49.502 73.5422 61.8811 66.2875 68.2146C63.7541 70.4601 61.451 71.4389 57.4206 71.4389C53.1024 71.4389 48.9568 68.8479 46.8265 64.8175C45.5598 62.3993 45.4446 60.1538 45.4446 59.1174C45.4446 49.502 45.2143 32.1138 45.2143 32.1138L45.0416 2.3465L46.3659 2.00104C47.1144 1.82831 50.0508 1.3677 52.9296 1.02223C62.6601 -0.24446 77.0544 2.97985 86.7273 8.50724C99.9124 16.0498 109.873 29.0046 114.019 43.9747C115.458 49.099 115.631 50.6536 115.631 58.8871C115.631 67.1206 115.458 68.6752 114.076 73.7419C108.434 94.1242 94.0396 108.634 73.4846 114.852C69.1663 116.176 67.1511 116.406 59.4934 116.579C53.3327 116.637 49.3599 116.464 46.6537 115.888Z" fill="white"/>
</g>
<defs>
<filter id="filter0_d" x="0" y="0.747803" width="133.631" height="133.842" filterUnits="userSpaceOnUse" color-interpolation-filters="sRGB">
<feFlood flood-opacity="0" result="BackgroundImageFix"/>
<feColorMatrix in="SourceAlpha" type="matrix" values="0 0 0 0 0 0 0 0 0 0 0 0 0 0 0 0 0 0 127 0"/>
<feOffset dx="16" dy="16"/>
<feGaussianBlur stdDeviation="1"/>
<feColorMatrix type="matrix" values="0 0 0 0 0 0 0 0 0 0 0 0 0 0 0 0 0 0 0.115275 0"/>
<feBlend mode="normal" in2="BackgroundImageFix" result="effect1_dropShadow"/>
<feBlend mode="normal" in="SourceGraphic" in2="effect1_dropShadow" result="shape"/>
</filter>
</defs>
</svg>
