<svg width="111" height="132" viewBox="0 0 111 132" fill="none" xmlns="http://www.w3.org/2000/svg">
<path fill-rule="evenodd" clip-rule="evenodd" d="M55.1778 28C36.4656 28 21.1778 43.3339 21.1778 62.1025C21.1778 71.9161 25.4584 81.3618 32.6742 87.7407C38.0555 93.1382 37.5663 104.669 37.444 104.792C37.444 105.405 37.5663 105.896 38.0555 106.387C38.4224 106.755 39.0339 107 39.5231 107H70.7102C71.3217 107 71.8109 106.755 72.1778 106.387C72.5447 106.019 72.7893 105.405 72.7893 104.792C72.7893 104.669 72.1778 93.1382 77.5591 87.7407C77.6814 87.618 77.8037 87.4953 77.926 87.3727C85.0196 80.8711 89.1778 71.6708 89.1778 62.1025C89.1778 43.3339 73.8901 28 55.1778 28ZM74.7462 84.5512C74.6239 84.6739 74.3793 84.9193 74.3793 85.0419C69.6095 90.1941 68.7534 98.6584 68.6311 102.707H41.6023C41.48 98.6584 40.6239 89.8261 35.4872 84.5512C29.0052 78.9084 25.2138 70.6894 25.2138 61.9798C25.2138 45.4193 38.5447 32.0481 55.0555 32.0481C71.5663 32.0481 84.8973 45.4193 84.8973 61.9798C84.8973 70.6894 81.2282 78.9084 74.7462 84.5512Z" fill="url(#paint0_linear)"/>
<path fill-rule="evenodd" clip-rule="evenodd" d="M55.2207 37C54.1392 37 53.1778 37.9614 53.1778 39.0429C53.1778 40.1245 54.1392 41.0858 55.2207 41.0858C67.3576 41.0858 77.0912 50.9399 77.0912 62.9571C77.0912 64.0386 78.0525 65 79.1341 65C80.2156 65 81.1769 64.0386 81.1769 62.9571C81.2971 48.6567 69.6408 37 55.2207 37Z" fill="url(#paint1_linear)"/>
<path fill-rule="evenodd" clip-rule="evenodd" d="M69.0994 109H42.2563C39.4752 109 37.1778 111.262 37.1778 114C37.1778 116.738 39.4752 119 42.2563 119H68.9785C71.8804 118.881 74.1778 116.738 74.1778 114C74.1778 111.262 71.8804 109 69.0994 109ZM69.0994 114.833H42.2563C41.7726 114.833 41.2889 114.476 41.2889 113.881C41.2889 113.286 41.6517 112.929 42.2563 112.929H68.9785C69.4621 112.929 69.9458 113.286 69.9458 113.881C69.9458 114.476 69.5831 114.833 69.0994 114.833Z" fill="url(#paint2_linear)"/>
<path fill-rule="evenodd" clip-rule="evenodd" d="M65.1028 122H46.2528C43.4737 122 41.1778 124.262 41.1778 127C41.1778 129.738 43.4737 132 46.2528 132H65.1028C67.882 132 70.1778 129.738 70.1778 127C70.1778 124.143 67.882 122 65.1028 122ZM65.1028 127.833H46.2528C45.7695 127.833 45.2862 127.476 45.2862 126.881C45.2862 126.286 45.6487 125.929 46.2528 125.929H65.1028C65.5862 125.929 66.0695 126.286 66.0695 126.881C66.0695 127.476 65.5862 127.833 65.1028 127.833Z" fill="url(#paint3_linear)"/>
<path fill-rule="evenodd" clip-rule="evenodd" d="M55.1778 18C56.3543 18 57.1778 17.04 57.1778 15.96V2.04C57.1778 0.96 56.2366 0 55.1778 0C54.119 0 53.1778 0.96 53.1778 2.04V15.96C53.1778 17.04 54.119 18 55.1778 18Z" fill="url(#paint4_linear)"/>
<path fill-rule="evenodd" clip-rule="evenodd" d="M89.2606 10.3953C88.2808 9.65805 87.056 10.0267 86.4437 10.8868L78.6051 22.6825C77.8702 23.6654 78.1152 25.017 79.095 25.6314C79.4624 25.8771 79.8299 26 80.1973 26C80.9322 26 81.5446 25.6314 81.912 25.017L89.7505 13.2213C90.4854 12.3612 90.2405 11.0096 89.2606 10.3953Z" fill="url(#paint5_linear)"/>
<path fill-rule="evenodd" clip-rule="evenodd" d="M30.0969 25C30.4701 25 30.8434 24.8785 31.2166 24.6356C32.2119 24.0283 32.4607 22.6922 31.8387 21.7205L24.125 9.93843C23.5029 8.96671 22.1344 8.72379 21.139 9.33111C20.1437 9.93843 19.8949 11.2745 20.517 12.2462L28.2307 24.0283C28.7283 24.7571 29.3504 25 30.0969 25Z" fill="url(#paint6_linear)"/>
<path fill-rule="evenodd" clip-rule="evenodd" d="M15.1405 38.0344L3.18538 31.2186C2.23844 30.7229 0.936401 31.0947 0.462933 32.0861C-0.128902 33.0775 0.226199 34.4406 1.2915 34.9363L13.2466 41.7522C13.6017 41.8761 13.8384 42 14.1935 42C14.9037 42 15.6139 41.6282 15.969 40.8847C16.4425 39.8933 16.0874 38.5301 15.1405 38.0344Z" fill="url(#paint7_linear)"/>
<path fill-rule="evenodd" clip-rule="evenodd" d="M109.957 32.0861C109.455 31.0947 108.075 30.7229 107.072 31.2186L94.2771 38.0344C93.2737 38.5301 92.8974 39.8933 93.3991 40.8847C93.7754 41.6282 94.528 42 95.2806 42C95.6569 42 96.0332 41.8761 96.2841 41.7522L109.079 34.9363C110.082 34.4406 110.458 33.0775 109.957 32.0861Z" fill="url(#paint8_linear)"/>
<defs>
<linearGradient id="paint0_linear" x1="21.1778" y1="28" x2="21.1778" y2="107" gradientUnits="userSpaceOnUse">
<stop stop-color="#EF0924"/>
<stop offset="1" stop-color="#A30000"/>
</linearGradient>
<linearGradient id="paint1_linear" x1="53.1778" y1="37" x2="53.1778" y2="65" gradientUnits="userSpaceOnUse">
<stop stop-color="#EF0924"/>
<stop offset="1" stop-color="#A30000"/>
</linearGradient>
<linearGradient id="paint2_linear" x1="37.1778" y1="109" x2="37.1778" y2="119" gradientUnits="userSpaceOnUse">
<stop stop-color="#EF0924"/>
<stop offset="1" stop-color="#A30000"/>
</linearGradient>
<linearGradient id="paint3_linear" x1="41.1778" y1="122" x2="41.1778" y2="132" gradientUnits="userSpaceOnUse">
<stop stop-color="#EF0924"/>
<stop offset="1" stop-color="#A30000"/>
</linearGradient>
<linearGradient id="paint4_linear" x1="53.1778" y1="0" x2="53.1778" y2="18" gradientUnits="userSpaceOnUse">
<stop stop-color="#EF0924"/>
<stop offset="1" stop-color="#A30000"/>
</linearGradient>
<linearGradient id="paint5_linear" x1="78.1778" y1="10" x2="78.1778" y2="26" gradientUnits="userSpaceOnUse">
<stop stop-color="#EF0924"/>
<stop offset="1" stop-color="#A30000"/>
</linearGradient>
<linearGradient id="paint6_linear" x1="20.1778" y1="9" x2="20.1778" y2="25" gradientUnits="userSpaceOnUse">
<stop stop-color="#EF0924"/>
<stop offset="1" stop-color="#A30000"/>
</linearGradient>
<linearGradient id="paint7_linear" x1="0.177826" y1="31" x2="0.177826" y2="42" gradientUnits="userSpaceOnUse">
<stop stop-color="#EF0924"/>
<stop offset="1" stop-color="#A30000"/>
</linearGradient>
<linearGradient id="paint8_linear" x1="93.1778" y1="31" x2="93.1778" y2="42" gradientUnits="userSpaceOnUse">
<stop stop-color="#EF0924"/>
<stop offset="1" stop-color="#A30000"/>
</linearGradient>
</defs>
</svg>
