<svg width="104" height="110" viewBox="0 0 104 110" fill="none" xmlns="http://www.w3.org/2000/svg">
<path fill-rule="evenodd" clip-rule="evenodd" d="M102.877 58.2871L91.4067 38.3934L92.3379 37.855C94.3371 36.6992 95.767 34.833 96.3648 32.6001C96.9623 30.367 96.6555 28.0351 95.5014 26.0331C93.1186 21.9004 87.8227 20.4789 83.6958 22.8654L82.7647 23.4036L71.2949 3.51C70.3594 1.88748 68.849 0.726887 67.0418 0.241981C65.2349 -0.242926 63.3473 0.00607997 61.727 0.942807C60.1067 1.87953 58.9475 3.39183 58.4633 5.20148C58.1316 6.44114 58.144 7.7184 58.4852 8.92175L47.5019 21.2966C46.7148 22.1837 46.7948 23.5416 47.6804 24.3298C48.5659 25.1179 49.9223 25.0382 50.7095 24.1513L60.597 13.0109L89.3241 62.8366L41.3154 73.1497L27.8893 49.8625L37.883 38.6027C38.6702 37.7156 38.5902 36.3578 37.7045 35.5695C36.8193 34.7814 35.4629 34.8611 34.6755 35.748L23.8835 47.9074L5.93595 58.2836C3.57032 59.6513 1.87796 61.86 1.17102 64.5019C0.464075 67.1443 0.826878 69.9042 2.1927 72.2731L9.09262 84.2404C10.9847 87.5222 14.4293 89.3589 17.9666 89.3589C19.7004 89.3589 21.4567 88.9174 23.0628 87.9888L28.1629 85.0403L50.5503 107.457C52.2205 109.129 54.4471 110 56.6965 110C58.1829 110 59.6794 109.62 61.031 108.838C63.3876 107.475 64.9429 105.145 65.2982 102.443C65.6535 99.7409 64.7535 97.0863 62.8292 95.1595L55.0715 87.392L57.1874 86.1689C58.8053 85.2334 59.8514 83.6305 60.0574 81.7712C60.2634 79.9119 59.594 78.1184 58.2206 76.8504L55.6394 74.4673L91.8011 66.6991C92.6696 67.5918 93.7646 68.2381 94.9981 68.5689C95.6016 68.7309 96.2137 68.8111 96.8222 68.8111C98.0359 68.8111 99.2339 68.4922 100.313 67.8681C101.933 66.9316 103.092 65.4191 103.577 63.6094C104.061 61.7998 103.812 59.9096 102.877 58.2871ZM84.91 27.1248L85.8411 26.5866C87.919 25.3847 90.5854 26.1006 91.7854 28.1816C92.9852 30.2624 92.2705 32.9325 90.1926 34.1339L89.2617 34.6723L84.9816 27.2487L84.91 27.1248ZM20.9173 84.2679C18.0827 85.9061 14.4452 84.9305 12.8086 82.0922L5.9087 70.1248C5.11594 68.7498 4.90547 67.1482 5.31569 65.6144C5.7259 64.0806 6.70833 62.799 8.08145 62.005L24.4718 52.5292L37.3074 74.7922L20.9173 84.2679ZM61.0439 101.882C60.8643 103.249 60.0776 104.428 58.8855 105.117C57.1672 106.11 54.9872 105.823 53.5842 104.418L32.0102 82.8162L39.8854 78.2632L59.795 98.1983C60.7682 99.1729 61.2235 100.516 61.0439 101.882ZM55.312 80.0097C55.6714 80.3414 55.8464 80.8106 55.7926 81.297C55.7387 81.7835 55.465 82.2028 55.0416 82.4475L51.93 84.2464L44.5435 76.8506L50.5037 75.5703L55.312 80.0097ZM99.4315 62.4974C99.244 63.1984 98.7952 63.7841 98.1674 64.1472C97.5399 64.5099 96.8087 64.6068 96.1084 64.4188C95.4083 64.231 94.8232 63.7813 94.4609 63.1527L62.8787 8.37475C62.5166 7.74633 62.4204 7.01435 62.608 6.31374C62.7957 5.61269 63.2445 5.02702 63.8723 4.66394C64.2905 4.42223 64.7543 4.2987 65.2246 4.2987C65.4604 4.2987 65.6975 4.32985 65.9311 4.39259C66.6312 4.58036 67.2163 5.03003 67.5786 5.65867L99.1606 60.4357C99.5229 61.0642 99.6193 61.7964 99.4315 62.4974Z" fill="url(#paint0_linear)"/>
<path fill-rule="evenodd" clip-rule="evenodd" d="M43.3182 32C43.9757 32 44.6207 31.7325 45.0857 31.2675C45.5507 30.8025 45.8182 30.1575 45.8182 29.5C45.8182 28.8425 45.5507 28.1975 45.0857 27.7325C44.6207 27.2678 43.9782 27 43.3182 27C42.6607 27 42.0157 27.2675 41.5507 27.7325C41.0857 28.1975 40.8182 28.8425 40.8182 29.5C40.8182 30.1575 41.0857 30.8025 41.5507 31.2675C42.0157 31.7322 42.6607 32 43.3182 32Z" fill="url(#paint1_linear)"/>
<defs>
<linearGradient id="paint0_linear" x1="0.818184" y1="0" x2="0.818184" y2="110" gradientUnits="userSpaceOnUse">
<stop stop-color="#EF0924"/>
<stop offset="1" stop-color="#A30000"/>
</linearGradient>
<linearGradient id="paint1_linear" x1="40.8182" y1="27" x2="40.8182" y2="32" gradientUnits="userSpaceOnUse">
<stop stop-color="#EF0924"/>
<stop offset="1" stop-color="#A30000"/>
</linearGradient>
</defs>
</svg>
