<svg width="117" height="116" viewBox="0 0 117 116" fill="none" xmlns="http://www.w3.org/2000/svg">
<path fill-rule="evenodd" clip-rule="evenodd" d="M83.2974 34.5852V14.2844C83.2974 13.0227 82.2872 12 81.0415 12H15.5533C14.3074 12 13.2974 13.0227 13.2974 14.2844V34.585C13.2974 35.8466 14.3074 36.8694 15.5533 36.8694H26.4817C27.7277 36.8694 28.7376 35.8466 28.7376 34.585V29.6265H39.5797V36.7558C39.5797 38.0175 40.5896 39.0402 41.8355 39.0402C43.0815 39.0402 44.0914 38.0175 44.0914 36.7558V27.3421C44.0914 26.0805 43.0815 25.0577 41.8355 25.0577H26.482C25.236 25.0577 24.2261 26.0805 24.2261 27.3421V32.3006H17.8092V16.5688H78.7856V32.3006H72.3688V27.3421C72.3688 26.0805 71.3586 25.0577 70.1129 25.0577H54.7593C53.5134 25.0577 52.5034 26.0805 52.5034 27.3421V66.6577C52.5034 67.9193 53.5134 68.942 54.7593 68.942H62.8692V77.4312H33.7256V68.942H41.8355C43.0815 68.942 44.0914 67.9193 44.0914 66.6577V57.2245C44.0914 55.9629 43.0815 54.9402 41.8355 54.9402C40.5896 54.9402 39.5797 55.9629 39.5797 57.2245V64.3733H31.4697C30.2238 64.3733 29.2138 65.396 29.2138 66.6577V79.7156C29.2138 80.9773 30.2238 82 31.4697 82H65.1249C66.3706 82 67.3808 80.9773 67.3808 79.7156V66.6577C67.3808 65.396 66.3706 64.3733 65.1249 64.3733H57.015V29.6265H67.8568V34.585C67.8568 35.8466 68.867 36.8694 70.1127 36.8694H81.0413C82.2872 36.8696 83.2974 35.8466 83.2974 34.5852Z" fill="url(#paint0_linear)"/>
<path fill-rule="evenodd" clip-rule="evenodd" d="M113.387 86.0496L94.8821 79.5828V4.92899C94.8821 2.21099 92.67 0 89.951 0H5.22177C2.50641 0 0.297424 2.21122 0.297424 4.92899V89.6511C0.297424 92.3725 2.50641 94.5866 5.22177 94.5866H79.8878L86.3532 113.085C86.6303 113.883 87.3646 116 89.3887 116H89.4064C90.3029 115.995 91.5145 115.559 92.196 113.515L97.5995 97.3055L113.812 91.902C115.856 91.2206 116.292 90.0057 116.297 89.1068C116.31 87.0636 114.183 86.3257 113.387 86.0496ZM5.22177 90.0459C5.01242 90.0459 4.82868 89.8615 4.82868 89.6513V4.92899C4.82868 4.71851 5.0088 4.54096 5.22177 4.54096H89.9512C90.1642 4.54096 90.3511 4.72237 90.3511 4.92899V77.9994L78.8019 73.9634C77.462 73.4961 76.0312 73.8056 75.0686 74.7712C74.1073 75.736 73.8003 77.1673 74.2677 78.5073C74.2679 78.5078 74.2681 78.5082 74.2683 78.5087L78.3007 90.0457H5.22177V90.0459ZM95.6581 93.1674C95.5899 93.1901 95.5319 93.2082 95.4825 93.2239C94.4143 93.5606 93.8669 94.1085 93.5298 95.1783C93.5142 95.2278 93.496 95.2857 93.4734 95.3536L89.316 107.824L79.2119 78.9158L108.114 89.0158L95.6581 93.1674Z" fill="url(#paint1_linear)"/>
<path fill-rule="evenodd" clip-rule="evenodd" d="M41.7974 50C43.1782 50 44.2974 48.8753 44.2974 47.4965C44.2974 46.1177 43.1782 45 41.7974 45C40.4167 45 39.2974 46.1177 39.2974 47.4965V47.5107C39.2974 48.8893 40.4167 50 41.7974 50Z" fill="url(#paint2_linear)"/>
<defs>
<linearGradient id="paint0_linear" x1="13.2974" y1="12" x2="13.2974" y2="82" gradientUnits="userSpaceOnUse">
<stop stop-color="#EF0924"/>
<stop offset="1" stop-color="#A30000"/>
</linearGradient>
<linearGradient id="paint1_linear" x1="0.297424" y1="0" x2="0.297424" y2="116" gradientUnits="userSpaceOnUse">
<stop stop-color="#EF0924"/>
<stop offset="1" stop-color="#A30000"/>
</linearGradient>
<linearGradient id="paint2_linear" x1="39.2974" y1="45" x2="39.2974" y2="50" gradientUnits="userSpaceOnUse">
<stop stop-color="#EF0924"/>
<stop offset="1" stop-color="#A30000"/>
</linearGradient>
</defs>
</svg>
