<svg width="119" height="106" viewBox="0 0 119 106" fill="none" xmlns="http://www.w3.org/2000/svg">
<path fill-rule="evenodd" clip-rule="evenodd" d="M71.1947 39C60.1667 39 51.1947 47.9719 51.1947 59C51.1947 70.0281 60.1667 79 71.1947 79C82.2228 79 91.1947 70.0281 91.1947 59C91.1947 47.9719 82.2228 39 71.1947 39ZM71.1947 74.4545C62.6729 74.4545 55.7402 67.5218 55.7402 59C55.7402 50.4782 62.6729 43.5455 71.1947 43.5455C79.7166 43.5455 86.6493 50.4782 86.6493 59C86.6493 67.5218 79.7166 74.4545 71.1947 74.4545Z" fill="url(#paint0_linear)"/>
<path fill-rule="evenodd" clip-rule="evenodd" d="M71.3767 49C70.1715 49 69.1947 49.9768 69.1947 51.182C69.1947 52.3872 70.1715 53.3639 71.3767 53.3639C74.3837 53.3639 76.8308 55.811 76.8308 58.818C76.8308 60.0232 77.8076 61 79.0128 61C80.218 61 81.1947 60.0232 81.1947 58.818C81.1947 53.404 76.7907 49 71.3767 49Z" fill="url(#paint1_linear)"/>
<path fill-rule="evenodd" clip-rule="evenodd" d="M14.4659 16.2763C13.8916 15.1188 12.5274 14.666 11.4177 15.2646C10.3079 15.864 9.87407 17.2889 10.4484 18.4473L16.537 30.7245C16.9311 31.5195 17.728 32.0055 18.5798 32C19.4368 31.9861 20.2135 31.4678 20.5846 30.6608L24.2708 22.65L28.2742 30.7245C28.6639 31.5084 29.4388 32 30.2834 32H30.317C31.1749 31.9861 31.9507 31.4678 32.3227 30.6608L37.9713 18.3837C38.512 17.2087 38.0376 15.7976 36.9119 15.2332C35.7854 14.6688 34.4344 15.164 33.8937 16.3399L30.2075 24.3507L26.2032 16.2763C25.8091 15.4813 25.0139 14.9934 24.1612 15.0008C23.3033 15.0146 22.5267 15.5329 22.1556 16.3399L18.4702 24.3507L14.4659 16.2763Z" fill="url(#paint2_linear)"/>
<path fill-rule="evenodd" clip-rule="evenodd" d="M29.1947 4C29.7213 4 30.2369 3.78594 30.6088 3.41406C30.9815 3.04219 31.1947 2.52578 31.1947 2C31.1947 1.47422 30.9815 0.957812 30.6088 0.585938C30.2369 0.214062 29.7213 0 29.1947 0C28.669 0 28.1533 0.214062 27.7815 0.585938C27.4088 0.957812 27.1947 1.47422 27.1947 2C27.1947 2.52578 27.4088 3.04219 27.7815 3.41406C28.1533 3.78594 28.669 4 29.1947 4Z" fill="url(#paint3_linear)"/>
<path fill-rule="evenodd" clip-rule="evenodd" d="M118.195 39.8092V9.25796C118.195 4.15342 114.059 0 108.976 0H38.9108C37.6387 0 36.6061 1.0361 36.6061 2.31449C36.6061 3.59288 37.6387 4.62898 38.9108 4.62898H108.976C111.517 4.62898 113.585 6.70569 113.585 9.25796V39.8092C113.585 42.3615 111.517 44.4382 108.976 44.4382H97.9135C97.8469 44.4382 97.7821 44.4427 97.7172 44.4481C94.1603 38.1538 88.4103 33.2681 81.5169 30.8442L84.9334 23.7009L89.0134 31.6154C89.4096 32.3848 90.1991 32.8657 91.0597 32.8657H91.0949C91.9681 32.8522 92.7595 32.3441 93.1376 31.553L98.893 19.5177C99.4439 18.3658 98.9605 16.9835 97.8136 16.4302C96.6666 15.876 95.2892 16.3615 94.7382 17.5142L90.9832 25.3672L86.9032 17.4518C86.5017 16.6725 85.6923 16.1942 84.8218 16.2023C83.9476 16.215 83.1572 16.7231 82.7791 17.5142L79.0232 25.3672L74.944 17.4518C74.3589 16.3172 72.9679 15.8732 71.8372 16.4609C70.7065 17.0486 70.2653 18.4445 70.8496 19.58L75.9505 29.4754C74.5434 29.2711 73.1048 29.1626 71.6419 29.1626C68.8087 29.1626 66.0656 29.5604 63.4656 30.3017L68.6233 19.5177C69.1742 18.3658 68.6908 16.9835 67.5429 16.4302C66.396 15.876 65.0186 16.3615 64.4685 17.5142L60.7126 25.3672L56.6326 17.4518C56.2311 16.6725 55.4253 16.1942 54.5512 16.2023C53.6779 16.215 52.8866 16.7231 52.5084 17.5142L48.7534 25.3672L44.6734 17.4518C44.0882 16.3172 42.6982 15.8732 41.5675 16.4609C40.4367 17.0486 39.9947 18.4445 40.5799 19.58L46.7836 31.6154C47.1852 32.3947 47.9936 32.8712 48.8651 32.8657C49.7383 32.8522 50.5297 32.3441 50.9078 31.553L54.6637 23.7009L58.7428 31.6154C58.8112 31.7483 58.895 31.8685 58.9859 31.9834C53.334 34.6396 48.6382 39.0154 45.571 44.4382H9.41349C6.87203 44.4382 4.80412 42.3615 4.80412 39.8092V9.25796C4.80412 6.70569 6.87203 4.62898 9.41349 4.62898H18.8609C20.1339 4.62898 21.1656 3.59288 21.1656 2.31449C21.1656 1.0361 20.1339 0 18.8609 0H9.41349C4.33057 0 0.19474 4.15342 0.19474 9.25796V39.8092C0.19474 44.9147 4.33057 49.0672 9.41349 49.0672H43.4481C42.3048 52.2496 41.68 55.6779 41.68 59.2509C41.68 75.842 55.1201 89.3393 71.641 89.3393C77.0696 89.3393 82.166 87.8819 86.562 85.336L104.854 103.705C106.377 105.235 108.378 106 110.38 106C112.381 106 114.382 105.235 115.905 103.705C118.953 100.645 118.953 95.6662 115.905 92.6058L108.719 85.3884C107.818 84.4852 106.359 84.4843 105.46 85.3884C104.559 86.2925 104.559 87.7571 105.46 88.6612L112.646 95.8795C113.896 97.1344 113.896 99.1768 112.646 100.433C111.397 101.687 109.363 101.687 108.114 100.433L90.4278 82.6707C97.2374 77.1512 101.602 68.7042 101.602 59.2509C101.602 55.6779 100.977 52.2496 99.8338 49.0672H108.976C114.06 49.0672 118.195 44.9138 118.195 39.8092ZM71.641 84.7103C57.6625 84.7103 46.2894 73.2888 46.2894 59.2509C46.2894 45.213 57.6625 33.7915 71.641 33.7915C85.6194 33.7915 96.9925 45.213 96.9925 59.2509C96.9925 73.2888 85.6203 84.7103 71.641 84.7103Z" fill="url(#paint4_linear)"/>
<path fill-rule="evenodd" clip-rule="evenodd" d="M99.7807 79.5859C99.4088 79.9578 99.1947 80.4734 99.1947 81C99.1947 81.5258 99.4088 82.0414 99.7807 82.4141C100.155 82.7859 100.669 83 101.195 83C101.721 83 102.237 82.7859 102.609 82.4141C102.983 82.0414 103.195 81.5258 103.195 81C103.195 80.4734 102.983 79.9578 102.609 79.5859C102.237 79.2141 101.723 79 101.195 79C100.669 79 100.153 79.2141 99.7807 79.5859Z" fill="url(#paint5_linear)"/>
<defs>
<linearGradient id="paint0_linear" x1="51.1947" y1="39" x2="51.1947" y2="79" gradientUnits="userSpaceOnUse">
<stop stop-color="#EF0924"/>
<stop offset="1" stop-color="#A30000"/>
</linearGradient>
<linearGradient id="paint1_linear" x1="69.1947" y1="49" x2="69.1947" y2="61" gradientUnits="userSpaceOnUse">
<stop stop-color="#EF0924"/>
<stop offset="1" stop-color="#A30000"/>
</linearGradient>
<linearGradient id="paint2_linear" x1="10.1947" y1="15" x2="10.1947" y2="32" gradientUnits="userSpaceOnUse">
<stop stop-color="#EF0924"/>
<stop offset="1" stop-color="#A30000"/>
</linearGradient>
<linearGradient id="paint3_linear" x1="27.1947" y1="0" x2="27.1947" y2="4" gradientUnits="userSpaceOnUse">
<stop stop-color="#EF0924"/>
<stop offset="1" stop-color="#A30000"/>
</linearGradient>
<linearGradient id="paint4_linear" x1="0.19474" y1="0" x2="0.19474" y2="106" gradientUnits="userSpaceOnUse">
<stop stop-color="#EF0924"/>
<stop offset="1" stop-color="#A30000"/>
</linearGradient>
<linearGradient id="paint5_linear" x1="99.1947" y1="79" x2="99.1947" y2="83" gradientUnits="userSpaceOnUse">
<stop stop-color="#EF0924"/>
<stop offset="1" stop-color="#A30000"/>
</linearGradient>
</defs>
</svg>
