<svg width="30" height="30" viewBox="0 0 30 30" fill="none" xmlns="http://www.w3.org/2000/svg">
<rect width="30" height="30" rx="2" fill="#F00D22"/>
<path d="M23.2463 7.5H6.75347C6.48275 7.5 6.2293 7.56556 6 7.67362L14.9608 16.5L16.9692 14.5988C16.9692 14.5988 16.9693 14.5986 16.9694 14.5985C16.9694 14.5984 16.9696 14.5984 16.9696 14.5984L24 7.67377C23.7707 7.56564 23.5171 7.5 23.2463 7.5Z" fill="white"/>
<path d="M24.8186 8.5L18 14.9999L24.8183 21.5C24.9314 21.2747 25 21.0257 25 20.7597V9.24002C25 8.97419 24.9316 8.72521 24.8186 8.5Z" fill="white"/>
<path d="M5.18166 8.5C5.06859 8.72529 5 8.9743 5 9.24029V20.7599C5 21.0257 5.06851 21.2748 5.1815 21.5L12 15.0001L5.18166 8.5Z" fill="white"/>
<path d="M17.3842 15.5001L15.3756 17.4896C15.2611 17.6076 15.1111 17.6666 14.9611 17.6666C14.8111 17.6666 14.6611 17.6076 14.5466 17.4896L12.6161 15.5L6 22.3182C6.22934 22.4313 6.48294 22.5 6.75374 22.5H23.2465C23.5173 22.5 23.7707 22.4314 24 22.3183L17.3842 15.5001Z" fill="white"/>
</svg>
