<svg width="142" height="65" viewBox="0 0 142 65" fill="none" xmlns="http://www.w3.org/2000/svg">
<path d="M118.484 0.0524501L2.93896 10.3596C3.48311 10.9093 3.76632 11.5909 3.76632 12.395C3.76632 13.2131 3.46361 13.9132 2.86653 14.475C2.56289 14.7601 2.22582 14.9727 1.85718 15.1148L104.393 62.8387C109.884 65.409 116.431 63.4061 119.543 58.2015L137.206 28.6645C139.586 24.6856 139.419 19.6824 136.777 15.8707L129.305 5.08624C127.084 1.88359 123.445 0.000450134 119.595 0.000450134C119.227 0.000450134 118.855 0.018093 118.484 0.0524501Z" fill="url(#paint0_linear)"/>
<path d="M4.25202 19.7529H0.58881L0.00195312 47.2367H5.98102L5.41831 21.922L4.25202 19.7529Z" fill="#020303"/>
<path d="M25.0823 26.0407C23.9216 26.0407 22.5798 26.296 21.0923 26.8012C19.6075 27.3072 18.1877 28.0195 16.8728 28.9202L16.7651 28.9935L15.7688 26.7222H12.1873V47.1824H17.7206V32.9093L17.767 32.8777C18.8275 32.1405 19.8145 31.5425 20.7004 31.1005C21.5965 30.6547 22.5659 30.4291 23.578 30.4291C24.5818 30.4291 25.3776 30.8015 25.9422 31.5369C26.5003 32.2649 26.7835 33.291 26.7835 34.5863V47.1824H32.3178V34.331C32.3178 31.7254 31.7736 29.6667 30.7011 28.2126C29.637 26.7715 27.7464 26.0407 25.0823 26.0407Z" fill="#020303"/>
<path d="M51.1535 37.2279C49.782 36.1043 48.0363 35.1637 45.9655 34.432C44.8838 34.0671 44.0378 33.7272 43.4528 33.4245C42.8418 33.1069 42.5326 32.7373 42.5326 32.3269C42.5326 31.8106 42.7935 31.3575 43.3061 30.9823C43.8094 30.6146 44.4483 30.4289 45.206 30.4289C46.154 30.4289 47.078 30.5441 47.9527 30.7725C48.8033 30.9963 49.7792 31.3426 50.8563 31.8023L52.499 28.2737C51.5268 27.6543 50.328 27.1455 48.936 26.7611C47.5088 26.3673 46.2831 26.1677 45.2942 26.1677C42.7648 26.1677 40.734 26.7276 39.2557 27.8298C37.7885 28.9265 37.0438 30.4531 37.0438 32.3687C37.0438 33.8906 37.7143 35.1674 39.0347 36.1628C40.3737 37.1731 42.0739 38.0135 44.0889 38.6607C46.6675 39.4231 47.923 40.3628 47.923 41.5346C47.923 42.1475 47.5283 42.6257 46.7511 42.9553C46.0064 43.2729 45.1735 43.4336 44.2774 43.4336C42.7304 43.4336 40.8593 42.9711 38.7143 42.0593L37.0708 45.6352C37.9594 46.2815 39.1266 46.7876 40.5436 47.1432C42.0043 47.5081 43.2913 47.6938 44.3656 47.6938C47.2191 47.6938 49.43 47.1339 50.9362 46.0298C52.4321 44.9341 53.1908 43.35 53.1908 41.322C53.1908 39.7156 52.5055 38.3376 51.1535 37.2279Z" fill="#020303"/>
<path fill-rule="evenodd" clip-rule="evenodd" d="M66.1254 26.1681C67.8108 26.1681 69.3736 26.4949 70.7683 27.1384C72.1602 27.781 73.2838 28.6873 74.1102 29.8322C74.9329 30.9725 75.3498 32.2716 75.3498 33.6914V47.1826H71.7702L70.7599 44.8853L70.6485 44.9976C68.8796 46.787 67.0001 47.6942 65.065 47.6942C62.5383 47.6942 60.6143 47.0944 59.3441 45.9104C58.0747 44.7311 57.4321 43.1154 57.4321 41.1088C57.4321 39.0511 58.162 37.4381 59.6022 36.3127C61.0498 35.1817 63.0212 34.6088 65.4624 34.6088H69.7663L69.7719 34.5066C69.8416 33.2735 69.5583 32.3106 68.9511 31.7228C68.3484 31.1443 67.3168 30.7989 66.1876 30.7989C65.2098 30.7989 64.116 30.9363 62.9348 31.2065C61.8048 31.4646 60.8223 31.7739 60.0136 32.1249L58.5603 27.9825C59.3162 27.5256 60.515 27.1087 62.1251 26.741C63.7873 26.3603 65.1337 26.1681 66.1254 26.1681ZM69.7831 41.4431L69.8165 41.4106V38.1021H65.3742C64.4057 38.1021 63.6136 38.3992 63.0203 38.9861C62.4269 39.5729 62.1251 40.2879 62.1251 41.1088C62.1251 41.7634 62.3981 42.3364 62.9367 42.809C63.4697 43.2798 64.155 43.5184 64.9758 43.5184C66.7058 43.5184 68.3243 42.8201 69.7831 41.4431Z" fill="#020303"/>
<path fill-rule="evenodd" clip-rule="evenodd" d="M85.6057 28.1074C87.3189 26.8204 89.202 26.1676 91.2022 26.1676C94.4884 26.1676 97.119 27.1398 99.0198 29.0555C100.922 30.9739 101.886 33.6092 101.886 36.888C101.886 39.02 101.452 40.9245 100.593 42.5504C99.7385 44.1717 98.4803 45.4475 96.8544 46.3436C95.2257 47.2397 93.2645 47.6938 91.0248 47.6938C89.839 47.6938 88.5595 47.3678 87.2242 46.7243L87.0691 46.65V56.0992L81.5803 56.5096V26.7229H84.34L85.523 28.1696L85.6057 28.1074ZM90.9812 43.1781C92.57 43.1781 93.8486 42.5829 94.7809 41.4101C95.7067 40.2448 96.1747 38.7228 96.1747 36.888C96.1747 35.054 95.7132 33.547 94.8023 32.4085C93.8848 31.2645 92.5988 30.6842 90.9812 30.6842C89.7276 30.6842 88.4285 31.1058 87.1193 31.9368L87.0691 31.9693V41.9338L87.1183 41.9663C88.3394 42.7705 89.6385 43.1781 90.9812 43.1781Z" fill="#020303"/>
<path fill-rule="evenodd" clip-rule="evenodd" d="M116.587 26.1676C119.874 26.1676 122.504 27.1398 124.405 29.0555C126.307 30.9739 127.272 33.6092 127.272 36.888C127.272 39.02 126.836 40.9245 125.978 42.5504C125.123 44.1717 123.867 45.4485 122.241 46.3436C120.612 47.2397 118.651 47.6938 116.41 47.6938C115.224 47.6938 113.946 47.3678 112.609 46.7243L112.454 46.65V56.0992L106.966 56.5096V26.7229H109.725L110.908 28.1696L110.991 28.1074C112.704 26.8204 114.587 26.1676 116.587 26.1676ZM116.366 43.1781C117.955 43.1781 119.234 42.5829 120.166 41.4101C121.092 40.2448 121.56 38.7228 121.56 36.888C121.56 35.0531 121.098 33.5451 120.188 32.4085C119.271 31.2645 117.985 30.6842 116.366 30.6842C115.113 30.6842 113.814 31.1058 112.505 31.9368L112.454 31.9693V41.9338L112.504 41.9663C113.725 42.7705 115.024 43.1781 116.366 43.1781Z" fill="#020303"/>
<path d="M5.29124 11.2878C5.26524 11.2609 5.24574 11.2302 5.21789 11.2042C4.61896 10.6406 3.88632 10.3555 3.03946 10.3555C2.19539 10.3555 1.46832 10.6406 0.882387 11.2033C0.297387 11.766 0.000244141 12.4792 0.000244141 13.3223C0.000244141 14.1422 0.297387 14.8424 0.882387 15.4042C1.46924 15.9678 2.19539 16.2529 3.03946 16.2529C3.45824 16.2529 3.84824 16.1823 4.20853 16.043C4.57717 15.901 4.91517 15.6883 5.21789 15.4032C5.81496 14.8415 6.11767 14.1413 6.11767 13.3223C6.11767 12.5191 5.83353 11.8375 5.29124 11.2878Z" fill="#020303"/>
<defs>
<linearGradient id="paint0_linear" x1="153.138" y1="-5.54522" x2="33.8846" y2="-58.7128" gradientUnits="userSpaceOnUse">
<stop stop-color="#FBF4A2"/>
<stop offset="1" stop-color="#FFE000"/>
</linearGradient>
</defs>
</svg>
