<svg width="30" height="30" viewBox="0 0 30 30" fill="none" xmlns="http://www.w3.org/2000/svg">
<path fill-rule="evenodd" clip-rule="evenodd" d="M25.6055 0H4.39453C1.97159 0 0 1.97159 0 4.39453V25.6055C0 28.0284 1.97159 30 4.39453 30H25.6055C28.0284 30 30 28.0284 30 25.6055V4.39453C30 1.97159 28.0284 0 25.6055 0ZM15 9C11.692 9 9 11.692 9 15C9 18.308 11.692 21 15 21C18.308 21 21 18.308 21 15C21 11.692 18.308 9 15 9ZM7.14844 14.9414C7.14844 19.3032 10.6968 22.8516 15.0586 22.8516C19.4204 22.8516 22.9688 19.3032 22.9688 14.9414C22.9688 10.5796 19.4204 7.03125 15.0586 7.03125C10.6968 7.03125 7.14844 10.5796 7.14844 14.9414ZM23.8477 8.78906C22.3938 8.78906 21.2109 7.6062 21.2109 6.15234C21.2109 4.69849 22.3938 3.51562 23.8477 3.51562C25.3015 3.51562 26.4844 4.69849 26.4844 6.15234C26.4844 7.6062 25.3015 8.78906 23.8477 8.78906ZM23 6C23 5.44818 23.4482 5 24 5C24.5518 5 25 5.44818 25 6C25 6.55182 24.5518 7 24 7C23.4482 7 23 6.55182 23 6Z" fill="#1B1B1B"/>
</svg>
