<svg width="60" height="61" viewBox="0 0 60 61" fill="none" xmlns="http://www.w3.org/2000/svg">
<path d="M59.9651 8.19097C59.9651 3.81622 56.4187 0.269775 52.0439 0.269775C48.0494 0.269775 44.7472 3.22703 44.2031 7.07136L44.123 7.02904C37.6449 4.10729 32.1882 9.28237 32.1882 9.28237L17.7543 23.787L23.4575 29.2792L35.0751 17.8654C40.5001 12.4402 43.4541 16.1122 43.4541 16.1122C47.538 19.5622 43.5947 23.6461 43.5947 23.6461L49.4389 29.2792C54.2112 24.1248 54.4879 19.6264 53.0373 16.048C56.943 15.5589 59.9651 12.229 59.9651 8.19097Z" fill="#F9AE41"/>
<path d="M53.1109 44.6209C53.1379 44.5704 53.1532 44.541 53.1532 44.541C56.0752 38.0627 50.8999 32.6059 50.8999 32.6059L36.395 18.1716L30.903 23.8752L42.3168 35.4926C47.7418 40.9179 44.0698 43.8721 44.0698 43.8721C40.62 47.956 36.5361 44.0127 36.5361 44.0127L30.903 49.8566C36.0572 54.629 40.5558 54.9057 44.134 53.4551C44.623 57.3608 47.9532 60.3831 51.9913 60.3831C56.366 60.3831 59.9122 56.8367 59.9122 52.4619C59.9122 48.4674 56.9552 45.1652 53.1109 44.6209Z" fill="#EE4035"/>
<path d="M36.5184 31.1096L24.9008 42.5232C19.4756 47.9487 16.5216 44.2769 16.5216 44.2769C12.4377 40.8266 16.3808 36.7429 16.3808 36.7429L10.537 31.1096C5.76471 36.2638 5.48775 40.7622 6.93816 44.3406C3.03246 44.8299 0.0103149 48.1596 0.0103149 52.1979C0.0103149 56.5726 3.55676 60.1188 7.93175 60.1188C11.9263 60.1191 15.2285 57.162 15.7725 53.3177C15.8233 53.3447 15.8527 53.3598 15.8527 53.3598C22.331 56.2822 27.7875 51.1065 27.7875 51.1065L42.2216 36.6016L36.5184 31.1096Z" fill="#4F91CD"/>
<path d="M17.6589 24.8963C12.2336 19.4711 15.9052 16.5169 15.9052 16.5169C19.3557 12.433 23.4394 16.3763 23.4394 16.3763L29.0724 10.5326C23.9183 5.76025 19.4199 5.48352 15.8414 6.93394C15.3524 3.028 12.0227 0.00585938 7.98396 0.00585938C3.60991 0.00585938 0.0637026 3.55231 0.0632324 7.92706C0.0632324 11.9219 3.02025 15.224 6.86482 15.7681C6.83778 15.8189 6.82273 15.8485 6.82273 15.8485C3.90028 22.3263 9.07582 27.7828 9.07582 27.7828L23.5809 42.2171L29.0729 36.514L17.6591 24.8963" fill="#7AC043"/>
</svg>
