<svg viewBox="0 0 109 40" fill="none" xmlns="http://www.w3.org/2000/svg">

<path d="M12.3149 26.7583L18.4577 26.766L26.9788 12.0102L43.2501 39.4622L46.2063 34.0155C39.9302 23.0444 33.682 11.8692 27.128 1.08959L12.3149 26.7583Z" fill="url(#paint0_linear)"/>
<path d="M1.27722 33.0847L30.8912 33.0839L27.852 27.6999L10.7059 27.661L26.5401 0.0247498L20.2302 0.0496641L1.27722 33.0847Z" fill="url(#paint1_linear)"/>
<path d="M27.0582 13.8546L23.8947 19.2889L32.4698 34.0292L0.68103 34.0169L3.78937 39.5377L41.9304 39.4401L27.0582 13.8546Z" fill="url(#paint2_linear)"/>

<path class="logo-text" fill-rule="evenodd" clip-rule="evenodd" d="M55.6187 3.84664V18.7233H53.7721V3.84664H50.7181V2.16734H58.6726V3.84664H55.6187ZM60.0457 18.7233V2.16734H63.6678C66.2719 2.16734 67.3846 3.70467 67.3846 6.21183V8.19846C67.3846 10.8238 66.1535 12.1955 63.5257 12.1955H61.8922V18.7233H60.0457ZM61.8922 10.5399V3.84664H63.6678C65.0172 3.84664 65.5617 4.60348 65.5617 6.11713V8.31672C65.5617 9.90135 64.8988 10.5399 63.5257 10.5399H61.8922ZM74.9839 18.7233V5.54957L73.1847 11.084L70.7464 18.7233H68.8288V2.16734H70.4622V14.5134L71.93 9.94866L74.5815 2.16734H76.6411V18.7233H74.9839ZM84.5719 15.3885L85.211 18.7233H87.0576L83.8854 2.16734H81.2101L78.0378 18.7233H79.7423L80.3816 15.3885H84.5719ZM84.3115 13.8039L82.4412 4.24868L80.6183 13.8039H84.3115ZM98.4685 20.9939V17.0914H97.2138V2.16734H90.5614L89.9222 14.679C89.8749 15.6959 89.7565 16.4528 89.1883 17.0914H88.123V20.9939H89.8985V18.7233H96.6693V20.9939H98.4685ZM95.3436 3.84664H92.2659L91.7214 14.6553C91.6504 15.8379 91.4846 16.5474 90.9639 17.0914H95.3436V3.84664ZM106.139 15.3885L106.778 18.7233H108.625L105.452 2.16734H102.777L99.6048 18.7233H101.309L101.949 15.3885H106.139ZM105.878 13.8039L104.008 4.24868L102.185 13.8039H105.878Z"/>
<path class="logo-text" fill-rule="evenodd" clip-rule="evenodd" d="M74.0411 20.9616C74.8271 20.9616 75.3988 20.676 75.4702 19.748H76.6135C76.6135 21.1995 75.6369 22.0799 74.0411 22.0799C72.4454 22.0799 71.5165 21.1995 71.4689 19.748H72.6359C72.7073 20.676 73.2552 20.9616 74.0411 20.9616ZM50.7716 27.1719C50.7716 24.6497 51.9624 22.984 54.5109 22.984C57.0832 22.984 58.274 24.6497 58.274 27.1719V28.671H56.5116V27.0768C56.5116 25.5777 55.9162 24.6735 54.5585 24.6735C53.2248 24.6735 52.6055 25.5777 52.6055 27.0768V35.8807C52.6055 37.3798 53.2248 38.284 54.5585 38.284C55.9162 38.284 56.5116 37.3798 56.5116 35.8807V33.7155H58.274V35.7856C58.274 38.3078 57.0832 39.9734 54.5109 39.9734C51.9624 39.9734 50.7716 38.3078 50.7716 35.7856V27.1719ZM66.7053 39.8069L66.0623 36.4518H61.8466L61.2036 39.8069H59.4887L62.6803 23.1506H65.3716L68.5631 39.8069H66.7053ZM63.9187 25.2445L65.8003 34.8575H62.0848L63.9187 25.2445ZM76.2086 26.5532V39.8069H77.8758V23.1506H75.8037L73.2076 30.7649L71.6594 35.5714V23.1506H70.016V39.8069H71.9452L74.5413 31.7881L76.2086 26.5532ZM84.1872 24.84V39.8069H82.3295V24.84H79.2572V23.1506H87.2597V24.84H84.1872Z"/>
<defs>
  <linearGradient id="paint0_linear" x1="-4.63075" y1="1.08959" x2="-4.63075" y2="39.4622" gradientUnits="userSpaceOnUse">
    <stop stop-color="#F00924"/>
    <stop offset="1" stop-color="#A30000"/>
  </linearGradient>
  <linearGradient id="paint1_linear" x1="-13.5298" y1="0.0247498" x2="-13.5298" y2="33.0847" gradientUnits="userSpaceOnUse">
    <stop stop-color="#F00924"/>
    <stop offset="1" stop-color="#A30000"/>
  </linearGradient>
  <linearGradient id="paint2_linear" x1="-19.9437" y1="13.8546" x2="-19.9437" y2="39.5377" gradientUnits="userSpaceOnUse">
    <stop stop-color="#F00924"/>
    <stop offset="1" stop-color="#A30000"/>
  </linearGradient>
</defs>
</svg>
