<svg width="108" height="108" viewBox="0 0 108 108" fill="none" xmlns="http://www.w3.org/2000/svg">
<path fill-rule="evenodd" clip-rule="evenodd" d="M108 36.5767V71.3985C108 71.4031 108 71.4077 108 71.4123V106.277C108 106.82 107.743 107.332 107.307 107.658C107.006 107.883 106.644 108 106.277 108C106.112 108 105.947 107.977 105.786 107.929L72.1234 97.941C71.9099 98.0359 71.6739 98.0897 71.4251 98.0897C71.1762 98.0897 70.9405 98.0359 70.7268 97.941L37.0798 107.924L37.0639 107.929C37.0612 107.93 37.0583 107.93 37.0555 107.931C37.0527 107.931 37.0499 107.932 37.0471 107.933C36.9828 107.951 36.9168 107.965 36.8498 107.976L36.8475 107.976L36.8278 107.979C36.8173 107.981 36.8068 107.983 36.7962 107.984C36.7238 107.994 36.6505 108 36.5706 108C36.4961 108 36.423 107.994 36.3509 107.984C36.3327 107.982 36.3148 107.979 36.2969 107.976C36.2298 107.965 36.1641 107.951 36.1 107.933C36.0944 107.931 36.0887 107.931 36.0832 107.929L36.0572 107.921L1.23327 97.5885C0.501625 97.3716 0 96.6993 0 95.9364V61.1141V61.1015V26.2362C0 25.6923 0.256672 25.1801 0.692577 24.855C1.12848 24.5298 1.69238 24.4297 2.21354 24.5838L36.5733 34.7791L52.194 30.1445C50.9469 27.094 50.1696 24.0664 50.1696 21.2554C50.1696 9.53504 59.7046 0 71.4248 0C83.1451 0 92.6801 9.53527 92.6801 21.2554C92.6801 24.0664 91.9027 27.094 90.6557 30.1445L106.767 34.9245C107.498 35.1414 108 35.8138 108 36.5767ZM104.553 69.1178V37.863L89.2048 33.3093C84.2212 43.1801 75.3956 52.5839 73.1482 54.8981V59.8L104.553 69.1178ZM71.4248 3.44682C81.2443 3.44682 89.2333 11.4356 89.2333 21.2554C89.2333 24.0544 88.2969 27.1719 86.8408 30.3285C86.7686 30.4439 86.7093 30.5691 86.665 30.7038C82.5123 39.4699 74.4796 48.4549 71.4244 51.7055C68.371 48.4583 60.3457 39.4858 56.1914 30.7226C56.1447 30.5751 56.0797 30.4384 56 30.3136C54.5491 27.1627 53.6164 24.051 53.6164 21.2551C53.6164 11.4356 61.6054 3.44682 71.4248 3.44682ZM69.7014 59.7997V54.8979C67.4541 52.5839 58.6287 43.1801 53.6449 33.3093L38.2967 37.863V69.1176L69.7014 59.7997ZM3.4468 63.3952L15.3539 66.9282C15.5175 66.9767 15.6825 66.9999 15.8447 66.9999C16.5881 66.9999 17.274 66.5153 17.4962 65.7662C17.7671 64.8537 17.2469 63.8945 16.3342 63.6239L3.4468 59.8V28.5452L34.8499 37.863V69.1179L22.9431 65.5849C22.0308 65.3137 21.0714 65.8342 20.8008 66.7469C20.5298 67.6594 21.0501 68.6185 21.9628 68.8892L34.8501 72.7131V103.968L3.4468 94.65V63.3952ZM73.1482 82.1732V94.65L104.553 103.968V72.7131L73.1482 63.3952V75.2796C73.1482 76.2314 72.3768 77.003 71.4248 77.003C70.4728 77.003 69.7014 76.2314 69.7014 75.2796V63.3952L38.2967 72.7131V103.968L69.7014 94.65V82.1732C69.7014 81.2215 70.4728 80.4498 71.4248 80.4498C72.3768 80.4498 73.1482 81.2215 73.1482 82.1732Z" fill="white"/>
<path fill-rule="evenodd" clip-rule="evenodd" d="M83 20.5C83 26.8412 77.841 32 71.5 32C65.159 32 60 26.841 60 20.5C60 14.1588 65.159 9 71.5 9C77.841 9 83 14.159 83 20.5ZM79.7143 20.5C79.7143 15.9705 76.0295 12.2857 71.5 12.2857C66.9705 12.2857 63.2857 15.9705 63.2857 20.5C63.2857 25.0295 66.9705 28.7143 71.5 28.7143C76.0295 28.7143 79.7143 25.0295 79.7143 20.5Z" fill="white"/>
</svg>
