<svg xmlns="http://www.w3.org/2000/svg" width="108" height="108" viewBox="0 0 108 108"><path fill="#fff" d="M73.143 82.173a1.723 1.723 0 1 0-3.446 0V94.65l-31.4 9.318V72.713l31.4-9.318V75.28a1.723 1.723 0 1 0 3.446 0V63.395l31.4 9.318v31.255l-31.4-9.318zm-57.79-15.245a1.724 1.724 0 0 0 .98-3.304L3.448 59.8V28.545l31.403 9.318v31.255l-11.907-3.533a1.723 1.723 0 1 0-.98 3.304l12.887 3.824v31.255L3.447 94.65V63.395zm54.348-12.03V59.8l-31.404 9.318V37.863l15.348-4.554c4.984 9.871 13.81 19.275 16.056 21.589zm19.522-33.643c0 2.8-.936 5.917-2.392 9.074-.072.115-.13.24-.175.375-4.152 8.766-12.182 17.75-15.237 21.001-3.052-3.247-11.075-12.22-15.228-20.982a1.724 1.724 0 0 0-.192-.41c-1.45-3.15-2.383-6.262-2.383-9.058 0-9.82 7.987-17.808 17.804-17.808 9.817 0 17.803 7.989 17.803 17.808zm15.33 16.608v31.255L73.148 59.8v-4.902c2.248-2.314 11.073-11.718 16.057-21.589zM108 36.577c0-.763-.502-1.436-1.233-1.652l-16.111-4.78c1.247-3.051 2.024-6.079 2.024-8.89C92.68 9.535 83.145 0 71.425 0 59.705 0 50.17 9.535 50.17 21.255c0 2.811.777 5.839 2.024 8.89l-15.62 4.634-34.36-10.195A1.725 1.725 0 0 0 0 26.236v69.7c0 .763.502 1.436 1.233 1.653l34.824 10.332.026.008.017.004c.064.018.13.032.197.043l.054.008c.072.01.145.016.22.016.08 0 .153-.006.225-.016l.054-.008a1.75 1.75 0 0 0 .197-.043l.017-.004.016-.005 33.647-9.983a1.715 1.715 0 0 0 1.396 0l33.663 9.988a1.723 1.723 0 0 0 2.214-1.652V71.412v-.014z"/></svg>
