<svg width="30" height="22" viewBox="0 0 30 22" fill="none" xmlns="http://www.w3.org/2000/svg">
<path fill-rule="evenodd" clip-rule="evenodd" d="M27.4032 18V20.4764V21.8502H26.9082V21.5168C26.7514 21.7639 26.5134 21.9192 26.1899 21.9192C25.5522 21.9192 25.0523 21.3155 25.0523 20.477C25.0523 19.6386 25.5525 19.0349 26.1899 19.0349C26.5134 19.0349 26.7514 19.19 26.9082 19.4373V18H27.4032ZM8.85162 19.1027V20.4764H8.85106V21.8502H8.35708V21.5168C8.20023 21.7639 7.96217 21.9192 7.63876 21.9192C7.00109 21.9192 6.50115 21.3155 6.50115 20.477C6.50115 19.6386 7.00137 19.0349 7.63876 19.0349C7.96231 19.0349 8.20023 19.19 8.35708 19.4373V19.1027H8.85162ZM7.01038 20.4764C7.01038 19.9936 7.27226 19.5971 7.70029 19.5971C8.10933 19.5971 8.38535 19.9766 8.38535 20.4764C8.38535 20.9762 8.10933 21.3556 7.70029 21.3556C7.27226 21.3556 7.01038 20.9591 7.01038 20.4764ZM28.3902 21.5343C28.3467 21.4828 28.2882 21.4539 28.2273 21.454L28.228 21.4512C28.1968 21.4509 28.1659 21.4583 28.1371 21.4729C28.1096 21.4862 28.0845 21.5062 28.0636 21.5315C28.0426 21.5562 28.0259 21.5858 28.0145 21.6183C27.9906 21.6859 27.9906 21.7624 28.0145 21.83C28.0257 21.8633 28.0422 21.8938 28.0629 21.9197C28.0841 21.9446 28.1091 21.9645 28.1364 21.9782C28.1652 21.9929 28.1961 22.0003 28.2273 22C28.2582 22.0002 28.2887 21.9928 28.3171 21.9782C28.3442 21.9641 28.3689 21.9443 28.3902 21.9197C28.4109 21.8947 28.4275 21.8652 28.4392 21.8328C28.4631 21.7652 28.4631 21.6888 28.4392 21.6212C28.4278 21.5886 28.4111 21.5591 28.3902 21.5343ZM28.2273 21.9376C28.2507 21.9378 28.2739 21.9321 28.2954 21.9208C28.3161 21.9101 28.3349 21.8947 28.3508 21.8755C28.3668 21.8563 28.3795 21.8336 28.3884 21.8086C28.4065 21.7555 28.4065 21.696 28.3884 21.6429C28.3794 21.618 28.3667 21.5953 28.3508 21.576C28.3349 21.5568 28.3161 21.5414 28.2954 21.5307C28.2738 21.52 28.2507 21.5146 28.2273 21.5149C28.2036 21.5147 28.1801 21.52 28.1581 21.5307C28.1369 21.5412 28.1177 21.5566 28.1014 21.576C28.0513 21.6381 28.0367 21.7303 28.0644 21.8103C28.0728 21.8354 28.0854 21.8581 28.1014 21.8772C28.1177 21.8966 28.1369 21.912 28.1581 21.9225C28.1799 21.9338 28.2035 21.9395 28.2273 21.9393V21.9376ZM28.3033 21.6187C28.2853 21.603 28.2633 21.5953 28.2412 21.5969L28.2419 21.5971H28.1449V21.8502H28.1895V21.7555H28.2102L28.2739 21.8502H28.3272L28.258 21.7549C28.2763 21.7532 28.2937 21.7445 28.3076 21.7299C28.3193 21.7164 28.3257 21.6975 28.325 21.6779C28.326 21.6551 28.3179 21.6331 28.3033 21.6187ZM28.189 21.7435V21.6446V21.6436H28.2465C28.2573 21.6429 28.2681 21.6473 28.2774 21.6562C28.2849 21.6645 28.2893 21.6784 28.2889 21.6931C28.2893 21.708 28.285 21.7223 28.2774 21.7309C28.268 21.7395 28.2573 21.7438 28.2465 21.7435H28.189ZM25.5614 20.4764C25.5614 19.9936 25.8232 19.5971 26.2514 19.5971C26.6609 19.5971 26.9365 19.9766 26.9365 20.4764C26.9365 20.9762 26.6609 21.3556 26.2514 21.3556C25.8234 21.3556 25.5614 20.9591 25.5614 20.4764ZM14.9896 19.5688C15.3082 19.5689 15.5128 19.8101 15.5651 20.2349H14.385C14.4378 19.8384 14.6372 19.5688 14.9896 19.5688ZM13.8667 20.4755C13.8667 19.619 14.3329 19.0334 14.9994 19.0334L14.9992 19.0332C15.6357 19.0332 16.0741 19.6192 16.0791 20.4754C16.0791 20.5542 16.0743 20.628 16.0695 20.701V20.701V20.701V20.701V20.701V20.701V20.701V20.7011V20.7011L16.0693 20.7049H14.3806C14.452 21.1994 14.7421 21.3776 15.0608 21.3776C15.289 21.3776 15.5318 21.2743 15.7225 21.0903L15.9648 21.5328C15.6888 21.8144 15.3751 21.9177 15.0326 21.9177C14.3517 21.9177 13.8667 21.3488 13.8667 20.4755ZM20.9699 20.4754C20.9699 19.9926 21.2318 19.5961 21.6598 19.5961C22.0689 19.5961 22.3449 19.9756 22.3449 20.4754C22.3449 20.9751 22.0689 21.3546 21.6598 21.3546C21.2318 21.3546 20.9698 20.9581 20.9698 20.4754H20.9699ZM22.811 19.1027V20.4754L22.8111 20.4764V21.8502H22.3167V21.5168C22.1593 21.7639 21.922 21.9192 21.5984 21.9192C20.9608 21.9192 20.4608 21.3155 20.4608 20.477C20.4608 19.6386 20.961 19.0349 21.5984 19.0349C21.922 19.0349 22.1593 19.19 22.3167 19.4373V19.1027H22.811ZM18.1771 20.4754C18.1771 21.3085 18.6574 21.9175 19.3904 21.9175C19.7329 21.9175 19.9611 21.8255 20.2079 21.5901L19.9704 21.1073C19.7848 21.2685 19.5898 21.3546 19.3746 21.3546C18.9798 21.3488 18.6895 21.0041 18.6895 20.4754C18.6895 19.9466 18.9798 19.6021 19.3746 19.5961C19.5892 19.5961 19.7842 19.6823 19.9704 19.8434L20.2079 19.3607C19.9607 19.1252 19.7325 19.0332 19.3904 19.0332C18.6574 19.0332 18.1771 19.6421 18.1771 20.4754ZM23.9529 19.4356C24.0814 19.1943 24.2672 19.0332 24.5525 19.0332L24.5522 19.0337C24.6524 19.0337 24.7951 19.0566 24.9046 19.1087L24.7521 19.6715C24.6538 19.6241 24.5487 19.6006 24.4429 19.6024C24.1196 19.6024 23.9579 19.8549 23.9579 20.3094V21.8487H23.4628V19.1027H23.9529V19.4356ZM11.2966 19.321C11.0587 19.1316 10.7308 19.0337 10.3692 19.0337C9.79302 19.0337 9.42209 19.3672 9.42209 19.9128C9.42209 20.3606 9.69825 20.6368 10.2068 20.723L10.4404 20.7632C10.7116 20.8092 10.8396 20.8953 10.8396 21.0504C10.8396 21.2628 10.6595 21.3839 10.3212 21.3839C9.9787 21.3839 9.7315 21.2517 9.56481 21.0966L9.33244 21.5623C9.60361 21.8036 9.94614 21.9187 10.3171 21.9187C10.9739 21.9187 11.3545 21.5452 11.3545 21.0223C11.3545 20.5396 11.0549 20.2871 10.56 20.2009L10.3269 20.1601C10.1128 20.1267 9.94129 20.0746 9.94129 19.8906C9.94129 19.6898 10.103 19.569 10.3743 19.569C10.6646 19.569 10.9456 19.7012 11.0833 19.8044L11.2974 19.3217L11.2966 19.321ZM17.0786 19.4366C17.2065 19.1953 17.3923 19.0342 17.6776 19.0342L17.6773 19.0337C17.7775 19.0337 17.9202 19.0566 18.0297 19.1087L17.8773 19.6715C17.779 19.6241 17.6739 19.6006 17.568 19.6024C17.2447 19.6024 17.083 19.8549 17.083 20.3094V21.8487H16.5885V19.1027H17.0786V19.4366ZM13.4575 19.1027H12.6488V18.2696H12.1489V19.1027H11.6876V19.6485H12.1489V20.9012C12.1489 21.5384 12.3537 21.9178 12.9387 21.9178C13.1533 21.9178 13.4005 21.8375 13.5574 21.7055L13.4145 21.1942C13.267 21.2974 13.1053 21.3494 12.9767 21.3494C12.7295 21.3494 12.6488 21.1654 12.6488 20.8898V19.649H13.4575V19.1027ZM6.06384 20.126V21.8494L5.56279 21.8481V20.3197C5.56279 19.8543 5.40164 19.5957 5.06396 19.5957C4.7357 19.5957 4.50749 19.8491 4.50749 20.3258V21.8484H4.00755V20.3201C4.00755 19.8546 3.84141 19.5961 3.51301 19.5961C3.17492 19.5961 2.95598 19.8494 2.95598 20.3261V21.8487H2.45715V19.1027H2.9521V19.4421C3.13792 19.1206 3.37528 19.0344 3.61818 19.0344C3.9657 19.0344 4.2129 19.2184 4.36976 19.523C4.5794 19.1376 4.87884 19.0285 5.16913 19.0344C5.72131 19.0402 6.06384 19.4769 6.06384 20.126Z" fill="#231F20"/>
<path fill-rule="evenodd" clip-rule="evenodd" d="M29.4568 14V15H29.3727V14.245L29.243 14.8967H29.1547L29.025 14.2467V15H28.9398V14H29.0601L29.1981 14.6862L29.3368 14H29.4568ZM28.6959 14.1713V15H28.6951H28.6107V14.1713H28.4572V14.0025H28.8494V14.1713H28.6959Z" fill="#F79410"/>
<path d="M18.457 16H10.4572V2H18.4572L18.457 16Z" fill="#FF5F00"/>
<path d="M11.1522 9C11.1522 6.12938 12.4446 3.57223 14.457 1.92428C12.9337 0.675038 11.0496 -0.00297132 9.10963 9.78876e-06C4.33088 9.78876e-06 0.457153 4.02938 0.457153 9C0.457153 13.9706 4.33088 18 9.10963 18C11.0496 18.003 12.9338 17.325 14.4572 16.0757C12.4448 14.4281 11.1522 11.8708 11.1522 9Z" fill="#EB001B"/>
<path d="M28.4572 9C28.4572 13.9706 24.5836 18 19.8051 18C17.865 18.003 15.9807 17.325 14.4572 16.0757C16.4701 14.4278 17.7624 11.8708 17.7624 9C17.7624 6.12924 16.4701 3.57223 14.4572 1.92428C15.9807 0.675075 17.8649 -0.00291907 19.805 9.44732e-06C24.5835 9.44732e-06 28.457 4.02938 28.457 9" fill="#F79E1B"/>
</svg>
