<svg width="62" height="42" viewBox="0 0 62 42" fill="none" xmlns="http://www.w3.org/2000/svg">
<g filter="url(#filter0_d)">
<rect x="4" y="2" width="54" height="34" rx="8" fill="white"/>
</g>
<path fill-rule="evenodd" clip-rule="evenodd" d="M43.4032 26V28.4764V29.8502H42.9082V29.5168C42.7514 29.7639 42.5134 29.9192 42.1899 29.9192C41.5522 29.9192 41.0523 29.3155 41.0523 28.477C41.0523 27.6386 41.5525 27.0349 42.1899 27.0349C42.5134 27.0349 42.7514 27.19 42.9082 27.4373V26H43.4032ZM24.8516 27.1027V28.4764H24.8511V29.8502H24.3571V29.5168C24.2002 29.7639 23.9622 29.9192 23.6388 29.9192C23.0011 29.9192 22.5012 29.3155 22.5012 28.477C22.5012 27.6386 23.0014 27.0349 23.6388 27.0349C23.9623 27.0349 24.2002 27.19 24.3571 27.4373V27.1027H24.8516ZM23.0104 28.4764C23.0104 27.9936 23.2723 27.5971 23.7003 27.5971C24.1093 27.5971 24.3853 27.9766 24.3853 28.4764C24.3853 28.9762 24.1093 29.3556 23.7003 29.3556C23.2723 29.3556 23.0104 28.9591 23.0104 28.4764ZM44.3902 29.5343C44.3467 29.4828 44.2882 29.4539 44.2273 29.454L44.228 29.4512C44.1968 29.4509 44.1659 29.4583 44.1371 29.4729C44.1096 29.4862 44.0845 29.5062 44.0636 29.5315C44.0426 29.5562 44.0259 29.5858 44.0145 29.6183C43.9906 29.6859 43.9906 29.7624 44.0145 29.83C44.0257 29.8633 44.0422 29.8938 44.0629 29.9197C44.0841 29.9446 44.1091 29.9645 44.1364 29.9782C44.1652 29.9929 44.1961 30.0003 44.2273 30C44.2582 30.0002 44.2887 29.9928 44.3171 29.9782C44.3442 29.9641 44.3689 29.9443 44.3902 29.9197C44.4109 29.8947 44.4275 29.8652 44.4392 29.8328C44.4631 29.7652 44.4631 29.6888 44.4392 29.6212C44.4278 29.5886 44.4111 29.5591 44.3902 29.5343ZM44.2273 29.9376C44.2507 29.9378 44.2739 29.9321 44.2954 29.9208C44.3161 29.9101 44.3349 29.8947 44.3508 29.8755C44.3668 29.8563 44.3795 29.8336 44.3884 29.8086C44.4065 29.7555 44.4065 29.696 44.3884 29.6429C44.3794 29.618 44.3667 29.5953 44.3508 29.576C44.3349 29.5568 44.3161 29.5414 44.2954 29.5307C44.2738 29.52 44.2507 29.5146 44.2273 29.5149C44.2036 29.5147 44.1801 29.52 44.1581 29.5307C44.1369 29.5412 44.1177 29.5566 44.1014 29.576C44.0513 29.6381 44.0367 29.7303 44.0644 29.8103C44.0728 29.8354 44.0854 29.8581 44.1014 29.8772C44.1177 29.8966 44.1369 29.912 44.1581 29.9225C44.1799 29.9338 44.2035 29.9395 44.2273 29.9393V29.9376ZM44.3033 29.6187C44.2853 29.603 44.2633 29.5953 44.2412 29.5969L44.2419 29.5971H44.1449V29.8502H44.1895V29.7555H44.2102L44.2739 29.8502H44.3272L44.258 29.7549C44.2763 29.7532 44.2937 29.7445 44.3076 29.7299C44.3193 29.7164 44.3257 29.6975 44.325 29.6779C44.326 29.6551 44.3179 29.6331 44.3033 29.6187ZM44.189 29.7435V29.6446V29.6436H44.2465C44.2573 29.6429 44.2681 29.6473 44.2774 29.6562C44.2849 29.6645 44.2893 29.6784 44.2889 29.6931C44.2893 29.708 44.285 29.7223 44.2774 29.7309C44.268 29.7395 44.2573 29.7438 44.2465 29.7435H44.189ZM41.5614 28.4764C41.5614 27.9936 41.8232 27.5971 42.2514 27.5971C42.6609 27.5971 42.9365 27.9766 42.9365 28.4764C42.9365 28.9762 42.6609 29.3556 42.2514 29.3556C41.8234 29.3556 41.5614 28.9591 41.5614 28.4764ZM30.9896 27.5688C31.3082 27.5689 31.5128 27.8101 31.5651 28.2349H30.385C30.4378 27.8384 30.6372 27.5688 30.9896 27.5688ZM29.8667 28.4755C29.8667 27.619 30.3329 27.0334 30.9994 27.0334L30.9992 27.0332C31.6357 27.0332 32.0741 27.6192 32.0791 28.4754C32.0791 28.5542 32.0743 28.628 32.0695 28.701V28.701V28.701V28.701V28.701V28.701V28.701V28.7011V28.7011L32.0693 28.7049H30.3806C30.452 29.1994 30.7421 29.3776 31.0608 29.3776C31.289 29.3776 31.5318 29.2743 31.7225 29.0903L31.9648 29.5328C31.6888 29.8144 31.3751 29.9177 31.0326 29.9177C30.3517 29.9177 29.8667 29.3488 29.8667 28.4755ZM36.9699 28.4754C36.9699 27.9926 37.2318 27.5961 37.6598 27.5961C38.0689 27.5961 38.3449 27.9756 38.3449 28.4754C38.3449 28.9751 38.0689 29.3546 37.6598 29.3546C37.2318 29.3546 36.9698 28.9581 36.9698 28.4754H36.9699ZM38.811 27.1027V28.4754L38.8111 28.4764V29.8502H38.3167V29.5168C38.1593 29.7639 37.922 29.9192 37.5984 29.9192C36.9608 29.9192 36.4608 29.3155 36.4608 28.477C36.4608 27.6386 36.961 27.0349 37.5984 27.0349C37.922 27.0349 38.1593 27.19 38.3167 27.4373V27.1027H38.811ZM34.1771 28.4754C34.1771 29.3085 34.6574 29.9175 35.3904 29.9175C35.7329 29.9175 35.9611 29.8255 36.2079 29.5901L35.9704 29.1073C35.7848 29.2685 35.5898 29.3546 35.3746 29.3546C34.9798 29.3488 34.6895 29.0041 34.6895 28.4754C34.6895 27.9466 34.9798 27.6021 35.3746 27.5961C35.5892 27.5961 35.7842 27.6823 35.9704 27.8434L36.2079 27.3607C35.9607 27.1252 35.7325 27.0332 35.3904 27.0332C34.6574 27.0332 34.1771 27.6421 34.1771 28.4754ZM39.9529 27.4356C40.0814 27.1943 40.2672 27.0332 40.5525 27.0332L40.5522 27.0337C40.6524 27.0337 40.7951 27.0566 40.9046 27.1087L40.7521 27.6715C40.6538 27.6241 40.5487 27.6006 40.4429 27.6024C40.1196 27.6024 39.9579 27.8549 39.9579 28.3094V29.8487H39.4628V27.1027H39.9529V27.4356ZM27.2966 27.321C27.0587 27.1316 26.7308 27.0337 26.3692 27.0337C25.793 27.0337 25.4221 27.3672 25.4221 27.9128C25.4221 28.3606 25.6982 28.6368 26.2068 28.723L26.4404 28.7632C26.7116 28.8092 26.8396 28.8953 26.8396 29.0504C26.8396 29.2628 26.6595 29.3839 26.3212 29.3839C25.9787 29.3839 25.7315 29.2517 25.5648 29.0966L25.3324 29.5623C25.6036 29.8036 25.9461 29.9187 26.3171 29.9187C26.9739 29.9187 27.3545 29.5452 27.3545 29.0223C27.3545 28.5396 27.0549 28.2871 26.56 28.2009L26.3269 28.1601C26.1128 28.1267 25.9413 28.0746 25.9413 27.8906C25.9413 27.6898 26.103 27.569 26.3743 27.569C26.6646 27.569 26.9456 27.7012 27.0833 27.8044L27.2974 27.3217L27.2966 27.321ZM33.0786 27.4366C33.2065 27.1953 33.3923 27.0342 33.6776 27.0342L33.6773 27.0337C33.7775 27.0337 33.9202 27.0566 34.0297 27.1087L33.8773 27.6715C33.779 27.6241 33.6739 27.6006 33.568 27.6024C33.2447 27.6024 33.083 27.8549 33.083 28.3094V29.8487H32.5885V27.1027H33.0786V27.4366ZM29.4575 27.1027H28.6488V26.2696H28.1489V27.1027H27.6876V27.6485H28.1489V28.9012C28.1489 29.5384 28.3537 29.9178 28.9387 29.9178C29.1533 29.9178 29.4005 29.8375 29.5574 29.7055L29.4145 29.1942C29.267 29.2974 29.1053 29.3494 28.9767 29.3494C28.7295 29.3494 28.6488 29.1654 28.6488 28.8898V27.649H29.4575V27.1027ZM22.0638 28.126V29.8494L21.5628 29.8481V28.3197C21.5628 27.8543 21.4016 27.5957 21.064 27.5957C20.7357 27.5957 20.5075 27.8491 20.5075 28.3258V29.8484H20.0075V28.3201C20.0075 27.8546 19.8414 27.5961 19.513 27.5961C19.1749 27.5961 18.956 27.8494 18.956 28.3261V29.8487H18.4572V27.1027H18.9521V27.4421C19.1379 27.1206 19.3753 27.0344 19.6182 27.0344C19.9657 27.0344 20.2129 27.2184 20.3698 27.523C20.5794 27.1376 20.8788 27.0285 21.1691 27.0344C21.7213 27.0402 22.0638 27.4769 22.0638 28.126Z" fill="#231F20"/>
<path fill-rule="evenodd" clip-rule="evenodd" d="M45.4568 22V23H45.3727V22.245L45.243 22.8967H45.1547L45.025 22.2467V23H44.9398V22H45.0601L45.1981 22.6862L45.3368 22H45.4568ZM44.6959 22.1713V23H44.6951H44.6107V22.1713H44.4572V22.0025H44.8494V22.1713H44.6959Z" fill="#F79410"/>
<path d="M34.457 24H26.4572V10H34.4572L34.457 24Z" fill="#FF5F00"/>
<path d="M27.1522 17C27.1522 14.1294 28.4446 11.5722 30.457 9.92428C28.9337 8.67504 27.0496 7.99703 25.1096 8.00001C20.3309 8.00001 16.4572 12.0294 16.4572 17C16.4572 21.9706 20.3309 26 25.1096 26C27.0496 26.003 28.9338 25.325 30.4572 24.0757C28.4448 22.4281 27.1522 19.8708 27.1522 17Z" fill="#EB001B"/>
<path d="M44.4572 17C44.4572 21.9706 40.5836 26 35.8051 26C33.865 26.003 31.9807 25.325 30.4572 24.0757C32.4701 22.4278 33.7624 19.8708 33.7624 17C33.7624 14.1292 32.4701 11.5722 30.4572 9.92428C31.9807 8.67507 33.8649 7.99708 35.805 8.00001C40.5835 8.00001 44.457 12.0294 44.457 17" fill="#F79E1B"/>
<defs>
<filter id="filter0_d" x="0" y="0" width="62" height="42" filterUnits="userSpaceOnUse" color-interpolation-filters="sRGB">
<feFlood flood-opacity="0" result="BackgroundImageFix"/>
<feColorMatrix in="SourceAlpha" type="matrix" values="0 0 0 0 0 0 0 0 0 0 0 0 0 0 0 0 0 0 127 0"/>
<feOffset dy="2"/>
<feGaussianBlur stdDeviation="2"/>
<feColorMatrix type="matrix" values="0 0 0 0 0 0 0 0 0 0 0 0 0 0 0 0 0 0 0.178185 0"/>
<feBlend mode="normal" in2="BackgroundImageFix" result="effect1_dropShadow"/>
<feBlend mode="normal" in="SourceGraphic" in2="effect1_dropShadow" result="shape"/>
</filter>
</defs>
</svg>
