<svg width="464" height="464" viewBox="0 0 464 464" fill="none" xmlns="http://www.w3.org/2000/svg">
<path fill-rule="evenodd" clip-rule="evenodd" d="M84.0078 178.601L88 180.91V206.246L69.8086 210.793L112 235.406L111.695 250.199L111.047 252.465L136 246.91V240.984C136 230.23 140.344 220.383 147.457 213.105L120.008 206.246L119.977 180.93L123.977 178.617C136.328 171.465 144 158.199 144 144V130.016C144 107.504 126.609 88.6639 105.23 88.0233C94.3984 87.6014 83.9766 91.6952 76.1445 99.2889C68.3125 106.887 64 117.09 64 128V144C64 158.199 71.6641 171.465 84.0078 178.601Z" fill="url(#paint0_linear)"/>
<path fill-rule="evenodd" clip-rule="evenodd" d="M143.625 89.2656C162.426 59 195.84 40 232 40C267.902 40 301.223 58.8242 320.078 88.793C320.398 88.4727 320.68 88.1211 321.008 87.8008C325.992 82.9609 331.719 79.2305 337.895 76.5742L346.969 55.3281L321.441 29.793L298.945 44.4336L294.641 41.793C283.855 35.1836 272.199 30.3438 260 27.4258L255.07 26.2383L249.512 0H214.48L208.93 26.2383L204.008 27.4141C191.809 30.3359 180.152 35.1758 169.367 41.7852L165.062 44.4258L142.566 29.7852L117.008 55.3438L125.984 76.7422C132.609 79.7266 138.594 84 143.625 89.2656Z" fill="url(#paint1_linear)"/>
<path fill-rule="evenodd" clip-rule="evenodd" d="M0 184V330.23L34.3359 341.68L63.3672 225.559L0 184Z" fill="url(#paint2_linear)"/>
<path fill-rule="evenodd" clip-rule="evenodd" d="M328 189.902C313.09 179.488 304 162.312 304 144V128C304 119.184 306.07 110.727 309.879 103.09C294.742 74.375 264.633 56 232 56C199.055 56 168.816 74.625 153.793 103.734C157.734 111.664 160 120.602 160 130.016V144C160 162.312 150.902 179.504 135.992 189.91V193.742L168 201.754L200 193.742V189.902C185.09 179.488 176 162.312 176 144V128C176 112.719 182.039 98.4492 193.008 87.8086C203.969 77.168 218.406 71.5859 233.719 72.0234C263.648 72.9297 288 98.9375 288 130.016V144C288 162.312 278.902 179.504 263.992 189.91V193.742L296 201.754L328 193.742V189.902Z" fill="url(#paint3_linear)"/>
<path fill-rule="evenodd" clip-rule="evenodd" d="M96 244.594L77.7539 233.953L49.5508 346.754L65.2969 352H65.9688L96 246.879V244.594Z" fill="url(#paint4_linear)"/>
<path fill-rule="evenodd" clip-rule="evenodd" d="M170.176 217.695C159.48 220.375 152 229.953 152 240.984V243.351L156.586 242.336C173.48 238.594 191.344 239.383 207.848 244.672L244.062 256.246C248.07 256.398 252.062 256.84 255.93 257.945L305.121 272H310.023L312 270.961V240.984C312 229.953 304.52 220.375 293.824 217.695L248.008 206.246L247.977 180.93L251.977 178.617C264.328 171.465 272 158.199 272 144V130.016C272 107.504 254.609 88.6639 233.23 88.0233C222.434 87.6014 211.977 91.6952 204.145 99.2889C196.312 106.887 192 117.09 192 128V144C192 158.199 199.664 171.465 212.008 178.601L216 180.91V206.246L170.176 217.695Z" fill="url(#paint5_linear)"/>
<path fill-rule="evenodd" clip-rule="evenodd" d="M320 128V144C320 158.199 327.664 171.465 340.008 178.601L344 180.91V206.246L316.543 213.105C323.648 220.383 328 230.223 328 240.984V262.535L415.977 216.23L376.008 206.246L375.977 180.93L379.977 178.617C392.328 171.465 400 158.199 400 144V130.016C400 107.504 382.609 88.6639 361.23 88.0233C350.375 87.6014 339.984 91.6952 332.145 99.2889C324.312 106.887 320 117.09 320 128Z" fill="url(#paint6_linear)"/>
<path fill-rule="evenodd" clip-rule="evenodd" d="M249.551 316.168C244.383 311.519 236.352 310.726 230.367 314.32L200.574 332.183C196.434 334.68 191.656 336 186.801 336C172.023 336 160 323.976 160 309.199V307.617C160 297.406 165.672 288.222 174.816 283.648L214.77 263.672L202.984 259.902C189.16 255.48 174.223 254.793 160.062 257.961L106.055 269.969L84.5117 345.367L109.09 360.113C109.793 359.168 110.488 358.215 111.328 357.375L125.391 343.312C130.023 338.664 136.457 336 143.031 336C156.496 336 167.441 346.734 167.91 360.09C180.961 360.551 191.449 371.039 191.91 384.09C204.961 384.551 215.449 395.039 215.91 408.09C225.375 408.426 233.457 414.031 237.391 422.07L255.246 436.953C257.594 438.91 260.586 440 263.656 440C268.258 440 272 436.258 272 431.656C272 429.168 270.902 426.832 269 425.246L226.871 390.144L237.121 377.847L280.574 414.055C282.07 415.312 283.969 416 285.91 416H287.656C292.258 416 296 412.258 296 407.656C296 405.168 294.902 402.832 293 401.246L250.871 366.144L261.121 353.847L304.504 390C306.039 391.289 308.008 392 310.008 392H311.391C316.145 392 320 388.144 320 383.398C320 380.961 318.961 378.633 317.152 377L249.551 316.168Z" fill="url(#paint7_linear)"/>
<path fill-rule="evenodd" clip-rule="evenodd" d="M313.977 288L301.809 287.695L251.535 273.336C243.305 270.969 234.238 271.832 226.602 275.648L181.977 297.961C178.289 299.809 176 303.504 176 307.617V309.199C176 315.152 180.84 320 186.801 320C188.754 320 190.664 319.473 192.336 318.473L222.137 300.602C227.152 297.586 232.871 296 238.711 296C246.688 296 254.344 298.938 260.266 304.273L327.848 365.105C328.328 365.535 328.785 365.977 329.223 366.441L464 299.055V209.039L313.977 288Z" fill="url(#paint8_linear)"/>
<path fill-rule="evenodd" clip-rule="evenodd" d="M237.727 443.191C236.496 445.938 234.832 448.48 232.687 450.625L226.68 456.633L232.664 461.91C234.184 463.258 236.145 464 238.176 464H239.656C244.258 464 248 460.258 248 455.656C248 453.168 246.902 450.832 245 449.246L237.727 443.191Z" fill="url(#paint9_linear)"/>
<path fill-rule="evenodd" clip-rule="evenodd" d="M215.031 424C212.672 424 210.359 424.953 208.688 426.625L194.625 440.688C192.953 442.359 192 444.672 192 447.031C192 451.977 196.023 456 200.969 456C203.328 456 205.641 455.047 207.312 453.375L221.375 439.312C223.047 437.641 224 435.328 224 432.969C224 428.023 219.977 424 215.031 424Z" fill="url(#paint10_linear)"/>
<path fill-rule="evenodd" clip-rule="evenodd" d="M176 384.969C176 380.023 171.977 376 167.031 376C164.672 376 162.359 376.953 160.688 378.625L146.625 392.688C144.953 394.359 144 396.672 144 399.031C144 403.977 148.023 408 152.969 408C155.328 408 157.641 407.047 159.312 405.375L173.375 391.312C175.047 389.641 176 387.328 176 384.969Z" fill="url(#paint11_linear)"/>
<path fill-rule="evenodd" clip-rule="evenodd" d="M200 408.969C200 404.023 195.977 400 191.031 400C188.672 400 186.359 400.953 184.688 402.625L170.625 416.688C168.953 418.359 168 420.672 168 423.031C168 427.977 172.023 432 176.969 432C179.328 432 181.641 431.047 183.312 429.375L197.375 415.312C199.047 413.641 200 411.328 200 408.969Z" fill="url(#paint12_linear)"/>
<path fill-rule="evenodd" clip-rule="evenodd" d="M152 360.969C152 356.023 147.977 352 143.031 352C140.672 352 138.359 352.953 136.688 354.625L122.625 368.688C120.953 370.359 120 372.672 120 375.031C120 379.977 124.023 384 128.969 384C131.328 384 133.641 383.047 135.312 381.375L149.375 367.312C151.047 365.641 152 363.328 152 360.969Z" fill="url(#paint13_linear)"/>
<defs>
<linearGradient id="paint0_linear" x1="64" y1="87.9937" x2="64" y2="252.465" gradientUnits="userSpaceOnUse">
<stop stop-color="#EF0924"/>
<stop offset="1" stop-color="#A30000"/>
</linearGradient>
<linearGradient id="paint1_linear" x1="117.008" y1="0" x2="117.008" y2="89.2656" gradientUnits="userSpaceOnUse">
<stop stop-color="#EF0924"/>
<stop offset="1" stop-color="#A30000"/>
</linearGradient>
<linearGradient id="paint2_linear" x1="0" y1="184" x2="0" y2="341.68" gradientUnits="userSpaceOnUse">
<stop stop-color="#EF0924"/>
<stop offset="1" stop-color="#A30000"/>
</linearGradient>
<linearGradient id="paint3_linear" x1="135.992" y1="56" x2="135.992" y2="201.754" gradientUnits="userSpaceOnUse">
<stop stop-color="#EF0924"/>
<stop offset="1" stop-color="#A30000"/>
</linearGradient>
<linearGradient id="paint4_linear" x1="49.5508" y1="233.953" x2="49.5508" y2="352" gradientUnits="userSpaceOnUse">
<stop stop-color="#EF0924"/>
<stop offset="1" stop-color="#A30000"/>
</linearGradient>
<linearGradient id="paint5_linear" x1="152" y1="87.9937" x2="152" y2="272" gradientUnits="userSpaceOnUse">
<stop stop-color="#EF0924"/>
<stop offset="1" stop-color="#A30000"/>
</linearGradient>
<linearGradient id="paint6_linear" x1="316.543" y1="87.9937" x2="316.543" y2="262.535" gradientUnits="userSpaceOnUse">
<stop stop-color="#EF0924"/>
<stop offset="1" stop-color="#A30000"/>
</linearGradient>
<linearGradient id="paint7_linear" x1="84.5117" y1="256" x2="84.5117" y2="440" gradientUnits="userSpaceOnUse">
<stop stop-color="#EF0924"/>
<stop offset="1" stop-color="#A30000"/>
</linearGradient>
<linearGradient id="paint8_linear" x1="176" y1="209.039" x2="176" y2="366.441" gradientUnits="userSpaceOnUse">
<stop stop-color="#EF0924"/>
<stop offset="1" stop-color="#A30000"/>
</linearGradient>
<linearGradient id="paint9_linear" x1="226.68" y1="443.191" x2="226.68" y2="464" gradientUnits="userSpaceOnUse">
<stop stop-color="#EF0924"/>
<stop offset="1" stop-color="#A30000"/>
</linearGradient>
<linearGradient id="paint10_linear" x1="192" y1="424" x2="192" y2="456" gradientUnits="userSpaceOnUse">
<stop stop-color="#EF0924"/>
<stop offset="1" stop-color="#A30000"/>
</linearGradient>
<linearGradient id="paint11_linear" x1="144" y1="376" x2="144" y2="408" gradientUnits="userSpaceOnUse">
<stop stop-color="#EF0924"/>
<stop offset="1" stop-color="#A30000"/>
</linearGradient>
<linearGradient id="paint12_linear" x1="168" y1="400" x2="168" y2="432" gradientUnits="userSpaceOnUse">
<stop stop-color="#EF0924"/>
<stop offset="1" stop-color="#A30000"/>
</linearGradient>
<linearGradient id="paint13_linear" x1="120" y1="352" x2="120" y2="384" gradientUnits="userSpaceOnUse">
<stop stop-color="#EF0924"/>
<stop offset="1" stop-color="#A30000"/>
</linearGradient>
</defs>
</svg>
