<svg width="62" height="42" viewBox="0 0 62 42" fill="none" xmlns="http://www.w3.org/2000/svg">
<g filter="url(#filter0_d)">
<rect x="4" y="2" width="54" height="34" rx="8" fill="white"/>
</g>
<path d="M19.1974 14.9123C18.7509 14.4084 17.9436 14.1923 16.9109 14.1923H13.9137C13.7025 14.1922 13.5227 14.3442 13.4896 14.5507L12.2421 22.3879C12.2304 22.4615 12.2519 22.5364 12.3008 22.593C12.3497 22.6496 12.4212 22.6822 12.4964 22.6821H14.3467L14.8114 19.7637L14.797 19.8551C14.8295 19.649 15.0086 19.4969 15.2193 19.4967H16.0986C17.826 19.4967 19.1785 18.802 19.5736 16.7925C19.5853 16.733 19.5955 16.6752 19.6043 16.6187C19.7216 15.8759 19.6035 15.3703 19.1977 14.9126" fill="#003087"/>
<path fill-rule="evenodd" clip-rule="evenodd" d="M39.5418 16.7231H41.6109L41.6112 16.7228C42.3035 16.7228 42.825 16.904 43.1192 17.2463C43.3868 17.5577 43.4757 18.0025 43.3831 18.5683C43.1777 19.8628 42.3912 20.5155 41.028 20.5155H40.3734C40.232 20.5155 40.1114 20.6177 40.0895 20.7559L39.8521 22.2456C39.8366 22.3423 39.7523 22.4136 39.6533 22.4136H38.5916C38.5412 22.4135 38.4934 22.3916 38.4607 22.3537C38.4279 22.3157 38.4136 22.2655 38.4214 22.2163L39.2575 16.9634C39.2797 16.825 39.4003 16.7231 39.5418 16.7231ZM40.6209 19.3771C41.1694 19.3771 41.7366 19.3771 41.8497 18.6417C41.8908 18.3837 41.8579 18.1967 41.7494 18.0707C41.5674 17.8602 41.2148 17.8602 40.8413 17.8602H40.698C40.6132 17.8602 40.5412 17.9212 40.5278 18.0041L40.3088 19.3771H40.6209Z" fill="#009CDE"/>
<path fill-rule="evenodd" clip-rule="evenodd" d="M32.0468 18.6179H33.0376L33.0373 18.6181C33.0878 18.6181 33.1358 18.6399 33.1686 18.6778C33.2015 18.7158 33.2159 18.7661 33.2081 18.8154L32.6724 22.1734C32.6503 22.3121 32.5297 22.4138 32.3883 22.4138H31.4962C31.4457 22.4138 31.3978 22.392 31.365 22.354C31.3322 22.3161 31.3178 22.2658 31.3257 22.2164L31.37 21.9439C31.37 21.9439 30.8808 22.5049 29.9983 22.5049C29.4842 22.5049 29.0528 22.3583 28.7506 22.0062C28.4214 21.6229 28.2869 21.0738 28.3816 20.4988C28.5636 19.3472 29.4986 18.5257 30.5932 18.5257C31.0707 18.5257 31.549 18.629 31.7635 18.9372L31.8329 19.0365L31.8761 18.7624C31.8892 18.6791 31.9617 18.6178 32.0468 18.6179ZM24.7839 16.723H26.853L26.8533 16.7227C27.5456 16.7227 28.0671 16.9039 28.3614 17.2462C28.6289 17.5576 28.7178 18.0024 28.6252 18.5682C28.4198 19.8627 27.6333 20.5157 26.2701 20.5157H25.6155C25.4741 20.5157 25.3535 20.6176 25.3316 20.756L25.1057 22.1731C25.0835 22.3115 24.9632 22.4135 24.8218 22.4135H23.8337C23.7833 22.4135 23.7354 22.3916 23.7027 22.3537C23.6699 22.3157 23.6556 22.2655 23.6635 22.2162L24.4998 16.9633C24.522 16.8249 24.6426 16.723 24.7839 16.723ZM25.8628 19.377C26.4115 19.377 26.9787 19.377 27.0918 18.6416C27.1329 18.3836 27.1001 18.1966 26.9912 18.0706C26.8093 17.8601 26.4566 17.8601 26.0831 17.8601H25.9399C25.855 17.8601 25.783 17.9211 25.7697 18.004L25.5506 19.377H25.8628ZM31.6568 20.5276C31.5608 21.0881 31.1118 21.4645 30.5385 21.4645C30.2512 21.4645 30.021 21.3728 29.8732 21.1995C29.7264 21.0278 29.6715 20.783 29.7179 20.5107C29.807 19.9549 30.2637 19.5666 30.8282 19.5666C31.1096 19.5666 31.3377 19.6591 31.4887 19.834C31.6405 20.0101 31.7003 20.2563 31.6568 20.5276Z" fill="#003087"/>
<path fill-rule="evenodd" clip-rule="evenodd" d="M46.8047 18.6179H47.7955L47.7952 18.6181C47.8457 18.6181 47.8937 18.6399 47.9265 18.6778C47.9593 18.7158 47.9737 18.7661 47.9659 18.8154L47.4303 22.1734C47.4079 22.3121 47.2873 22.4138 47.1459 22.4138H46.2541C46.2036 22.4139 46.1557 22.392 46.123 22.354C46.0903 22.316 46.0761 22.2657 46.0841 22.2164L46.1284 21.9439C46.1284 21.9439 45.6392 22.5049 44.7564 22.5049C44.2423 22.5049 43.811 22.3583 43.5087 22.0062C43.1795 21.6229 43.0448 21.0738 43.1395 20.4988C43.3217 19.3472 44.2567 18.5257 45.351 18.5257C45.8286 18.5257 46.3069 18.629 46.5214 18.9372L46.5907 19.0365L46.6339 18.7624C46.6471 18.6791 46.7196 18.6178 46.8047 18.6179ZM45.2964 21.4645C45.8696 21.4645 46.3186 21.0881 46.4147 20.5276C46.4581 20.2563 46.3984 20.0101 46.2466 19.834C46.0956 19.6591 45.8675 19.5666 45.5861 19.5666C45.0213 19.5666 44.5649 19.9549 44.4758 20.5107C44.4293 20.783 44.4843 21.0278 44.631 21.1995C44.7788 21.3728 45.009 21.4645 45.2964 21.4645Z" fill="#009CDE"/>
<path d="M38.3147 18.6181H37.3186C37.2233 18.6181 37.1345 18.6648 37.0811 18.743L35.7072 20.7462L35.1249 18.8212C35.0884 18.7006 34.9764 18.618 34.8493 18.6178H33.8705C33.8148 18.6178 33.7626 18.6444 33.7302 18.6893C33.6978 18.7341 33.6893 18.7917 33.7073 18.8439L34.8037 22.0309L33.7723 23.4718C33.7352 23.5239 33.7305 23.5922 33.7601 23.6489C33.7897 23.7055 33.8488 23.7411 33.9132 23.7412H34.9083C35.0022 23.7412 35.0905 23.6955 35.1444 23.6189L38.4561 18.8861C38.4927 18.834 38.4971 18.766 38.4674 18.7097C38.4377 18.6534 38.3788 18.6181 38.3147 18.6181Z" fill="#003087"/>
<path d="M48.9632 16.8673L48.1138 22.2163C48.106 22.2656 48.1204 22.3158 48.1531 22.3538C48.1859 22.3917 48.2338 22.4136 48.2842 22.4136H49.1382C49.2796 22.4136 49.4001 22.3116 49.4223 22.1732L50.2597 16.9201C50.2676 16.8708 50.2532 16.8205 50.2204 16.7825C50.1876 16.7445 50.1397 16.7227 50.0892 16.7228H49.1336C49.0486 16.7226 48.9762 16.7838 48.9632 16.867" fill="#009CDE"/>
<path d="M19.1974 14.9123C18.7509 14.4084 17.9436 14.1923 16.9109 14.1923H13.9137C13.7025 14.1922 13.5227 14.3442 13.4896 14.5507L12.2421 22.3879C12.2304 22.4615 12.2519 22.5364 12.3008 22.593C12.3497 22.6496 12.4212 22.6822 12.4964 22.6821H14.3467L14.8114 19.7637L14.797 19.8551C14.8295 19.649 15.0086 19.4969 15.2193 19.4967H16.0986C17.826 19.4967 19.1785 18.802 19.5736 16.7925C19.5853 16.733 19.5955 16.6752 19.6043 16.6187C19.7216 15.8759 19.6035 15.3703 19.1977 14.9126" fill="#003087"/>
<path d="M15.3106 16.6282C15.3396 16.4478 15.4966 16.3149 15.6812 16.3147H18.0309C18.3092 16.3147 18.5687 16.3326 18.8059 16.3701C18.9355 16.3908 19.0638 16.4192 19.19 16.4552C19.3334 16.4951 19.472 16.5498 19.6038 16.6184C19.7217 15.8754 19.6033 15.3701 19.1975 14.9121C18.7507 14.4084 17.9437 14.1923 16.911 14.1923H13.9135C13.7025 14.1925 13.523 14.3445 13.4899 14.5508L12.2419 22.3871C12.2302 22.4607 12.2515 22.5357 12.3004 22.5924C12.3492 22.649 12.4207 22.6816 12.4959 22.6816H14.3465L14.8112 19.763L15.3106 16.6282Z" fill="#003087"/>
<path d="M19.6041 16.6183C19.5949 16.6764 19.5847 16.7343 19.5734 16.7921C19.1783 18.8014 17.8258 19.4963 16.0984 19.4963H15.2189C15.0082 19.4965 14.8291 19.6486 14.7968 19.8547L14.3465 22.6815L14.2185 23.4834C14.2082 23.5478 14.2269 23.6135 14.2697 23.6631C14.3125 23.7127 14.3751 23.7412 14.441 23.7412H16.0008C16.1854 23.7412 16.3422 23.6081 16.3713 23.4277L16.3865 23.349L16.6805 21.5043L16.6992 21.4023C16.7281 21.2217 16.8853 21.0887 17.07 21.0888H17.3034C18.8144 21.0888 19.9976 20.4813 20.3433 18.7232C20.4874 17.9889 20.4127 17.3753 20.0312 16.9445C19.91 16.8109 19.7653 16.7004 19.6041 16.6183Z" fill="#009CDE"/>
<path d="M19.1904 16.4551C19.1301 16.4374 19.0679 16.4215 19.0039 16.4075C18.9399 16.3935 18.8737 16.3811 18.8059 16.3706C18.5685 16.3323 18.3092 16.3143 18.0307 16.3143H15.6812C15.4964 16.3141 15.3391 16.4473 15.3107 16.6281L14.8113 19.7634L14.7969 19.8545C14.8291 19.6484 15.0082 19.4962 15.2189 19.4961H16.0985C17.8258 19.4961 19.1783 18.8014 19.5734 16.7918C19.5852 16.7324 19.595 16.6748 19.6041 16.618C19.4998 16.564 19.3911 16.5186 19.2792 16.4823C19.2501 16.4728 19.2205 16.4638 19.1904 16.4548" fill="#012169"/>
<defs>
<filter id="filter0_d" x="0" y="0" width="62" height="42" filterUnits="userSpaceOnUse" color-interpolation-filters="sRGB">
<feFlood flood-opacity="0" result="BackgroundImageFix"/>
<feColorMatrix in="SourceAlpha" type="matrix" values="0 0 0 0 0 0 0 0 0 0 0 0 0 0 0 0 0 0 127 0"/>
<feOffset dy="2"/>
<feGaussianBlur stdDeviation="2"/>
<feColorMatrix type="matrix" values="0 0 0 0 0 0 0 0 0 0 0 0 0 0 0 0 0 0 0.178185 0"/>
<feBlend mode="normal" in2="BackgroundImageFix" result="effect1_dropShadow"/>
<feBlend mode="normal" in="SourceGraphic" in2="effect1_dropShadow" result="shape"/>
</filter>
</defs>
</svg>
