<svg width="41" height="11" viewBox="0 0 41 11" fill="none" xmlns="http://www.w3.org/2000/svg">
<path d="M8.19744 1.91234C7.75086 1.40837 6.94361 1.19231 5.91093 1.19231H2.91374C2.70255 1.1922 2.52265 1.34421 2.48958 1.55074L1.24215 9.38788C1.23044 9.46146 1.25186 9.53642 1.30077 9.59303C1.34967 9.64963 1.42115 9.68219 1.49638 9.68213H3.34672L3.81143 6.7637L3.79703 6.85509C3.82947 6.64897 4.00863 6.49691 4.21933 6.49666H5.09861C6.82596 6.49666 8.1785 5.80199 8.57359 3.79245C8.58533 3.73302 8.59546 3.67518 8.60427 3.61865C8.72165 2.8759 8.60347 2.37035 8.19771 1.9126" fill="#003087"/>
<path fill-rule="evenodd" clip-rule="evenodd" d="M28.5418 3.72305H30.6109L30.6112 3.72279C31.3035 3.72279 31.825 3.90399 32.1192 4.24631C32.3868 4.55772 32.4757 5.00252 32.3831 5.5683C32.1777 6.86282 31.3912 7.5155 30.028 7.5155H29.3734C29.232 7.5155 29.1114 7.61772 29.0895 7.75586L28.8521 9.24558C28.8366 9.34226 28.7523 9.41357 28.6533 9.41357H27.5916C27.5412 9.41348 27.4934 9.3916 27.4607 9.35367C27.4279 9.31574 27.4136 9.26555 27.4214 9.21627L28.2575 3.96342C28.2797 3.825 28.4003 3.72312 28.5418 3.72305ZM29.6209 6.37708C30.1694 6.37708 30.7366 6.37708 30.8497 5.64173C30.8908 5.38367 30.8579 5.19666 30.7494 5.07067C30.5674 4.86015 30.2148 4.86015 29.8413 4.86015H29.698C29.6132 4.86015 29.5412 4.92117 29.5278 5.00411L29.3088 6.37708H29.6209Z" fill="#009CDE"/>
<path fill-rule="evenodd" clip-rule="evenodd" d="M21.0468 5.61788L22.0376 5.61788L22.0373 5.61814C22.0878 5.61808 22.1358 5.6399 22.1686 5.67785C22.2015 5.7158 22.2159 5.76608 22.2081 5.81545L21.6724 9.17339C21.6503 9.31206 21.5297 9.41376 21.3883 9.41376H20.4962C20.4457 9.41383 20.3978 9.392 20.365 9.35404C20.3322 9.31608 20.3178 9.26579 20.3257 9.21645L20.37 8.94386C20.37 8.94386 19.8808 9.50488 18.9983 9.50488C18.4842 9.50488 18.0528 9.35829 17.7506 9.0062C17.4214 8.62294 17.2869 8.0738 17.3816 7.49878C17.5636 6.34715 18.4986 5.52569 19.5932 5.52569C20.0707 5.52569 20.549 5.62897 20.7635 5.93721L20.8329 6.03653L20.8761 5.76236C20.8892 5.67911 20.9617 5.61777 21.0468 5.61788ZM13.7839 3.72297H15.853L15.8533 3.72271C16.5456 3.72271 17.0671 3.9039 17.3614 4.24622C17.6289 4.55764 17.7178 5.00244 17.6252 5.56822C17.4198 6.86274 16.6333 7.51568 15.2701 7.51568H14.6155C14.4741 7.51568 14.3535 7.61764 14.3316 7.75605L14.1057 9.17313C14.0835 9.31154 13.9632 9.41349 13.8218 9.41349H12.8337C12.7833 9.41349 12.7354 9.39163 12.7027 9.35368C12.6699 9.31572 12.6556 9.26548 12.6635 9.21618L13.4998 3.96334C13.522 3.82493 13.6426 3.72297 13.7839 3.72297ZM14.8628 6.377C15.4115 6.377 15.9787 6.377 16.0918 5.64165C16.1329 5.38359 16.1001 5.19658 15.9912 5.07059C15.8093 4.86007 15.4566 4.86007 15.0831 4.86007H14.9399C14.855 4.86007 14.783 4.92109 14.7697 5.00403L14.5506 6.377H14.8628ZM20.6568 7.52757C20.5608 8.08806 20.1118 8.46446 19.5385 8.46446C19.2512 8.46446 19.021 8.3728 18.8732 8.19953C18.7264 8.02784 18.6715 7.78299 18.7179 7.51067C18.807 6.95493 19.2637 6.56665 19.8282 6.56665C20.1096 6.56665 20.3377 6.65909 20.4887 6.83395C20.6405 7.01013 20.7003 7.2563 20.6568 7.52757Z" fill="#003087"/>
<path fill-rule="evenodd" clip-rule="evenodd" d="M35.8047 5.61788H36.7955L36.7952 5.61814C36.8457 5.61808 36.8937 5.6399 36.9265 5.67785C36.9593 5.7158 36.9737 5.76608 36.9659 5.81545L36.4303 9.17339C36.4079 9.31206 36.2873 9.41376 36.1459 9.41376H35.2541C35.2036 9.41386 35.1557 9.39202 35.123 9.35403C35.0903 9.31604 35.0761 9.26573 35.0841 9.21645L35.1284 8.94386C35.1284 8.94386 34.6392 9.50488 33.7564 9.50488C33.2423 9.50488 32.811 9.35829 32.5087 9.0062C32.1795 8.62294 32.0448 8.0738 32.1395 7.49878C32.3217 6.34715 33.2567 5.52569 34.351 5.52569C34.8286 5.52569 35.3069 5.62897 35.5214 5.93721L35.5907 6.03653L35.6339 5.76236C35.6471 5.67911 35.7196 5.61777 35.8047 5.61788ZM34.2964 8.46446C34.8696 8.46446 35.3186 8.08806 35.4147 7.52757C35.4581 7.2563 35.3984 7.01013 35.2466 6.83395C35.0956 6.65909 34.8675 6.56665 34.5861 6.56665C34.0213 6.56665 33.5649 6.95493 33.4758 7.51067C33.4293 7.78299 33.4843 8.02784 33.631 8.19953C33.7788 8.3728 34.009 8.46446 34.2964 8.46446Z" fill="#009CDE"/>
<path d="M27.3147 5.61805L26.3186 5.61805C26.2233 5.61805 26.1345 5.6648 26.0811 5.74299L24.7072 7.74619L24.1249 5.82117C24.0884 5.70061 23.9764 5.61797 23.8493 5.61779H22.8705C22.8148 5.61782 22.7626 5.64444 22.7302 5.68929C22.6978 5.73414 22.6893 5.79171 22.7073 5.84389L23.8037 9.03094L22.7723 10.4718C22.7352 10.5239 22.7305 10.5922 22.7601 10.6489C22.7897 10.7055 22.8488 10.7411 22.9132 10.7412H23.9083C24.0022 10.7412 24.0905 10.6955 24.1444 10.6189L27.4561 5.88615C27.4927 5.834 27.4971 5.76602 27.4674 5.7097C27.4377 5.65339 27.3788 5.61808 27.3147 5.61805Z" fill="#003087"/>
<path d="M37.9632 3.86727L37.1138 9.21627C37.106 9.26559 37.1204 9.31583 37.1531 9.35377C37.1859 9.39171 37.2338 9.41356 37.2842 9.41357H38.1382C38.2796 9.41357 38.4001 9.31162 38.4223 9.17321L39.2597 3.9201C39.2676 3.87076 39.2532 3.82047 39.2204 3.7825C39.1876 3.74454 39.1397 3.72272 39.0892 3.72279H38.1336C38.0486 3.72258 37.9762 3.78385 37.9632 3.86701" fill="#009CDE"/>
<path d="M8.19744 1.91234C7.75086 1.40837 6.94361 1.19231 5.91093 1.19231H2.91374C2.70255 1.1922 2.52265 1.34421 2.48958 1.55074L1.24215 9.38788C1.23044 9.46146 1.25186 9.53642 1.30077 9.59303C1.34967 9.64963 1.42115 9.68219 1.49638 9.68213H3.34672L3.81143 6.7637L3.79703 6.85509C3.82947 6.64897 4.00863 6.49691 4.21933 6.49666H5.09861C6.82596 6.49666 8.1785 5.80199 8.57359 3.79245C8.58533 3.73302 8.59546 3.67518 8.60427 3.61865C8.72165 2.8759 8.60347 2.37035 8.19771 1.9126" fill="#003087"/>
<path d="M4.31063 3.6282C4.33959 3.44776 4.49665 3.31487 4.68118 3.31467L7.03091 3.31467C7.30915 3.31467 7.56872 3.33263 7.80588 3.37014C7.93555 3.39079 8.06383 3.4192 8.19003 3.45519C8.33335 3.49509 8.47204 3.5498 8.6038 3.61843C8.72171 2.87542 8.60326 2.37013 8.1975 1.91212C7.75066 1.40841 6.94367 1.19235 5.911 1.19235H2.91354C2.70255 1.1925 2.52295 1.34445 2.48991 1.55078L1.24195 9.38713C1.23016 9.4607 1.25151 9.5357 1.30036 9.59235C1.34922 9.649 1.42068 9.68163 1.49591 9.68164H3.34651L3.81123 6.76295L4.31063 3.6282Z" fill="#003087"/>
<path d="M8.60407 3.61829C8.59492 3.6764 8.58469 3.73434 8.57339 3.79209C8.1783 5.80136 6.82577 6.4963 5.09842 6.4963H4.21887C4.00819 6.49645 3.82905 6.64859 3.79683 6.85473L3.34652 9.6815L3.21847 10.4834C3.20817 10.5478 3.22688 10.6135 3.26968 10.6631C3.31248 10.7127 3.37507 10.7412 3.44096 10.7412H5.00078C5.18538 10.7412 5.34225 10.6081 5.37132 10.4277L5.38653 10.349L5.68051 8.50425L5.69919 8.4023C5.72806 8.2217 5.88533 8.08873 6.07 8.08877H6.30343C7.81443 8.08877 8.99756 7.48126 9.3433 5.72318C9.48736 4.98888 9.41266 4.3753 9.03118 3.94449C8.91004 3.81093 8.7653 3.70038 8.60407 3.61829Z" fill="#009CDE"/>
<path d="M8.19035 3.45508C8.13006 3.43738 8.0679 3.42153 8.00388 3.40753C7.93985 3.39353 7.87369 3.38112 7.80593 3.37055C7.5685 3.33225 7.3092 3.31429 7.03069 3.31429L4.68123 3.31429C4.49644 3.31407 4.33911 3.44731 4.31068 3.62809L3.81128 6.76337L3.79688 6.85449C3.82909 6.64835 4.00823 6.49621 4.21891 6.49606H5.09846C6.82581 6.49606 8.17835 5.80139 8.57344 3.79185C8.58517 3.73242 8.59504 3.67484 8.60411 3.61805C8.49977 3.56399 8.39109 3.51858 8.27919 3.48228C8.25011 3.47277 8.2205 3.46379 8.19035 3.45481" fill="#012169"/>
</svg>
