<svg width="30" height="30" viewBox="0 0 30 30" fill="none" xmlns="http://www.w3.org/2000/svg">
<path fill-rule="evenodd" clip-rule="evenodd" d="M30 2.72727C30 1.22104 28.779 0 27.2727 0H2.72727C1.22104 0 0 1.22104 0 2.72727V27.2727C0 28.779 1.22104 30 2.72727 30H27.2727C28.779 30 30 28.779 30 27.2727V2.72727ZM9.08648 6.86255L9.63853 6.38488C10.6602 5.50717 11.4642 6.25352 12.2024 7.38997L12.646 8.07993C13.3809 9.21903 13.7654 10.3256 12.7464 11.2047L12.1314 11.7354C12.0832 11.7765 12.0179 11.8197 11.9439 11.8688C11.3305 12.2754 10.1155 13.0809 12.9856 16.3468C15.852 19.6121 16.825 18.5408 17.3197 17.9963C17.3802 17.9296 17.4336 17.8709 17.4824 17.8289L18.094 17.2989C19.1184 16.4218 20.1709 16.9539 21.208 17.8323L21.8317 18.3637C22.8695 19.244 23.5026 20.137 22.4836 21.014L21.9295 21.4924C21.5423 21.8884 20.3042 22.9778 18.2541 22.9997C15.7874 23.0262 13.1833 21.5023 10.5235 18.4685C7.86047 15.436 6.6981 12.6721 7.06657 10.2586C7.37274 8.24711 8.63494 7.18829 9.08648 6.86255Z" fill="#F00D22"/>
</svg>
