<svg width="40" height="17" viewBox="0 0 40 17" fill="none" xmlns="http://www.w3.org/2000/svg">
<path d="M16.3971 16.4043C16.3227 16.1969 16.188 16.0555 16.0904 15.8716C15.8534 15.5558 15.5746 15.2824 15.2958 15.009C15.1982 14.976 15.1564 14.8817 15.0634 14.844C15.003 14.7638 14.9054 14.7214 14.8264 14.6601C14.6684 14.5376 14.4965 14.4339 14.3199 14.3301C13.9854 14.1133 13.5718 13.9766 13.1629 13.8352C12.7214 13.7268 12.2567 13.6466 11.7734 13.5806C11.2948 13.5099 10.8162 13.4439 10.4537 13.2506C10.2446 13.1894 10.0913 13.0715 9.91006 12.9772C9.74277 12.8641 9.56155 12.7698 9.42214 12.6284C9.25021 12.5247 9.14333 12.3503 9.00857 12.2088C8.9621 12.1146 8.8831 12.058 8.84593 11.9543C8.79946 11.9354 8.78552 11.8789 8.75764 11.8459C8.72511 11.8081 8.72511 11.7327 8.66935 11.7186C8.64147 11.9119 8.65076 12.1428 8.66935 12.3408C8.69258 12.4257 8.70188 12.5294 8.72511 12.6142C8.73905 12.6897 8.80875 12.8122 8.78087 12.8688C7.33105 12.7934 6.27157 12.3267 5.35149 11.7139C4.8961 11.4075 4.50576 11.0351 4.14331 10.6344C3.98531 10.4128 3.81338 10.2007 3.67397 9.95554C3.52992 9.71512 3.4091 9.44171 3.27899 9.18715C3.06524 8.63561 2.86542 8.06993 2.79107 7.37697C2.69349 6.73115 2.71672 5.9062 2.86077 5.30752C2.91189 4.97754 3.01877 4.69941 3.11171 4.41185C3.17211 4.27986 3.23717 4.14787 3.29293 4.01116C3.37193 3.89802 3.41375 3.74246 3.51133 3.64347C3.77621 3.13907 4.17119 2.76195 4.57547 2.39897C5.01227 2.0737 5.50948 1.80971 6.10893 1.64944C6.68514 1.51744 7.47046 1.49387 8.09314 1.63058C9.35708 1.89457 10.3097 2.46968 11.1089 3.20506C11.9175 3.92631 12.5402 4.84083 12.9677 5.95334C13.4091 7.00928 13.5625 8.65447 13.1675 9.85183C13.0049 9.75755 12.8422 9.66798 12.6796 9.57842C12.4844 9.52185 12.2939 9.45585 12.0662 9.43228C11.792 9.42757 11.5225 9.43228 11.3459 9.52185C11.7037 9.48414 11.9919 9.58313 12.2149 9.66798C12.345 9.71984 12.4194 9.75284 12.5216 9.81412C12.7214 9.93197 12.898 10.0404 13.0467 10.2007C13.4696 10.5778 13.7716 11.0775 13.9157 11.7374C13.9157 11.7563 13.9389 11.7516 13.9342 11.7186C13.9528 11.7139 13.9621 11.6997 13.9714 11.6809C13.9946 11.6526 14.0225 11.6243 14.0458 11.5913C14.0922 11.5347 14.1387 11.4782 14.1712 11.4075C14.2688 11.2896 14.3478 11.1576 14.4222 11.0209C14.5941 10.7664 14.7242 10.4741 14.8729 10.196C15.1285 9.60199 15.3376 8.96088 15.4677 8.23492C15.7279 6.62273 15.4166 5.09539 14.8729 3.96873C14.3153 2.83266 13.5346 1.92285 12.5262 1.23932C11.5086 0.560499 10.319 0.0608131 8.68329 0.013673C8.674 -0.0193252 8.66005 0.018387 8.62753 0.013673C7.76321 -0.0146112 7.06618 0.107953 6.3738 0.287086C6.05317 0.395508 5.71859 0.489789 5.43513 0.635924C5.10985 0.744346 4.84963 0.923479 4.55223 1.05547C4.44535 1.15918 4.28271 1.21103 4.17119 1.31003C4.02714 1.38074 3.92026 1.49387 3.77621 1.56459C3.54386 1.772 3.29758 1.95585 3.06988 2.16798C2.84683 2.3754 2.65167 2.6111 2.43791 2.82794C2.40538 2.90337 2.34962 2.95522 2.29386 3.01179C2.25668 3.0825 2.21021 3.14378 2.14981 3.19564C2.12657 3.28049 2.05222 3.31349 2.02434 3.39834C1.96393 3.44548 1.94999 3.53976 1.88029 3.58219C1.81988 3.73303 1.713 3.84146 1.6433 3.98288C1.55965 4.11958 1.4946 4.27043 1.41096 4.40242C1.28084 4.70884 1.14144 5.00582 1.03456 5.3358C0.923035 5.65635 0.830098 5.99576 0.765042 6.36346C0.695339 6.70758 0.630283 7.15541 0.639576 7.51839C0.593108 7.65038 0.630283 7.89551 0.639576 8.05108C0.639576 8.07936 0.620989 8.08879 0.620989 8.10764C0.620989 8.28206 0.667458 8.49419 0.676751 8.60262C0.713926 9.00331 0.783629 9.37572 0.895154 9.70098C0.964857 10.064 1.11356 10.3468 1.22043 10.6721C1.38307 10.9455 1.4946 11.2708 1.68977 11.5159C1.83382 11.8034 2.03828 12.0297 2.23345 12.2654C2.44256 12.4917 2.65167 12.7227 2.9026 12.9065C3.36264 13.3119 3.90167 13.6372 4.49182 13.9153C5.59313 14.4574 7.23812 14.811 8.71582 14.7214C9.09221 14.6696 9.47325 14.6224 9.81712 14.5376C10.1331 14.4197 10.5002 14.349 10.8813 14.3019C11.7502 14.2453 12.503 14.3254 13.1722 14.5234C13.8506 14.7073 14.4361 14.9854 14.9426 15.3484C15.2121 15.5087 15.4352 15.7161 15.6629 15.9141C15.8952 16.1168 16.0811 16.3666 16.2948 16.5929C16.3227 16.6777 16.3785 16.739 16.4203 16.8144C16.4761 16.8757 16.4482 17.0171 16.5829 16.9983C16.6666 16.9134 16.569 16.7909 16.5644 16.6872C16.4807 16.5976 16.4621 16.4797 16.3971 16.4043Z" fill="#FCB316"/>
<path fill-rule="evenodd" clip-rule="evenodd" d="M13.2062 11.0327C13.2122 11.0258 13.2182 11.019 13.2291 11.019C13.2658 10.9814 13.3026 11.0062 13.3485 11.0371C13.3648 11.0481 13.3822 11.0599 13.4013 11.0699C13.5055 11.2292 13.5689 11.4457 13.6142 11.6878C13.6144 11.6957 13.6146 11.7036 13.6148 11.7115C13.6193 11.9013 13.6238 12.0909 13.5281 12.1337C13.3742 12.049 13.3167 11.8324 13.2588 11.6146C13.2383 11.5374 13.2177 11.4601 13.1928 11.3884C13.1747 11.2929 13.1611 11.14 13.1928 11.0444C13.1983 11.0419 13.2023 11.0373 13.2062 11.0327ZM11.9785 11.7133C11.983 11.6878 11.9966 11.7005 11.9966 11.7133C12.3093 11.7642 12.4497 12.0636 12.4724 12.5286C12.4452 12.7897 12.341 12.9426 12.1733 12.9999C11.752 13.0063 11.5118 12.4649 11.6613 11.9107C11.6777 11.8925 11.6931 11.873 11.7085 11.8534C11.7739 11.7703 11.8391 11.6875 11.9785 11.7133Z" fill="#FCB316"/>
<path fill-rule="evenodd" clip-rule="evenodd" d="M21.6771 10.82C21.7485 11.1091 21.9011 11.3157 22.0727 11.5084C22.2443 11.7012 22.4444 11.8618 22.6875 11.9811C22.9163 12.1188 23.1642 12.2336 23.4502 12.3116C23.4748 12.3198 23.4993 12.3282 23.5239 12.3367L23.5239 12.3367C23.6372 12.3759 23.7524 12.4158 23.8934 12.4309C23.915 12.4425 23.9374 12.4531 23.9596 12.4636C24.06 12.5112 24.1573 12.5572 24.1651 12.6925C24.1603 12.8899 24.0221 12.9633 23.8458 13C23.7796 12.9862 23.7075 12.9783 23.6353 12.9703C23.515 12.957 23.3947 12.9438 23.3024 12.9036C22.9773 12.8675 22.7069 12.7753 22.4338 12.6821C22.3946 12.6687 22.3553 12.6553 22.3158 12.642C21.7152 12.4171 21.2099 12.0913 20.7905 11.692C20.7441 11.6175 20.6878 11.551 20.6317 11.4846C20.5841 11.4283 20.5365 11.3721 20.495 11.3111C20.4521 11.248 20.4156 11.1788 20.3789 11.1092C20.3382 11.0319 20.2973 10.9543 20.2471 10.8842C19.5131 10.7925 19.0126 10.4712 18.5741 10.0994C18.169 9.65426 17.8449 9.12188 17.7114 8.41509C17.5541 7.73585 17.6018 6.88679 17.7877 6.23049C18.1928 4.9592 19.0412 4.11474 20.6427 4C21.086 4.01377 21.4721 4.06425 21.8248 4.19276C22.1823 4.31668 22.5207 4.54615 22.7876 4.7848L22.7987 4.79321C22.8149 4.80528 22.8234 4.8117 22.8353 4.8307C22.8639 4.86971 22.9127 4.91675 22.964 4.96609C23.0152 5.01543 23.0688 5.06706 23.107 5.11525C23.1143 5.12461 23.1166 5.13754 23.119 5.15102C23.1214 5.16398 23.1238 5.17743 23.1308 5.18868C23.1461 5.21081 23.1656 5.22635 23.1847 5.24166C23.2013 5.25492 23.2176 5.26801 23.2309 5.28506C23.2379 5.29628 23.2403 5.30859 23.2427 5.3204C23.2451 5.33274 23.2474 5.34452 23.2547 5.3539C23.2738 5.38144 23.2976 5.42274 23.3262 5.47323C23.3311 5.48264 23.3423 5.49084 23.3526 5.49846C23.3624 5.5057 23.3716 5.51241 23.3739 5.51912C23.3986 5.56398 23.4153 5.61491 23.4324 5.66667C23.445 5.70494 23.4578 5.74366 23.474 5.78072C23.4911 5.82203 23.5112 5.86055 23.5311 5.8988C23.5554 5.94553 23.5796 5.99184 23.5979 6.04233C23.6932 6.31311 23.7552 6.63437 23.7933 6.96481C23.8887 7.91943 23.6932 8.77308 23.3262 9.40643C23.1546 9.73687 22.9163 10.0076 22.6351 10.2371C22.3959 10.4803 22.0743 10.6322 21.7507 10.7851L21.6771 10.82ZM20.495 4.84447C20.3536 4.85354 20.2495 4.8985 20.1445 4.94387C20.0901 4.96734 20.0356 4.99091 19.9754 5.00969C19.9386 5.04223 19.8987 5.07238 19.8588 5.10261L19.8588 5.10261L19.8588 5.10262L19.8588 5.10262C19.7748 5.16619 19.6904 5.23009 19.6323 5.31719C19.5501 5.36203 19.5025 5.43871 19.4552 5.51499C19.4202 5.57143 19.3854 5.62764 19.3368 5.67058C19.2414 5.90005 19.1509 6.15706 19.0889 6.45538C19.0317 6.74911 18.9936 7.07955 18.9888 7.40541C18.984 8.22234 19.1652 9.03468 19.5036 9.51657C19.7038 9.75064 19.9469 9.9434 20.2424 10.0857C20.3187 10.0918 20.3876 10.1061 20.4568 10.1205C20.5431 10.1385 20.6302 10.1566 20.7333 10.1591C20.7752 10.1444 20.8277 10.1415 20.88 10.1386C20.9585 10.1341 21.0364 10.1298 21.0765 10.0857C21.1598 10.0907 21.2075 10.0642 21.2554 10.0377C21.2953 10.0156 21.3352 9.99346 21.3958 9.98929C21.4673 9.92045 21.5436 9.86538 21.6437 9.82407C21.6669 9.79935 21.6898 9.77462 21.7127 9.74997L21.7128 9.74986C21.779 9.67847 21.8445 9.60773 21.9154 9.53952C21.9313 9.51655 21.9451 9.49052 21.959 9.46415C21.9869 9.41148 22.0155 9.35746 22.0631 9.32381C22.4921 8.53442 22.5398 7.08873 22.2586 6.17083C22.1537 5.8358 22.0059 5.56502 21.8391 5.34013C21.658 5.16114 21.4435 5.00969 21.2004 4.89036L21.1348 4.87622C20.9624 4.83865 20.7902 4.80115 20.5617 4.82152C20.5474 4.82152 20.5331 4.82611 20.5379 4.84447H20.495ZM26.1437 4.17787C25.991 4.18099 25.8385 4.1841 25.6951 4.17899C25.657 4.19276 25.6332 4.21571 25.6236 4.25242C25.5807 6.359 25.5807 8.62621 25.6236 10.7282C25.741 10.7882 25.9035 10.7831 26.0786 10.7775H26.0786L26.0786 10.7775C26.1311 10.7758 26.1847 10.7741 26.2385 10.7741C26.2899 10.7741 26.3428 10.7751 26.3959 10.7761L26.396 10.7761C26.5697 10.7794 26.7458 10.7828 26.8772 10.7511C26.9338 10.6694 26.93 10.5775 26.9262 10.4867C26.9249 10.4552 26.9236 10.4239 26.9249 10.3932C26.928 10.3014 26.927 10.2055 26.9259 10.1096C26.9254 10.0617 26.9249 10.0138 26.9249 9.96634C26.9249 9.37632 26.928 8.77618 26.9312 8.17397V8.17394V8.17391C26.9376 6.96332 26.944 5.74444 26.9249 4.58287C26.9249 4.55544 26.9262 4.5276 26.9275 4.49965V4.49964V4.49963C26.9323 4.39662 26.9372 4.29218 26.8772 4.20194C26.6614 4.16731 26.4023 4.1726 26.1437 4.17787ZM28.6503 4.17899H29.8085C29.9124 4.31543 29.9461 4.51946 29.9792 4.71964L29.9801 4.72514C30.3281 6.00102 30.6713 7.28149 30.9906 8.5895C31.0423 8.59571 31.048 8.5577 31.0537 8.51969C31.0564 8.50159 31.0592 8.48349 31.0669 8.47017C31.0835 8.4541 31.0871 8.42657 31.0907 8.39903C31.0943 8.37149 31.0978 8.34396 31.1145 8.32789C31.1206 8.28323 31.136 8.24761 31.1514 8.21199C31.1725 8.16341 31.1935 8.11484 31.1908 8.04334C31.2355 7.9596 31.2647 7.85964 31.2939 7.75973C31.3207 7.66799 31.3474 7.57628 31.3862 7.4972C31.4505 7.24945 31.5286 7.01309 31.6066 6.77713C31.65 6.6459 31.6933 6.5148 31.7342 6.38195C31.7764 6.23336 31.8243 6.09023 31.8722 5.9473L31.8722 5.94729C31.9485 5.71938 32.0246 5.49197 32.0773 5.24375C32.1488 5.10016 32.1961 4.93339 32.2435 4.76662C32.3036 4.55495 32.3636 4.34328 32.473 4.17899H32.9639C33.0628 4.35921 33.1273 4.57265 33.1917 4.7861C33.2421 4.95313 33.2925 5.12017 33.3595 5.27129C33.4129 5.4769 33.4771 5.67207 33.5413 5.86723C33.5975 6.038 33.6537 6.20877 33.7027 6.38654C33.7567 6.55075 33.8112 6.71452 33.8657 6.87828C34.0564 7.45139 34.2471 8.02449 34.4176 8.61703C34.4758 8.53443 34.5001 8.41933 34.5243 8.30499C34.5418 8.22239 34.5592 8.14018 34.5892 8.07088L34.6074 7.99007C34.6436 7.82822 34.6798 7.66636 34.737 7.52473C34.7721 7.38616 34.8069 7.24743 34.8416 7.1088L34.8416 7.10878C34.9956 6.49445 35.1491 5.88212 35.328 5.29424L35.3353 5.26059L35.3353 5.26058C35.4139 4.89497 35.4941 4.52254 35.6235 4.20194C35.9095 4.16063 36.348 4.16063 36.634 4.20194C36.6541 4.43808 36.5623 4.69055 36.4816 4.91252L36.4816 4.91259C36.4666 4.95375 36.452 4.99387 36.4386 5.03264C36.4122 5.20038 36.3653 5.34701 36.3183 5.49435L36.3182 5.49438C36.2803 5.6131 36.2422 5.73228 36.2146 5.86334C36.1313 6.11701 36.0575 6.37786 35.9838 6.63862L35.9838 6.63864C35.9015 6.92983 35.8192 7.22092 35.7236 7.50178C35.6517 7.79783 35.5669 8.08145 35.482 8.36557L35.482 8.36559C35.4036 8.62765 35.3251 8.89013 35.2565 9.16318C35.1968 9.32704 35.1483 9.5017 35.0993 9.67814L35.0993 9.6782L35.0993 9.67822C35.0701 9.78345 35.0407 9.8893 35.0087 9.99388C34.9743 10.0867 34.9479 10.1873 34.9216 10.2879C34.875 10.4658 34.8284 10.6438 34.737 10.7787H34.0459C33.9496 10.6158 33.8874 10.4215 33.8252 10.2271C33.7734 10.0654 33.7217 9.9036 33.6503 9.75982C33.4972 9.29316 33.3366 8.83472 33.176 8.37636C32.9765 7.80691 32.777 7.23757 32.5921 6.65273C32.5253 6.71971 32.4975 6.82734 32.4699 6.93456C32.4501 7.01102 32.4304 7.08726 32.3967 7.14839C32.3443 7.32738 32.2918 7.50637 32.2251 7.6716C32.183 7.83188 32.1315 7.9814 32.0802 8.13047L32.0802 8.13048C32.0155 8.31861 31.951 8.50601 31.9058 8.71341C31.7829 9.00306 31.6901 9.32173 31.5974 9.64039L31.5626 9.75982C31.5019 9.89224 31.4575 10.0404 31.4131 10.1888C31.3528 10.3901 31.2923 10.5919 31.1908 10.7557C31.0769 10.7904 30.9217 10.7851 30.7664 10.7798C30.6746 10.7767 30.5829 10.7736 30.4997 10.7787C30.3896 10.658 30.3423 10.475 30.2948 10.2914C30.2683 10.1888 30.2417 10.086 30.2041 9.99388C30.1764 9.90278 30.1515 9.80846 30.1265 9.71385C30.0784 9.53202 30.03 9.34915 29.9611 9.18613C29.8938 8.89465 29.8096 8.62066 29.7255 8.34712L29.7255 8.34708C29.6427 8.07794 29.5601 7.80924 29.494 7.52473C29.3639 7.13228 29.2469 6.72735 29.1294 6.32098L29.1294 6.32092L29.1293 6.32068C29.0875 6.1759 29.0456 6.03093 29.003 5.88628C28.9567 5.75243 28.9166 5.61378 28.8763 5.47462L28.8763 5.47457C28.8379 5.34177 28.7994 5.20851 28.7552 5.07853C28.7395 4.97482 28.703 4.87477 28.6663 4.77438L28.6663 4.77437C28.6024 4.59932 28.5381 4.42322 28.5836 4.22489C28.5931 4.20194 28.6217 4.18817 28.6503 4.17899ZM38.8258 4.17788C38.6737 4.18099 38.5218 4.1841 38.3785 4.17899C38.3499 4.18817 38.3213 4.20194 38.3023 4.22489C38.2427 4.37909 38.2471 4.58935 38.2519 4.81624C38.2532 4.87971 38.2546 4.94448 38.2546 5.00969V9.93881C38.2546 10.0044 38.2524 10.0692 38.2503 10.1332C38.2435 10.338 38.2369 10.5348 38.3023 10.7236C38.3488 10.7753 38.4248 10.7727 38.5001 10.7701C38.5252 10.7692 38.5501 10.7684 38.5739 10.7695C38.9028 10.7879 39.2937 10.7741 39.5606 10.7466C39.6232 10.5516 39.6175 10.3511 39.6117 10.1452C39.61 10.0845 39.6083 10.0234 39.6083 9.96175V4.98215C39.6083 4.91928 39.6104 4.8564 39.6125 4.79377C39.6194 4.59124 39.6261 4.39123 39.5606 4.20194C39.3418 4.16731 39.0834 4.1726 38.8258 4.17788Z" fill="#0269B3"/>
</svg>
