<svg width="62" height="42" viewBox="0 0 62 42" fill="none" xmlns="http://www.w3.org/2000/svg">
<g filter="url(#filter0_d)">
<rect x="4" y="2" width="54" height="34" rx="8" fill="white"/>
</g>
<path d="M27.3971 28.4043C27.3227 28.1969 27.188 28.0555 27.0904 27.8716C26.8534 27.5558 26.5746 27.2824 26.2958 27.009C26.1982 26.976 26.1564 26.8817 26.0634 26.844C26.003 26.7638 25.9054 26.7214 25.8264 26.6601C25.6684 26.5376 25.4965 26.4339 25.3199 26.3301C24.9854 26.1133 24.5718 25.9766 24.1629 25.8352C23.7214 25.7268 23.2567 25.6466 22.7734 25.5806C22.2948 25.5099 21.8162 25.4439 21.4537 25.2506C21.2446 25.1894 21.0913 25.0715 20.9101 24.9772C20.7428 24.8641 20.5615 24.7698 20.4221 24.6284C20.2502 24.5247 20.1433 24.3503 20.0086 24.2088C19.9621 24.1146 19.8831 24.058 19.8459 23.9543C19.7995 23.9354 19.7855 23.8789 19.7576 23.8459C19.7251 23.8081 19.7251 23.7327 19.6693 23.7186C19.6415 23.9119 19.6508 24.1428 19.6693 24.3408C19.6926 24.4257 19.7019 24.5294 19.7251 24.6142C19.7391 24.6897 19.8088 24.8122 19.7809 24.8688C18.3311 24.7934 17.2716 24.3267 16.3515 23.7139C15.8961 23.4075 15.5058 23.0351 15.1433 22.6344C14.9853 22.4128 14.8134 22.2007 14.674 21.9555C14.5299 21.7151 14.4091 21.4417 14.279 21.1872C14.0652 20.6356 13.8654 20.0699 13.7911 19.377C13.6935 18.7312 13.7167 17.9062 13.8608 17.3075C13.9119 16.9775 14.0188 16.6994 14.1117 16.4119C14.1721 16.2799 14.2372 16.1479 14.2929 16.0112C14.3719 15.898 14.4138 15.7425 14.5113 15.6435C14.7762 15.1391 15.1712 14.7619 15.5755 14.399C16.0123 14.0737 16.5095 13.8097 17.1089 13.6494C17.6851 13.5174 18.4705 13.4939 19.0931 13.6306C20.3571 13.8946 21.3097 14.4697 22.1089 15.2051C22.9175 15.9263 23.5402 16.8408 23.9677 17.9533C24.4091 19.0093 24.5625 20.6545 24.1675 21.8518C24.0049 21.7576 23.8422 21.668 23.6796 21.5784C23.4844 21.5218 23.2939 21.4559 23.0662 21.4323C22.792 21.4276 22.5225 21.4323 22.3459 21.5218C22.7037 21.4841 22.9919 21.5831 23.2149 21.668C23.345 21.7198 23.4194 21.7528 23.5216 21.8141C23.7214 21.932 23.898 22.0404 24.0467 22.2007C24.4696 22.5778 24.7716 23.0775 24.9157 23.7374C24.9157 23.7563 24.9389 23.7516 24.9342 23.7186C24.9528 23.7139 24.9621 23.6997 24.9714 23.6809C24.9946 23.6526 25.0225 23.6243 25.0458 23.5913C25.0922 23.5347 25.1387 23.4782 25.1712 23.4075C25.2688 23.2896 25.3478 23.1576 25.4222 23.0209C25.5941 22.7664 25.7242 22.4741 25.8729 22.196C26.1285 21.602 26.3376 20.9609 26.4677 20.2349C26.7279 18.6227 26.4166 17.0954 25.8729 15.9687C25.3153 14.8327 24.5346 13.9229 23.5262 13.2393C22.5086 12.5605 21.319 12.0608 19.6833 12.0137C19.674 11.9807 19.6601 12.0184 19.6275 12.0137C18.7632 11.9854 18.0662 12.108 17.3738 12.2871C17.0532 12.3955 16.7186 12.4898 16.4351 12.6359C16.1099 12.7443 15.8496 12.9235 15.5522 13.0555C15.4454 13.1592 15.2827 13.211 15.1712 13.31C15.0271 13.3807 14.9203 13.4939 14.7762 13.5646C14.5439 13.772 14.2976 13.9558 14.0699 14.168C13.8468 14.3754 13.6517 14.6111 13.4379 14.8279C13.4054 14.9034 13.3496 14.9552 13.2939 15.0118C13.2567 15.0825 13.2102 15.1438 13.1498 15.1956C13.1266 15.2805 13.0522 15.3135 13.0243 15.3983C12.9639 15.4455 12.95 15.5398 12.8803 15.5822C12.8199 15.733 12.713 15.8415 12.6433 15.9829C12.5597 16.1196 12.4946 16.2704 12.411 16.4024C12.2808 16.7088 12.1414 17.0058 12.0346 17.3358C11.923 17.6564 11.8301 17.9958 11.765 18.3635C11.6953 18.7076 11.6303 19.1554 11.6396 19.5184C11.5931 19.6504 11.6303 19.8955 11.6396 20.0511C11.6396 20.0794 11.621 20.0888 11.621 20.1076C11.621 20.2821 11.6675 20.4942 11.6768 20.6026C11.7139 21.0033 11.7836 21.3757 11.8952 21.701C11.9649 22.064 12.1136 22.3468 12.2204 22.6721C12.3831 22.9455 12.4946 23.2708 12.6898 23.5159C12.8338 23.8034 13.0383 24.0297 13.2334 24.2654C13.4426 24.4917 13.6517 24.7227 13.9026 24.9065C14.3626 25.3119 14.9017 25.6372 15.4918 25.9153C16.5931 26.4574 18.2381 26.811 19.7158 26.7214C20.0922 26.6696 20.4733 26.6224 20.8171 26.5376C21.1331 26.4197 21.5002 26.349 21.8813 26.3019C22.7502 26.2453 23.503 26.3254 24.1722 26.5234C24.8506 26.7073 25.4361 26.9854 25.9426 27.3484C26.2121 27.5087 26.4352 27.7161 26.6629 27.9141C26.8952 28.1168 27.0811 28.3666 27.2948 28.5929C27.3227 28.6777 27.3785 28.739 27.4203 28.8144C27.4761 28.8757 27.4482 29.0171 27.5829 28.9983C27.6666 28.9134 27.569 28.7909 27.5644 28.6872C27.4807 28.5976 27.4621 28.4797 27.3971 28.4043Z" fill="#FCB316"/>
<path fill-rule="evenodd" clip-rule="evenodd" d="M24.2062 23.0327C24.2122 23.0258 24.2182 23.019 24.2291 23.019C24.2658 22.9814 24.3026 23.0062 24.3485 23.0371C24.3648 23.0481 24.3822 23.0599 24.4013 23.0699C24.5055 23.2292 24.5689 23.4457 24.6142 23.6878C24.6144 23.6957 24.6146 23.7036 24.6148 23.7115C24.6193 23.9013 24.6238 24.0909 24.5281 24.1337C24.3742 24.049 24.3167 23.8324 24.2588 23.6146C24.2383 23.5374 24.2177 23.4601 24.1928 23.3884C24.1747 23.2929 24.1611 23.14 24.1928 23.0444C24.1983 23.0419 24.2023 23.0373 24.2062 23.0327ZM22.9785 23.7133C22.983 23.6878 22.9966 23.7005 22.9966 23.7133C23.3093 23.7642 23.4497 24.0636 23.4724 24.5286C23.4452 24.7897 23.341 24.9426 23.1733 24.9999C22.752 25.0063 22.5118 24.4649 22.6613 23.9107C22.6777 23.8925 22.6931 23.873 22.7085 23.8534C22.7739 23.7703 22.8391 23.6875 22.9785 23.7133Z" fill="#FCB316"/>
<path fill-rule="evenodd" clip-rule="evenodd" d="M32.6771 22.82C32.7485 23.1091 32.9011 23.3157 33.0727 23.5084C33.2443 23.7012 33.4444 23.8618 33.6875 23.9811C33.9163 24.1188 34.1642 24.2336 34.4502 24.3116C34.4748 24.3198 34.4993 24.3282 34.5239 24.3367L34.5239 24.3367C34.6372 24.3759 34.7524 24.4158 34.8934 24.4309C34.915 24.4425 34.9374 24.4531 34.9596 24.4636C35.06 24.5112 35.1573 24.5572 35.1651 24.6925C35.1603 24.8899 35.0221 24.9633 34.8458 25C34.7796 24.9862 34.7075 24.9783 34.6353 24.9703C34.515 24.957 34.3947 24.9438 34.3024 24.9036C33.9773 24.8675 33.7069 24.7753 33.4338 24.6821C33.3946 24.6687 33.3553 24.6553 33.3158 24.642C32.7152 24.4171 32.2099 24.0913 31.7905 23.692C31.7441 23.6175 31.6878 23.551 31.6317 23.4846C31.5841 23.4283 31.5365 23.3721 31.495 23.3111C31.4521 23.248 31.4156 23.1788 31.3789 23.1092C31.3382 23.0319 31.2973 22.9543 31.2471 22.8842C30.5131 22.7925 30.0126 22.4712 29.5741 22.0994C29.169 21.6543 28.8449 21.1219 28.7114 20.4151C28.5541 19.7358 28.6018 18.8868 28.7877 18.2305C29.1928 16.9592 30.0412 16.1147 31.6427 16C32.086 16.0138 32.4721 16.0643 32.8248 16.1928C33.1823 16.3167 33.5207 16.5461 33.7876 16.7848L33.7987 16.7932C33.8149 16.8053 33.8234 16.8117 33.8353 16.8307C33.8639 16.8697 33.9127 16.9168 33.964 16.9661C34.0152 17.0154 34.0688 17.0671 34.107 17.1152C34.1143 17.1246 34.1166 17.1375 34.119 17.151C34.1214 17.164 34.1238 17.1774 34.1308 17.1887C34.1461 17.2108 34.1656 17.2264 34.1847 17.2417C34.2013 17.2549 34.2176 17.268 34.2309 17.2851C34.2379 17.2963 34.2403 17.3086 34.2427 17.3204C34.2451 17.3327 34.2474 17.3445 34.2547 17.3539C34.2738 17.3814 34.2976 17.4227 34.3262 17.4732C34.3311 17.4826 34.3423 17.4908 34.3526 17.4985C34.3624 17.5057 34.3716 17.5124 34.3739 17.5191C34.3986 17.564 34.4153 17.6149 34.4324 17.6667C34.445 17.7049 34.4578 17.7437 34.474 17.7807C34.4911 17.822 34.5112 17.8606 34.5311 17.8988C34.5554 17.9455 34.5796 17.9918 34.5979 18.0423C34.6932 18.3131 34.7552 18.6344 34.7933 18.9648C34.8887 19.9194 34.6932 20.7731 34.3262 21.4064C34.1546 21.7369 33.9163 22.0076 33.6351 22.2371C33.3959 22.4803 33.0743 22.6322 32.7507 22.7851L32.6771 22.82ZM31.495 16.8445C31.3536 16.8535 31.2495 16.8985 31.1445 16.9439C31.0901 16.9673 31.0356 16.9909 30.9754 17.0097C30.9386 17.0422 30.8987 17.0724 30.8588 17.1026L30.8588 17.1026L30.8588 17.1026L30.8588 17.1026C30.7748 17.1662 30.6904 17.2301 30.6323 17.3172C30.5501 17.362 30.5025 17.4387 30.4552 17.515C30.4202 17.5714 30.3854 17.6276 30.3368 17.6706C30.2414 17.9001 30.1509 18.1571 30.0889 18.4554C30.0317 18.7491 29.9936 19.0796 29.9888 19.4054C29.984 20.2223 30.1652 21.0347 30.5036 21.5166C30.7038 21.7506 30.9469 21.9434 31.2424 22.0857C31.3187 22.0918 31.3876 22.1061 31.4568 22.1205C31.5431 22.1385 31.6302 22.1566 31.7333 22.1591C31.7752 22.1444 31.8277 22.1415 31.88 22.1386C31.9585 22.1341 32.0364 22.1298 32.0765 22.0857C32.1598 22.0907 32.2075 22.0642 32.2554 22.0377C32.2953 22.0156 32.3352 21.9935 32.3958 21.9893C32.4673 21.9204 32.5436 21.8654 32.6437 21.8241C32.6669 21.7993 32.6898 21.7746 32.7127 21.75L32.7128 21.7499C32.779 21.6785 32.8445 21.6077 32.9154 21.5395C32.9313 21.5166 32.9451 21.4905 32.959 21.4641C32.9869 21.4115 33.0155 21.3575 33.0631 21.3238C33.4921 20.5344 33.5398 19.0887 33.2586 18.1708C33.1537 17.8358 33.0059 17.565 32.8391 17.3401C32.658 17.1611 32.4435 17.0097 32.2004 16.8904L32.1348 16.8762C31.9624 16.8386 31.7902 16.8011 31.5617 16.8215C31.5474 16.8215 31.5331 16.8261 31.5379 16.8445H31.495ZM37.1437 16.1779C36.991 16.181 36.8385 16.1841 36.6951 16.179C36.657 16.1928 36.6332 16.2157 36.6236 16.2524C36.5807 18.359 36.5807 20.6262 36.6236 22.7282C36.741 22.7882 36.9035 22.7831 37.0786 22.7775H37.0786L37.0786 22.7775C37.1311 22.7758 37.1847 22.7741 37.2385 22.7741C37.2899 22.7741 37.3428 22.7751 37.3959 22.7761L37.396 22.7761C37.5697 22.7794 37.7458 22.7828 37.8772 22.7511C37.9338 22.6694 37.93 22.5775 37.9262 22.4867C37.9249 22.4552 37.9236 22.4239 37.9249 22.3932C37.928 22.3014 37.927 22.2055 37.9259 22.1096C37.9254 22.0617 37.9249 22.0138 37.9249 21.9663C37.9249 21.3763 37.928 20.7762 37.9312 20.174V20.1739V20.1739C37.9376 18.9633 37.944 17.7444 37.9249 16.5829C37.9249 16.5554 37.9262 16.5276 37.9275 16.4996V16.4996V16.4996C37.9323 16.3966 37.9372 16.2922 37.8772 16.2019C37.6614 16.1673 37.4023 16.1726 37.1437 16.1779ZM39.6503 16.179H40.8085C40.9124 16.3154 40.9461 16.5195 40.9792 16.7196L40.9801 16.7251C41.3281 18.001 41.6713 19.2815 41.9906 20.5895C42.0423 20.5957 42.048 20.5577 42.0537 20.5197C42.0564 20.5016 42.0592 20.4835 42.0669 20.4702C42.0835 20.4541 42.0871 20.4266 42.0907 20.399C42.0943 20.3715 42.0978 20.344 42.1145 20.3279C42.1206 20.2832 42.136 20.2476 42.1514 20.212C42.1725 20.1634 42.1935 20.1148 42.1908 20.0433C42.2355 19.9596 42.2647 19.8596 42.2939 19.7597C42.3207 19.668 42.3474 19.5763 42.3862 19.4972C42.4505 19.2495 42.5286 19.0131 42.6066 18.7771C42.65 18.6459 42.6933 18.5148 42.7342 18.3819C42.7764 18.2334 42.8243 18.0902 42.8722 17.9473L42.8722 17.9473C42.9485 17.7194 43.0246 17.492 43.0773 17.2438C43.1488 17.1002 43.1961 16.9334 43.2435 16.7666C43.3036 16.5549 43.3636 16.3433 43.473 16.179H43.9639C44.0628 16.3592 44.1273 16.5727 44.1917 16.7861C44.2421 16.9531 44.2925 17.1202 44.3595 17.2713C44.4129 17.4769 44.4771 17.6721 44.5413 17.8672C44.5975 18.038 44.6537 18.2088 44.7027 18.3865C44.7567 18.5508 44.8112 18.7145 44.8657 18.8783C45.0564 19.4514 45.2471 20.0245 45.4176 20.617C45.4758 20.5344 45.5001 20.4193 45.5243 20.305C45.5418 20.2224 45.5592 20.1402 45.5892 20.0709L45.6074 19.9901C45.6436 19.8282 45.6798 19.6664 45.737 19.5247C45.7721 19.3862 45.8069 19.2474 45.8416 19.1088L45.8416 19.1088C45.9956 18.4944 46.1491 17.8821 46.328 17.2942L46.3353 17.2606L46.3353 17.2606C46.4139 16.895 46.4941 16.5225 46.6235 16.2019C46.9095 16.1606 47.348 16.1606 47.634 16.2019C47.6541 16.4381 47.5623 16.6905 47.4816 16.9125L47.4816 16.9126C47.4666 16.9538 47.452 16.9939 47.4386 17.0326C47.4122 17.2004 47.3653 17.347 47.3183 17.4944L47.3182 17.4944C47.2803 17.6131 47.2422 17.7323 47.2146 17.8633C47.1313 18.117 47.0575 18.3779 46.9838 18.6386L46.9838 18.6386C46.9015 18.9298 46.8192 19.2209 46.7236 19.5018C46.6517 19.7978 46.5669 20.0814 46.482 20.3656L46.482 20.3656C46.4036 20.6277 46.3251 20.8901 46.2565 21.1632C46.1968 21.327 46.1483 21.5017 46.0993 21.6781L46.0993 21.6782L46.0993 21.6782C46.0701 21.7834 46.0407 21.8893 46.0087 21.9939C45.9743 22.0867 45.9479 22.1873 45.9216 22.2879C45.875 22.4658 45.8284 22.6438 45.737 22.7787H45.0459C44.9496 22.6158 44.8874 22.4215 44.8252 22.2271C44.7734 22.0654 44.7217 21.9036 44.6503 21.7598C44.4972 21.2932 44.3366 20.8347 44.176 20.3764C43.9765 19.8069 43.777 19.2376 43.5921 18.6527C43.5253 18.7197 43.4975 18.8273 43.4699 18.9346C43.4501 19.011 43.4304 19.0873 43.3967 19.1484C43.3443 19.3274 43.2918 19.5064 43.2251 19.6716C43.183 19.8319 43.1315 19.9814 43.0802 20.1305L43.0802 20.1305C43.0155 20.3186 42.951 20.506 42.9058 20.7134C42.7829 21.0031 42.6901 21.3217 42.5974 21.6404L42.5626 21.7598C42.5019 21.8922 42.4575 22.0404 42.4131 22.1888C42.3528 22.3901 42.2923 22.5919 42.1908 22.7557C42.0769 22.7904 41.9217 22.7851 41.7664 22.7798C41.6746 22.7767 41.5829 22.7736 41.4997 22.7787C41.3896 22.658 41.3423 22.475 41.2948 22.2914C41.2683 22.1888 41.2417 22.086 41.2041 21.9939C41.1764 21.9028 41.1515 21.8085 41.1265 21.7139C41.0784 21.532 41.03 21.3491 40.9611 21.1861C40.8938 20.8947 40.8096 20.6207 40.7255 20.3471L40.7255 20.3471C40.6427 20.0779 40.5601 19.8092 40.494 19.5247C40.3639 19.1323 40.2469 18.7273 40.1294 18.321L40.1294 18.3209L40.1293 18.3207C40.0875 18.1759 40.0456 18.0309 40.003 17.8863C39.9567 17.7524 39.9166 17.6138 39.8763 17.4746L39.8763 17.4746C39.8379 17.3418 39.7994 17.2085 39.7552 17.0785C39.7395 16.9748 39.703 16.8748 39.6663 16.7744L39.6663 16.7744C39.6024 16.5993 39.5381 16.4232 39.5836 16.2249C39.5931 16.2019 39.6217 16.1882 39.6503 16.179ZM49.8258 16.1779C49.6737 16.181 49.5218 16.1841 49.3785 16.179C49.3499 16.1882 49.3213 16.2019 49.3023 16.2249C49.2427 16.3791 49.2471 16.5894 49.2519 16.8162C49.2532 16.8797 49.2546 16.9445 49.2546 17.0097V21.9388C49.2546 22.0044 49.2524 22.0692 49.2503 22.1332C49.2435 22.338 49.2369 22.5348 49.3023 22.7236C49.3488 22.7753 49.4248 22.7727 49.5001 22.7701C49.5252 22.7692 49.5501 22.7684 49.5739 22.7695C49.9028 22.7879 50.2937 22.7741 50.5606 22.7466C50.6232 22.5516 50.6175 22.3511 50.6117 22.1452C50.61 22.0845 50.6083 22.0234 50.6083 21.9618V16.9822C50.6083 16.9193 50.6104 16.8564 50.6125 16.7938C50.6194 16.5912 50.6261 16.3912 50.5606 16.2019C50.3418 16.1673 50.0834 16.1726 49.8258 16.1779Z" fill="#0269B3"/>
<defs>
<filter id="filter0_d" x="0" y="0" width="62" height="42" filterUnits="userSpaceOnUse" color-interpolation-filters="sRGB">
<feFlood flood-opacity="0" result="BackgroundImageFix"/>
<feColorMatrix in="SourceAlpha" type="matrix" values="0 0 0 0 0 0 0 0 0 0 0 0 0 0 0 0 0 0 127 0"/>
<feOffset dy="2"/>
<feGaussianBlur stdDeviation="2"/>
<feColorMatrix type="matrix" values="0 0 0 0 0 0 0 0 0 0 0 0 0 0 0 0 0 0 0.178185 0"/>
<feBlend mode="normal" in2="BackgroundImageFix" result="effect1_dropShadow"/>
<feBlend mode="normal" in="SourceGraphic" in2="effect1_dropShadow" result="shape"/>
</filter>
</defs>
</svg>
