<svg width="60" height="57" viewBox="0 0 60 57" fill="none" xmlns="http://www.w3.org/2000/svg">
<g id="sharepoint-1">
<path id="Shape" fill-rule="evenodd" clip-rule="evenodd" d="M0 5.90117L32.9831 0C32.9907 12.5574 32.9881 25.1149 32.9856 37.6723C32.9844 43.951 32.9831 50.2298 32.9831 56.5085C27.7986 55.5892 22.6142 54.6623 17.4273 53.735L17.4254 53.7347C11.621 52.697 5.81368 51.6587 0 50.63V5.90117ZM10.9868 18.6549C9.63895 20.252 9.21987 22.4607 9.46905 24.4881C9.67293 26.2551 10.6583 27.8748 11.9949 28.9961C12.5009 29.4272 13.0651 29.7885 13.6305 30.1506L13.6305 30.1506C14.4319 30.6638 15.2357 31.1785 15.8799 31.8958C16.7068 32.8132 16.9106 34.3423 16.0838 35.3277C15.4269 36.1206 14.2942 36.1772 13.3654 36.0186C11.8023 35.7921 10.4771 34.8293 9.4464 33.6627L9.45773 38.5445C10.9755 39.6998 12.935 40.1076 14.8039 40.0962C16.1291 40.0622 17.477 39.7564 18.553 38.9522C19.9009 37.9668 20.6824 36.3584 20.875 34.7274C21.1468 32.8245 20.8296 30.7744 19.6517 29.2113C18.621 27.9088 17.2391 26.9573 15.8346 26.1192C15.0757 25.6548 14.3168 25.1564 13.8071 24.4089C13.2068 23.3895 13.2295 21.9397 14.113 21.1015C14.8492 20.3879 15.9705 20.3313 16.9333 20.4445C18.1113 20.5691 19.2213 21.1015 20.1387 21.8264V16.9786C18.6096 16.3556 16.9106 16.2877 15.2909 16.4123C13.6486 16.6275 12.0402 17.375 10.9868 18.6549ZM40.4813 7.82669C38.8843 7.67945 37.3099 8.35904 36.1772 9.46905V17.3071C37.3212 18.4624 38.9636 19.1646 40.5946 18.9834C41.9311 18.8475 43.211 18.1792 44.0945 17.1598C47.2093 18.3831 49.7012 20.9995 50.8339 24.137C49.6106 25.3716 48.897 27.1499 49.1235 28.9055C49.2595 30.2307 49.9164 31.454 50.8339 32.4055C49.7012 35.5316 47.2207 38.1254 44.1285 39.3487C43.1431 38.3179 41.7839 37.5817 40.3228 37.5477C38.7823 37.4684 37.2646 38.148 36.1999 39.2581V47.0394C36.8002 47.719 37.593 48.1948 38.4425 48.4892C40.3114 49.1235 42.5201 48.6025 43.8906 47.1867C45.2159 45.8728 45.7709 43.9133 45.4537 42.0897C49.1235 40.5833 52.0798 37.4911 53.4956 33.7873C55.8062 34.263 58.2981 33.0058 59.3401 30.899C60.5068 28.6563 59.9858 25.6774 58.0716 24.0351C56.8596 22.9251 55.1153 22.4607 53.5069 22.7665C52.0911 19.0514 49.1009 15.9592 45.4311 14.4414C45.567 13.6033 45.5557 12.7424 45.3291 11.9156C44.7628 9.72956 42.758 7.95128 40.4813 7.82669Z" fill="#0072C6"/>
</g>
</svg>
