<svg width="225" height="242" viewBox="0 0 225 242" fill="none" xmlns="http://www.w3.org/2000/svg">
<g filter="url(#filter0_d)">
<rect width="207" height="224" rx="8" fill="white"/>
</g>
<mask id="mask0" mask-type="alpha" maskUnits="userSpaceOnUse" x="0" y="0" width="207" height="224">
<rect width="207" height="224" rx="8" fill="white"/>
</mask>
<g mask="url(#mask0)">
<rect width="65" height="224" fill="#D8D8D8"/>
</g>
<rect x="82" y="140" width="118" height="34" rx="2" fill="#D8D8D8"/>
<rect x="186" y="7" width="14" height="14" rx="2" fill="#D8D8D8"/>
<rect x="160" y="13" width="16" height="2" rx="1" fill="#D8D8D8"/>
<rect x="134" y="13" width="16" height="2" rx="1" fill="#D8D8D8"/>
<rect x="108" y="13" width="16" height="2" rx="1" fill="#D8D8D8"/>
<rect x="82" y="13" width="16" height="2" rx="1" fill="#D8D8D8"/>
<rect x="141" y="204" width="59" height="13" rx="3" fill="url(#paint0_linear)"/>
<path fill-rule="evenodd" clip-rule="evenodd" d="M40.3851 42.1997C43.2012 39.9077 45 36.4139 45 32.5C45 25.5964 39.4036 20 32.5 20C25.5964 20 20 25.5964 20 32.5C20 36.4139 21.7988 39.9077 24.6149 42.1997C26.3211 39.6664 29.2159 38 32.5 38C35.7841 38 38.6789 39.6664 40.3851 42.1997ZM32.5 37C35.5376 37 38 34.5376 38 31.5C38 28.4624 35.5376 26 32.5 26C29.4624 26 27 28.4624 27 31.5C27 34.5376 29.4624 37 32.5 37Z" fill="#A3A3A3"/>
<rect x="11" y="58" width="43" height="2" rx="0.5" fill="#A3A3A3"/>
<rect x="13" y="94" width="39" height="2" rx="0.5" fill="#A3A3A3"/>
<rect x="17" y="70" width="31" height="2" rx="0.5" fill="#A3A3A3"/>
<rect x="15" y="106" width="35" height="2" rx="0.5" fill="#A3A3A3"/>
<rect x="12" y="82" width="41" height="2" rx="0.5" fill="#A3A3A3"/>
<rect x="11" y="118" width="43" height="2" rx="0.5" fill="#A3A3A3"/>
<rect x="82" y="58" width="20" height="2" rx="1" fill="#D8D8D8"/>
<rect x="82" y="88" width="18" height="2" rx="1" fill="#D8D8D8"/>
<rect x="82" y="73" width="26" height="2" rx="1" fill="#D8D8D8"/>
<rect x="82" y="103" width="27" height="2" rx="1" fill="#D8D8D8"/>
<rect x="150" y="58" width="31" height="2" rx="1" fill="#D8D8D8"/>
<rect x="150" y="88" width="29" height="2" rx="1" fill="#D8D8D8"/>
<rect x="150" y="73" width="25" height="2" rx="1" fill="#D8D8D8"/>
<rect x="150" y="103" width="36" height="2" rx="1" fill="#D8D8D8"/>
<path d="M82.5 63H132.5" stroke="#D8D8D8" stroke-width="0.3" stroke-linecap="square"/>
<path d="M150 63H200" stroke="#D8D8D8" stroke-width="0.3" stroke-linecap="square"/>
<path d="M82.5 78H132.5" stroke="#D8D8D8" stroke-width="0.3" stroke-linecap="square"/>
<path d="M150 78H200" stroke="#D8D8D8" stroke-width="0.3" stroke-linecap="square"/>
<path d="M82.5 93H132.5" stroke="#D8D8D8" stroke-width="0.3" stroke-linecap="square"/>
<path d="M150 93H200" stroke="#D8D8D8" stroke-width="0.3" stroke-linecap="square"/>
<path d="M82.5 108H132.5" stroke="#D8D8D8" stroke-width="0.3" stroke-linecap="square"/>
<path d="M150 108H200" stroke="#D8D8D8" stroke-width="0.3" stroke-linecap="square"/>
<path d="M82.5 162.5H199.5" stroke="#EBE7E7" stroke-width="0.2" stroke-linecap="square"/>
<path d="M82.5 155H199.5" stroke="#EBE7E7" stroke-width="0.2" stroke-linecap="square"/>
<path d="M82.5 148H199.5" stroke="#EBE7E7" stroke-width="0.2" stroke-linecap="square"/>
<path d="M82.5 174L96.5836 162.5L118.01 166.847L126.516 155L138.067 164.706L147.731 148.981L177.02 164.706L196.988 142.475" stroke="#C0030D"/>
<defs>
<filter id="filter0_d" x="0" y="0" width="225" height="242" filterUnits="userSpaceOnUse" color-interpolation-filters="sRGB">
<feFlood flood-opacity="0" result="BackgroundImageFix"/>
<feColorMatrix in="SourceAlpha" type="matrix" values="0 0 0 0 0 0 0 0 0 0 0 0 0 0 0 0 0 0 127 0"/>
<feOffset dx="16" dy="16"/>
<feGaussianBlur stdDeviation="1"/>
<feColorMatrix type="matrix" values="0 0 0 0 0 0 0 0 0 0 0 0 0 0 0 0 0 0 0.115275 0"/>
<feBlend mode="normal" in2="BackgroundImageFix" result="effect1_dropShadow"/>
<feBlend mode="normal" in="SourceGraphic" in2="effect1_dropShadow" result="shape"/>
</filter>
<linearGradient id="paint0_linear" x1="141" y1="204" x2="141" y2="217" gradientUnits="userSpaceOnUse">
<stop stop-color="#EF0924"/>
<stop offset="1" stop-color="#A30000"/>
</linearGradient>
</defs>
</svg>
