<svg width="225" height="242" viewBox="0 0 225 242" fill="none" xmlns="http://www.w3.org/2000/svg">
<g filter="url(#filter0_d)">
<rect width="207" height="224" rx="8" fill="white"/>
</g>
<rect x="49" y="13" width="109" height="10" rx="3" fill="#A3A3A3"/>
<rect x="10" y="118" width="14" height="14" rx="3" fill="#D8D8D8"/>
<rect x="10" y="158" width="14" height="14" rx="3" fill="#D8D8D8"/>
<rect x="10" y="198" width="14" height="14" rx="3" fill="#D8D8D8"/>
<rect x="10" y="49" width="79" height="20" rx="3" fill="#D8D8D8"/>
<rect x="118" y="49" width="79" height="20" rx="3" fill="#D8D8D8"/>
<rect x="37" y="121.5" width="160" height="7" rx="1" fill="#D8D8D8"/>
<rect x="37" y="161.5" width="160" height="7" rx="1" fill="#D8D8D8"/>
<rect x="37" y="201.5" width="160" height="7" rx="1" fill="#D8D8D8"/>
<rect x="10" y="83" width="187" height="4" rx="1" fill="#D8D8D8"/>
<rect x="10" y="83" width="110" height="4" rx="1" fill="url(#paint0_linear)"/>
<path d="M100 59.5H107" stroke="#D8D8D8" stroke-linecap="square"/>
<rect x="10" y="78" width="14" height="14" rx="3" fill="url(#paint1_linear)"/>
<rect x="111" y="78" width="14" height="14" rx="3" fill="url(#paint2_linear)"/>
<path d="M0.5 36H206.5" stroke="#D8D8D8" stroke-width="0.5" stroke-linecap="square"/>
<path d="M0.5 105H206.5" stroke="#D8D8D8" stroke-width="0.5" stroke-linecap="square"/>
<path d="M0.5 145H206.5" stroke="#D8D8D8" stroke-width="0.5" stroke-linecap="square"/>
<path d="M0.5 185H206.5" stroke="#D8D8D8" stroke-width="0.5" stroke-linecap="square"/>
<defs>
<filter id="filter0_d" x="0" y="0" width="225" height="242" filterUnits="userSpaceOnUse" color-interpolation-filters="sRGB">
<feFlood flood-opacity="0" result="BackgroundImageFix"/>
<feColorMatrix in="SourceAlpha" type="matrix" values="0 0 0 0 0 0 0 0 0 0 0 0 0 0 0 0 0 0 127 0"/>
<feOffset dx="16" dy="16"/>
<feGaussianBlur stdDeviation="1"/>
<feColorMatrix type="matrix" values="0 0 0 0 0 0 0 0 0 0 0 0 0 0 0 0 0 0 0.115275 0"/>
<feBlend mode="normal" in2="BackgroundImageFix" result="effect1_dropShadow"/>
<feBlend mode="normal" in="SourceGraphic" in2="effect1_dropShadow" result="shape"/>
</filter>
<linearGradient id="paint0_linear" x1="10" y1="83" x2="10" y2="87" gradientUnits="userSpaceOnUse">
<stop stop-color="#EF0924"/>
<stop offset="1" stop-color="#A30000"/>
</linearGradient>
<linearGradient id="paint1_linear" x1="10" y1="78" x2="10" y2="92" gradientUnits="userSpaceOnUse">
<stop stop-color="#EF0924"/>
<stop offset="1" stop-color="#A30000"/>
</linearGradient>
<linearGradient id="paint2_linear" x1="111" y1="78" x2="111" y2="92" gradientUnits="userSpaceOnUse">
<stop stop-color="#EF0924"/>
<stop offset="1" stop-color="#A30000"/>
</linearGradient>
</defs>
</svg>
