<svg width="225" height="242" viewBox="0 0 225 242" fill="none" xmlns="http://www.w3.org/2000/svg">
<g filter="url(#filter0_d)">
<rect width="207" height="224" rx="8" fill="white"/>
</g>
<rect x="72" y="43" width="16" height="16" rx="3" fill="#D8D8D8"/>
<rect x="96" y="43" width="16" height="16" rx="3" fill="#D8D8D8"/>
<rect x="119" y="43" width="16" height="16" rx="3" fill="#D8D8D8"/>
<rect x="49" y="20" width="109" height="10" rx="3" fill="#A3A3A3"/>
<path d="M81.1062 48.2619H81.8V47.0535C81.6803 47.0371 81.2687 47 80.7893 47C79.789 47 79.1038 47.6292 79.1038 48.7857V49.85H78V51.2009H79.1038V54.6H80.4571V51.2012H81.5163L81.6844 49.8503H80.4568V48.9196C80.4571 48.5292 80.5623 48.2619 81.1062 48.2619Z" fill="#A3A3A3"/>
<path d="M108.093 49.8881H107.182V50.7951H106.275V51.7064H107.182V52.6135H108.093V51.7064H109V50.7951H108.093V49.8881Z" fill="#A3A3A3"/>
<path d="M102.125 54.2631C103.928 54.2631 105.126 52.9972 105.126 51.2106C105.126 51.006 105.105 50.8481 105.075 50.6906H102.125V51.7647H103.899C103.827 52.221 103.362 53.1118 102.125 53.1118C101.06 53.1118 100.19 52.2293 100.19 51.1381C100.19 50.0468 101.06 49.1639 102.125 49.1639C102.735 49.1639 103.14 49.4239 103.37 49.6456L104.219 48.8314C103.673 48.3201 102.969 48.0131 102.125 48.0131C100.398 48.0131 99 49.4114 99 51.1381C99 52.8647 100.398 54.2631 102.125 54.2631Z" fill="#A3A3A3"/>
<path d="M130.498 54.5V54.4997H130.5V51.9325C130.5 50.6766 130.23 49.7091 128.761 49.7091C128.056 49.7091 127.582 50.0964 127.389 50.4636H127.368V49.8264H125.976V54.4997H127.426V52.1856C127.426 51.5764 127.541 50.9872 128.296 50.9872C129.039 50.9872 129.05 51.6825 129.05 52.2247V54.5H130.498Z" fill="#A3A3A3"/>
<path d="M123.616 49.8267H125.067V54.5H123.616V49.8267Z" fill="#A3A3A3"/>
<path d="M124.341 47.5C123.877 47.5 123.5 47.8765 123.5 48.3406C123.5 48.8046 123.877 49.189 124.341 49.189C124.805 49.189 125.181 48.8046 125.181 48.3406C125.181 47.8765 124.804 47.5 124.341 47.5Z" fill="#A3A3A3"/>
<rect x="24" y="89" width="159" height="20" rx="5" fill="#D8D8D8"/>
<rect x="24" y="119" width="159" height="20" rx="5" fill="#D8D8D8"/>
<rect x="24" y="149" width="159" height="20" rx="5" fill="#D8D8D8"/>
<rect x="87" y="72" width="33" height="3" rx="1.5" fill="#A3A3A3"/>
<rect x="60" y="184" width="87" height="20" rx="5" fill="url(#paint0_linear)"/>
<defs>
<filter id="filter0_d" x="0" y="0" width="225" height="242" filterUnits="userSpaceOnUse" color-interpolation-filters="sRGB">
<feFlood flood-opacity="0" result="BackgroundImageFix"/>
<feColorMatrix in="SourceAlpha" type="matrix" values="0 0 0 0 0 0 0 0 0 0 0 0 0 0 0 0 0 0 127 0"/>
<feOffset dx="16" dy="16"/>
<feGaussianBlur stdDeviation="1"/>
<feColorMatrix type="matrix" values="0 0 0 0 0 0 0 0 0 0 0 0 0 0 0 0 0 0 0.115275 0"/>
<feBlend mode="normal" in2="BackgroundImageFix" result="effect1_dropShadow"/>
<feBlend mode="normal" in="SourceGraphic" in2="effect1_dropShadow" result="shape"/>
</filter>
<linearGradient id="paint0_linear" x1="60" y1="184" x2="60" y2="204" gradientUnits="userSpaceOnUse">
<stop stop-color="#EF0924"/>
<stop offset="1" stop-color="#A30000"/>
</linearGradient>
</defs>
</svg>
