<svg width="225" height="242" viewBox="0 0 225 242" fill="none" xmlns="http://www.w3.org/2000/svg">
<g filter="url(#filter0_d)">
<rect width="207" height="224" rx="8" fill="white"/>
</g>
<rect x="6" y="6" width="16" height="16" rx="4" fill="#A3A3A3"/>
<rect x="77" y="13" width="19" height="2" rx="1" fill="#A3A3A3"/>
<rect x="103" y="13" width="19" height="2" rx="1" fill="#A3A3A3"/>
<rect x="130" y="13" width="19" height="2" rx="1" fill="#A3A3A3"/>
<rect x="156" y="13" width="19" height="2" rx="1" fill="#A3A3A3"/>
<rect x="182" y="10" width="19" height="8" rx="2" fill="url(#paint0_linear)"/>
<rect x="86" y="40" width="81" height="7" rx="2" fill="#A3A3A3"/>
<rect x="86" y="53" width="115" height="3" rx="1" fill="#D8D8D8"/>
<rect x="86" y="60" width="111" height="3" rx="1" fill="#D8D8D8"/>
<rect x="86" y="67" width="106" height="3" rx="1" fill="#D8D8D8"/>
<rect x="86" y="74" width="113" height="3" rx="1" fill="#D8D8D8"/>
<rect x="86" y="81" width="102" height="3" rx="1" fill="#D8D8D8"/>
<rect x="86" y="88" width="58" height="3" rx="1" fill="#D8D8D8"/>
<rect x="6" y="40" width="74" height="71" rx="5" fill="#A3A3A3"/>
<rect x="6" y="126" width="32" height="32" rx="5" fill="#A3A3A3"/>
<rect x="47" y="126" width="32" height="32" rx="5" fill="#A3A3A3"/>
<rect x="88" y="126" width="32" height="32" rx="5" fill="#A3A3A3"/>
<rect x="128" y="126" width="32" height="32" rx="5" fill="#A3A3A3"/>
<rect x="169" y="126" width="32" height="32" rx="5" fill="#A3A3A3"/>
<rect x="63" y="173" width="81" height="7" rx="2" fill="#A3A3A3"/>
<rect x="46" y="186" width="115" height="3" rx="1" fill="#D8D8D8"/>
<rect x="70" y="193" width="68" height="3" rx="1" fill="#D8D8D8"/>
<rect x="86" y="97" width="51" height="14" rx="4" fill="url(#paint1_linear)"/>
<rect x="150" y="203" width="51" height="14" rx="4" fill="url(#paint2_linear)"/>
<rect x="78" y="203" width="66" height="14" rx="4" fill="#A3A3A3"/>
<rect x="6" y="203" width="66" height="14" rx="4" fill="#A3A3A3"/>
<path d="M1.5 28H205.5" stroke="#F0F0F0" stroke-linecap="square"/>
<defs>
<filter id="filter0_d" x="0" y="0" width="225" height="242" filterUnits="userSpaceOnUse" color-interpolation-filters="sRGB">
<feFlood flood-opacity="0" result="BackgroundImageFix"/>
<feColorMatrix in="SourceAlpha" type="matrix" values="0 0 0 0 0 0 0 0 0 0 0 0 0 0 0 0 0 0 127 0"/>
<feOffset dx="16" dy="16"/>
<feGaussianBlur stdDeviation="1"/>
<feColorMatrix type="matrix" values="0 0 0 0 0 0 0 0 0 0 0 0 0 0 0 0 0 0 0.115275 0"/>
<feBlend mode="normal" in2="BackgroundImageFix" result="effect1_dropShadow"/>
<feBlend mode="normal" in="SourceGraphic" in2="effect1_dropShadow" result="shape"/>
</filter>
<linearGradient id="paint0_linear" x1="182" y1="10" x2="182" y2="18" gradientUnits="userSpaceOnUse">
<stop stop-color="#EF0924"/>
<stop offset="1" stop-color="#A30000"/>
</linearGradient>
<linearGradient id="paint1_linear" x1="86" y1="97" x2="86" y2="111" gradientUnits="userSpaceOnUse">
<stop stop-color="#EF0924"/>
<stop offset="1" stop-color="#A30000"/>
</linearGradient>
<linearGradient id="paint2_linear" x1="150" y1="203" x2="150" y2="217" gradientUnits="userSpaceOnUse">
<stop stop-color="#EF0924"/>
<stop offset="1" stop-color="#A30000"/>
</linearGradient>
</defs>
</svg>
