<svg width="60" height="48" viewBox="0 0 60 48" fill="none" xmlns="http://www.w3.org/2000/svg">
<path fill-rule="evenodd" clip-rule="evenodd" d="M27.9416 3.39069C32.462 -1.13023 39.7892 -1.13023 44.3096 3.39069H44.3099C45.4398 4.52063 45.4398 6.35178 44.3099 7.48289C43.1799 8.61212 41.3483 8.61212 40.2172 7.48289C37.9578 5.22231 34.2946 5.22231 32.0347 7.48289L13.6197 25.896C12.4895 27.0259 10.6582 27.0259 9.52821 25.896C8.39898 24.7665 8.39898 22.933 9.52821 21.8038L27.9416 3.39069ZM34.0802 9.52816C35.2094 8.39799 37.0417 8.39799 38.1717 9.52816C39.3009 10.6581 39.3009 12.4904 38.1717 13.6204L19.7574 32.0346C15.2369 36.5551 7.9098 36.5551 3.38934 32.0346C-1.12994 27.5139 -1.12994 20.1866 3.38934 15.6663L17.3577 1.69848C19.6175 -0.562099 23.2822 -0.562099 25.542 1.69848L7.48271 19.7571C5.22095 22.0184 5.22095 25.6821 7.48271 27.9422C9.74211 30.2014 13.4053 30.2014 15.6664 27.9422L34.0802 9.52816ZM50.448 21.8038C49.3181 20.675 47.4853 20.675 46.3554 21.8038L27.9416 40.2176C25.6817 42.4775 22.0173 42.4775 19.7574 40.2176C18.6282 39.0884 16.7963 39.0884 15.6664 40.2176C14.5348 41.348 14.5348 43.1803 15.6664 44.3091C20.185 48.8295 27.514 48.8295 32.0344 44.3091L50.448 25.896C51.5773 24.7668 51.5773 22.9333 50.448 21.8038ZM40.2186 15.6666C44.7379 11.1468 52.0662 11.1468 56.5867 15.6666C61.1059 20.1863 61.1059 27.5135 56.5867 32.0344L42.6183 46.0022C40.3566 48.2614 36.6938 48.2614 34.434 46.0022L52.4933 27.9424C54.7532 25.6823 54.7532 22.0186 52.4933 19.7585C50.2339 17.4982 46.5688 17.4982 44.3096 19.7585L25.8958 38.1723C24.7666 39.303 22.9343 39.303 21.8036 38.1723C20.6737 37.0431 20.6737 35.2096 21.8036 34.0808L40.2186 15.6666Z" fill="#1A1918"/>
</svg>
