<svg width="104" height="132" viewBox="0 0 104 132" fill="none" xmlns="http://www.w3.org/2000/svg">
<path d="M81.6054 41L101.33 9H53.8847L47.3296 19.6644L81.6054 41Z" fill="url(#paint0_linear)"/>
<path opacity="0.15" d="M47.3296 20.3084L50.6596 15L81.3296 41L47.3296 20.3088L47.3296 20.3084Z" fill="black"/>
<path d="M92.3296 97.9992V50.4169L82.0163 44L60.3296 78.0982L92.3296 98V97.9992Z" fill="url(#paint1_linear)"/>
<path opacity="0.15" d="M60.33 77.7083L65.5173 81L81.3296 44L60.3296 77.7087L60.33 77.7083Z" fill="black"/>
<path d="M15.3296 0V47.5835L26.3111 54L81.3296 41.1679L15.3296 0Z" fill="url(#paint2_linear)"/>
<path d="M27.0112 57.0148L7.32959 88H54.6706L82.3296 44L27.0112 57.0148Z" fill="url(#paint3_linear)"/>
<path fill-rule="evenodd" clip-rule="evenodd" d="M55.5583 119.838C55.5583 113.199 50.3623 108 43.456 108C36.5477 108 31.3513 113.198 31.3513 119.838C31.3513 126.672 36.5477 132 43.456 132C50.3619 132 55.5583 126.671 55.5583 119.838ZM3.09451 128.403H0.331606H0.32959V131.607H9.93425V128.403H7.30318L8.15789 116.7C8.22361 115.879 8.05831 114.54 8.05831 114.54H8.19055C8.19055 114.54 8.41955 115.815 8.71628 116.601L13.189 127.291H16.8728L21.3463 116.601C21.6414 115.815 21.9051 114.541 21.9051 114.541H22.0043C22.0043 114.541 21.8398 115.881 21.9051 116.7L22.7598 128.403H20.1614V131.607H29.7338V128.403H26.9709L25.6231 111.63H28.4179V108.392H20.821L15.6576 121.505C15.2299 122.649 15.065 123.434 15.065 123.434H14.9992C14.9992 123.434 14.8347 122.649 14.4409 121.505L9.24443 108.392H1.64633V111.63H4.47576L3.09451 128.403ZM43.456 128.239C47.6655 128.239 51.1202 124.611 51.1202 119.836C51.1202 115.258 47.6667 111.759 43.456 111.759C39.2449 111.759 35.7918 115.259 35.7918 119.836C35.7918 124.611 39.2461 128.239 43.456 128.239ZM60.4947 128.403H57.7011V131.604H67.8303C69.7728 131.604 71.4153 131.474 72.9961 130.92C77.435 129.448 80.2317 125.492 80.2317 119.998C80.2317 114.278 77.2047 110.288 72.6667 108.947C71.154 108.491 69.6752 108.392 67.7976 108.392H57.7007V111.63H60.4947V128.403ZM67.634 128.175C69.1128 128.175 70.2977 128.044 71.4487 127.584C74.1137 126.505 75.7908 123.792 75.7908 119.999C75.7908 116.075 74.0153 113.395 71.2842 112.349C70.1009 111.891 69.0144 111.827 67.634 111.827H64.8037V128.175H67.634ZM84.7811 128.403H82.7076L82.7088 131.607H91.258V128.403H88.9897L92.1143 123.531C92.283 123.272 92.4163 123.033 92.5171 122.853C92.6313 122.649 92.7037 122.519 92.7384 122.519H92.8037C92.8037 122.519 93.0343 122.977 93.4609 123.531L96.7168 128.403H94.4148V131.607H103.263V128.403H101.191L95.3703 120.162L101.29 111.63H103.33V108.392H94.8433V111.63H97.0801L93.9568 116.437C93.6899 116.809 93.4993 117.139 93.4031 117.305C93.3563 117.386 93.3318 117.428 93.3318 117.418H93.2673C93.2673 117.418 93.0383 116.958 92.6086 116.437L89.3852 111.63H91.6873V108.392H82.8705V111.63H84.9436L90.6677 119.836L84.7811 128.403Z" fill="black"/>
<defs>
<linearGradient id="paint0_linear" x1="150.692" y1="19.9906" x2="137.606" y2="-52.0596" gradientUnits="userSpaceOnUse">
<stop stop-color="#80C3E6"/>
<stop offset="1" stop-color="#3380C2"/>
</linearGradient>
<linearGradient id="paint1_linear" x1="148.97" y1="15.4236" x2="71.8971" y2="9.23289" gradientUnits="userSpaceOnUse">
<stop stop-color="#F38649"/>
<stop offset="0.1849" stop-color="#F28147"/>
<stop offset="0.4091" stop-color="#EF7242"/>
<stop offset="0.6537" stop-color="#EA5A3A"/>
<stop offset="0.911" stop-color="#E4382E"/>
<stop offset="1" stop-color="#E12A29"/>
</linearGradient>
<linearGradient id="paint2_linear" x1="41.4368" y1="71.6716" x2="80.731" y2="16.4506" gradientUnits="userSpaceOnUse">
<stop stop-color="#42AB4A"/>
<stop offset="1" stop-color="#ADD155"/>
</linearGradient>
<linearGradient id="paint3_linear" x1="186.622" y1="173.131" x2="200.815" y2="-19.1492" gradientUnits="userSpaceOnUse">
<stop stop-color="#42AB4A"/>
<stop offset="1" stop-color="#ADD155"/>
</linearGradient>
</defs>
</svg>
