<svg width="132" height="132" viewBox="0 0 132 132" fill="none" xmlns="http://www.w3.org/2000/svg">
<path d="M131.21 18.2025C131.21 8.70184 123.481 1 113.946 1C105.24 1 98.0424 7.42229 96.8566 15.7711L96.6819 15.6792C82.5627 9.33396 70.6695 20.5727 70.6695 20.5727L39.2104 52.0725L51.6407 64L76.9617 39.2126C88.7857 27.4305 95.224 35.405 95.224 35.405C104.125 42.8975 95.5304 51.7666 95.5304 51.7666L108.268 64C118.67 52.8062 119.273 43.0369 116.111 35.2656C124.624 34.2036 131.21 26.972 131.21 18.2025Z" fill="#F9AE41"/>
<path d="M116.44 97.6462C116.499 97.5361 116.532 97.472 116.532 97.472C122.877 83.3525 111.638 71.4596 111.638 71.4596L80.1376 40L68.2104 52.431L92.9981 77.7512C104.78 89.5755 96.8051 96.0141 96.8051 96.0141C89.3131 104.915 80.4439 96.3206 80.4439 96.3206L68.2104 109.058C79.4038 119.459 89.1737 120.062 96.9445 116.9C98.0066 125.413 105.239 132 114.008 132C123.509 132 131.21 124.271 131.21 114.736C131.21 106.03 124.789 98.8325 116.44 97.6462Z" fill="#EE4035"/>
<path d="M79.7804 68L54.4596 92.7871C42.6352 104.57 36.197 96.5957 36.197 96.5957C27.2961 89.1026 35.8901 80.234 35.8901 80.234L23.1536 68C12.7522 79.1934 12.1486 88.9627 15.3098 96.7341C6.79725 97.7966 0.210449 105.028 0.210449 113.798C0.210449 123.299 7.93997 131 17.4753 131C26.1815 131.001 33.3786 124.579 34.5644 116.23C34.6751 116.289 34.7391 116.321 34.7391 116.321C48.8587 122.668 60.7512 111.428 60.7512 111.428L92.2104 79.9271L79.7804 68Z" fill="#4F91CD"/>
<path d="M38.4227 54.2491C26.6408 42.4248 34.6142 35.9861 34.6142 35.9861C42.1077 27.0851 50.9761 35.6796 50.9761 35.6796L63.2094 22.9431C52.0162 12.5418 42.247 11.9386 34.4758 15.0998C33.4138 6.5868 26.1828 0 17.4118 0C7.91274 0 0.21147 7.72953 0.210449 17.2643C0.210449 25.9711 6.63217 33.1682 14.9814 34.354C14.9227 34.4646 14.89 34.5292 14.89 34.5292C8.54332 48.6477 19.783 60.5403 19.783 60.5403L51.2835 92L63.2104 79.5699L38.4232 54.2491" fill="#7AC043"/>
</svg>
