<svg width="142" height="38" viewBox="0 0 142 38" fill="none" xmlns="http://www.w3.org/2000/svg">
<path fill-rule="evenodd" clip-rule="evenodd" d="M120.419 1.40649H126.331V30.1796H120.419V1.40649ZM66.8558 8.14208H60.9155L60.9256 19.1949C60.9256 22.4254 59.5323 25.0382 56.288 25.0382C53.0436 25.0382 51.6342 22.4314 51.6342 19.1949V8.15211H45.704V19.1949C45.704 25.5776 49.8315 30.7511 56.2496 30.7511C62.6678 30.7511 66.8558 25.5776 66.8558 19.1949V8.14208ZM130.694 1.43457V2.46726H132.38V7.02316H133.616V2.46726H135.302V1.43457H130.694ZM137.685 1.43457L139.002 5.2786H139.016L140.26 1.43457H142V7.02316H140.843V3.06282H140.826L139.449 7.02316H138.504L137.126 3.10092H137.11V7.02316H135.953V1.43457H137.685ZM32.4302 12.0362C32.5633 11.7655 35.7774 6.7324 40.8728 7.90145C41.7354 8.09546 42.5663 8.40936 43.3408 8.83389V15.5274C43.3408 15.5274 42.2479 14.4345 39.669 13.8329C34.5696 12.6338 31.9362 17.294 31.9362 18.2665V30.1616H26V8.1862H31.3031L31.9342 12.0362C31.9342 12.0362 31.9503 12.2368 32.1358 12.2368C32.335 12.2368 32.3601 12.1837 32.4089 12.0804C32.4154 12.0666 32.4224 12.0519 32.4302 12.0362ZM74.9112 37.4005V26.5321C74.9112 26.5321 74.9213 26.2955 75.135 26.2935C75.3246 26.2917 75.3619 26.3909 75.4003 26.4932C75.4052 26.5062 75.4101 26.5192 75.4153 26.5321C75.867 27.647 78.341 31.8901 83.8336 30.5586C89.6481 28.9237 93.2529 23.1531 92.1505 17.245C91.048 11.3369 85.6014 7.23663 79.5842 7.78516C73.5671 8.33369 68.9608 13.3504 68.9568 19.3594V37.4065L74.9112 37.4005ZM86.1387 17.1059C85.2212 14.9043 83.0604 13.4692 80.6639 13.47C77.3932 13.47 74.7418 16.1068 74.7418 19.3594C74.741 21.7426 76.1841 23.8915 78.3979 24.8039C80.6118 25.7163 83.1604 25.2124 84.8549 23.5272C86.5494 21.842 87.0562 19.3076 86.1387 17.1059Z" fill="#2AA9E0"/>
<path fill-rule="evenodd" clip-rule="evenodd" d="M6.78746 29.7039H0V0.406494H7.28212C16.103 0.406494 22.7931 2.0423 22.7931 15.0552C22.7931 27.9474 15.7077 29.7039 6.78746 29.7039ZM118 29.7509H112.017L112.013 26.0397C112.013 26.0397 111.981 25.7984 111.788 25.7963C111.604 25.7944 111.557 25.9124 111.512 26.0248L111.507 26.0397C111.052 27.1765 108.565 31.5033 103.042 30.1455C97.1965 28.4785 93.5721 22.5941 94.6805 16.5695C95.7889 10.5449 101.265 6.36382 107.315 6.92317C113.365 7.48251 117.996 12.5981 118 18.7255V29.7509ZM106.231 24.731C109.52 24.731 112.186 22.0423 112.186 18.7255C112.185 15.4093 109.519 12.7212 106.231 12.7201C102.943 12.7201 100.277 15.4088 100.277 18.7255C100.277 22.0423 102.943 24.731 106.231 24.731ZM6.00897 5.48569H8.40728C13.9155 5.48569 16.7821 6.26679 16.7842 15.0552C16.7842 24.2219 13.5263 24.684 8.47216 24.684L6.00897 24.6206V5.48569Z" fill="#2AA9E0"/>
</svg>
