<svg width="170" height="34" viewBox="0 0 170 34" fill="none" xmlns="http://www.w3.org/2000/svg">
<path fill-rule="evenodd" clip-rule="evenodd" d="M159.79 6.36435C167.145 6.36435 169.986 7.06124 170 8.5966V8.61881C169.987 10.1425 167.225 12.4843 163.338 15.7806L163.337 15.7811L163.336 15.7821C161.944 16.9624 160.408 18.265 158.802 19.6962C159.68 18.1725 161.112 16.6943 162.419 15.3458C166.144 11.5024 168.848 8.71308 154.759 8.92979C138.425 9.1768 135.853 4.7568 134.078 1.70752C133.871 1.35157 133.675 1.01431 133.469 0.705322C138.155 5.62833 142.533 6.36435 159.79 6.36435ZM129.767 11.6338C129.767 12.7461 129.33 13.446 128.463 13.7457C128.036 13.8949 127.143 13.9725 125.784 13.9725V24.0745C125.784 24.8048 125.544 25.4205 125.078 25.9351C124.603 26.444 124.005 26.7012 123.28 26.7012C122.574 26.7012 121.974 26.444 121.494 25.9351C121.016 25.4205 120.776 24.8048 120.776 24.0745V13.9725C119.745 13.9725 118.997 13.8409 118.524 13.5843C117.878 13.2252 117.558 12.5731 117.558 11.6338C117.558 10.6952 117.888 10.055 118.553 9.71355C119.002 9.46224 119.745 9.33129 120.776 9.33129V7.18988C120.776 4.67185 121.608 3.41598 123.28 3.41598C124.945 3.41598 125.784 4.67185 125.784 7.18988V9.33129C127.143 9.33129 128.036 9.40887 128.463 9.55806C129.33 9.85711 129.767 10.5517 129.767 11.6338ZM16.8509 17.9085C16.8509 20.4441 16.0959 22.5799 14.5805 24.3089C12.999 26.1204 10.9441 27.0298 8.42861 27.0298C5.9065 27.0298 3.8582 26.1204 2.27674 24.3089C0.760684 22.5799 0 20.4441 0 17.9085C0 15.3659 0.760684 13.2308 2.27674 11.5082C3.8758 9.71355 5.93074 8.81674 8.42861 8.81674C10.9441 8.81674 12.999 9.71355 14.5805 11.5082C16.0959 13.2308 16.8509 15.3659 16.8509 17.9085ZM11.8426 17.9085C11.8426 16.7601 11.5673 15.7906 11.0161 15.0069C10.3996 14.116 9.5366 13.6734 8.42861 13.6734C7.32029 13.6734 6.45768 14.116 5.84043 15.0069C5.28361 15.7906 5.00803 16.7601 5.00803 17.9085C5.00803 19.0507 5.28361 20.0317 5.84043 20.839C6.45768 21.7298 7.32029 22.1731 8.42861 22.1731C9.5366 22.1731 10.3996 21.7298 11.0161 20.839C11.5673 20.0317 11.8426 19.0507 11.8426 17.9085ZM32.9046 24.1169C34.2766 22.3465 34.9596 20.277 34.9596 17.9085C34.9596 15.54 34.2706 13.4705 32.9046 11.6938C31.4311 9.77323 29.5441 8.81674 27.2379 8.81674C25.423 8.81674 23.9912 9.45694 22.943 10.737C22.4516 9.67741 21.6727 9.14629 20.6069 9.14629C19.9 9.14629 19.3066 9.4029 18.8275 9.91148C18.3484 10.4254 18.1087 11.0357 18.1087 11.7416V31.0795C18.1087 31.8083 18.3424 32.4256 18.8096 32.9395C19.283 33.448 19.8757 33.7053 20.6009 33.7053C22.3736 33.7053 23.2601 32.2224 23.2601 29.2488C23.2601 28.7104 23.2365 28.0284 23.1887 27.1919C23.1406 26.3598 23.1167 25.8392 23.1167 25.6244C24.2429 26.5574 25.6202 27.0298 27.2438 27.0298C29.5441 27.0298 31.437 26.0547 32.9046 24.1169ZM29.9512 17.9085C29.9512 16.7601 29.6703 15.7906 29.1191 15.0069C28.5016 14.116 27.6393 13.6734 26.531 13.6734C25.423 13.6734 24.5604 14.116 23.9431 15.0069C23.3919 15.7906 23.1167 16.7601 23.1167 17.9085C23.1167 19.0507 23.3919 20.0317 23.9431 20.839C24.5604 21.7298 25.423 22.1731 26.531 22.1731C27.6393 22.1731 28.5016 21.7298 29.1191 20.839C29.6703 20.0317 29.9512 19.0507 29.9512 17.9085ZM52.5884 19.105C52.9839 18.7815 53.1818 18.2072 53.1818 17.3708C53.1818 15.0434 52.4028 13.0339 50.8579 11.3467C49.312 9.66017 47.3832 8.81674 45.0769 8.81674C42.5973 8.81674 40.5181 9.70758 38.847 11.4909C37.1699 13.2726 36.3315 15.4077 36.3315 17.9085C36.3315 20.5343 37.1397 22.7055 38.7514 24.4345C40.3627 26.1628 42.4714 27.0298 45.0832 27.0298C46.7062 27.0298 48.2936 26.7367 49.8568 26.1628C51.9061 25.3976 52.9304 24.3317 52.9304 22.9628C52.9304 22.3704 52.7262 21.8561 52.3251 21.4311C51.9177 21.0004 51.4267 20.7909 50.8459 20.7909C50.5279 20.7909 49.7914 21.0545 48.6472 21.5932C47.503 22.1247 46.5269 22.3949 45.7117 22.3949C44.6635 22.3949 43.777 22.191 43.0522 21.7895C42.1537 21.2756 41.7041 20.5403 41.7041 19.5831H50.7437C51.5764 19.5831 52.1933 19.4217 52.5884 19.105ZM48.1741 16.1139C48.1498 15.348 47.7966 14.6545 47.1136 14.0259C46.4306 13.3983 45.7061 13.0876 44.9391 13.0876C44.1485 13.0876 43.4114 13.3983 42.7288 14.0259C42.0461 14.6545 41.7041 15.348 41.7041 16.1139H48.1741ZM69.3079 25.9351C69.7747 25.4205 70.0085 24.8048 70.0085 24.0745V14.7324C70.0085 12.8598 69.4453 11.3891 68.3131 10.3176C67.2051 9.31869 65.6954 8.81674 63.7965 8.81674C61.7475 8.81674 60.3161 9.45694 59.5073 10.737C59.0401 9.67741 58.2077 9.14629 57.0098 9.14629C56.2849 9.14629 55.686 9.39693 55.2185 9.89954C54.7453 10.3962 54.5116 11.0112 54.5116 11.7363V24.0745C54.5116 24.8048 54.7453 25.4205 55.2185 25.9351C55.686 26.444 56.2786 26.7012 57.0038 26.7012C58.7287 26.7012 59.5913 25.3134 59.5913 22.5441C59.5913 22.0116 59.5614 21.1745 59.5013 20.0201C59.4475 18.8713 59.4177 18.0282 59.4177 17.4958C59.4177 14.5583 60.3639 13.0876 62.2632 13.0876C64.162 13.0876 65.1146 14.5583 65.1146 17.4958C65.1146 18.0282 65.0785 18.8713 65.0004 20.0201C64.9287 21.1745 64.8925 22.0116 64.8925 22.5441C64.8925 25.3134 65.7674 26.7012 67.5166 26.7012C68.2414 26.7012 68.8344 26.444 69.3079 25.9351ZM85.7202 23.543C85.7202 24.6732 84.9851 25.57 83.5105 26.2288C82.3429 26.7604 81.074 27.0336 79.7908 27.0298C77.2683 27.0298 75.22 26.1204 73.6386 24.3089C72.1232 22.5799 71.3625 20.4441 71.3625 17.9085C71.3625 15.3659 72.1351 13.2192 73.6864 11.4604C75.2379 9.69631 77.2683 8.81674 79.7908 8.81674C81.2464 8.81674 82.4985 9.03191 83.5411 9.45694C84.9957 10.0312 85.7202 10.928 85.7202 12.1484C85.7202 12.764 85.5296 13.3084 85.1454 13.7812C84.7626 14.2477 84.2709 14.487 83.6722 14.487C83.2641 14.487 82.6774 14.3495 81.9108 14.0809C81.1445 13.8051 80.5338 13.6734 80.0846 13.6734C78.8923 13.6734 77.9636 14.0981 77.2989 14.9472C76.6813 15.7131 76.3702 16.6941 76.3702 17.9085C76.3702 19.0507 76.6458 20.0201 77.2032 20.8035C77.8195 21.7189 78.6884 22.1731 79.7964 22.1731C80.2881 22.1731 80.9585 22.0295 81.8148 21.7358C82.6721 21.4497 83.2894 21.3002 83.6722 21.3002C84.23 21.3002 84.7081 21.5389 85.1162 22.0057C85.5176 22.4781 85.7202 22.986 85.7202 23.543ZM103.224 25.9351C103.692 25.4205 103.925 24.8048 103.925 24.0745V11.7363C103.925 11.0298 103.685 10.4254 103.207 9.91148C102.727 9.4029 102.134 9.14629 101.427 9.14629C100.337 9.14629 99.5586 9.67741 99.0911 10.737C98.0432 9.45694 96.6111 8.81674 94.7963 8.81674C92.49 8.81674 90.5914 9.77323 89.093 11.6938C87.7512 13.4705 87.0755 15.54 87.0755 17.9085C87.0755 20.277 87.7512 22.3465 89.093 24.1169C90.5675 26.0547 92.4727 27.0298 94.7963 27.0298C96.6111 27.0298 98.0432 26.3903 99.0911 25.1099C99.5586 26.1685 100.337 26.7012 101.427 26.7012C102.153 26.7012 102.751 26.444 103.224 25.9351ZM98.9174 17.9085C98.9174 16.7601 98.6422 15.7906 98.091 15.0069C97.4498 14.116 96.5872 13.6734 95.5035 13.6734C94.3948 13.6734 93.5325 14.116 92.915 15.0069C92.3588 15.7906 92.0832 16.7601 92.0832 17.9085C92.0832 19.0507 92.3518 20.0317 92.8847 20.839C93.5206 21.7298 94.3948 22.1731 95.5035 22.1731C96.6111 22.1731 97.4734 21.7298 98.091 20.839C98.6422 20.0317 98.9174 19.0507 98.9174 17.9085ZM115.139 13.6131C116.182 13.2126 116.703 12.4769 116.703 11.4064C116.703 10.7065 116.451 10.0965 115.954 9.58193C115.451 9.07335 114.845 8.81674 114.139 8.81674C112.899 8.81674 111.749 9.45694 110.676 10.737C110.208 9.67741 109.376 9.14629 108.179 9.14629C107.454 9.14629 106.854 9.39693 106.381 9.89954C105.914 10.3962 105.681 11.0112 105.681 11.7363V24.0745C105.681 24.8048 105.914 25.4205 106.388 25.9351C106.854 26.444 107.454 26.7012 108.184 26.7012C108.909 26.7012 109.508 26.444 109.982 25.9351C110.448 25.4205 110.688 24.8048 110.688 24.0745V17.9324C110.688 16.3171 111.209 15.2048 112.258 14.6061C113.216 14.2662 114.175 13.9367 115.139 13.6131ZM145.749 24.3622C145.749 25.799 144.583 26.9635 143.144 26.9638C141.7 26.9638 140.532 25.7981 140.532 24.3622C140.532 23.6705 140.807 23.0069 141.296 22.5177C141.786 22.0285 142.451 21.7539 143.144 21.7544C144.582 21.7544 145.749 22.9204 145.749 24.3622ZM155.028 26.9638C156.467 26.9635 157.633 25.799 157.634 24.3622C157.634 22.9204 156.467 21.7544 155.028 21.7544C154.335 21.754 153.671 22.0287 153.181 22.5178C152.691 23.007 152.416 23.6705 152.417 24.3622C152.417 25.7981 153.585 26.9638 155.028 26.9638Z" fill="url(#paint0_linear)"/>
<defs>
<linearGradient id="paint0_linear" x1="152.238" y1="26.8096" x2="152.238" y2="0.705322" gradientUnits="userSpaceOnUse">
<stop stop-color="#04B6F0"/>
<stop offset="1" stop-color="#3ECAF0"/>
</linearGradient>
</defs>
</svg>
