<svg width="128" height="128" viewBox="0 0 128 128" fill="none" xmlns="http://www.w3.org/2000/svg">
<mask id="mask0" mask-type="alpha" maskUnits="userSpaceOnUse" x="0" y="0" width="128" height="128">
<path fill-rule="evenodd" clip-rule="evenodd" d="M0 0H128V128H0V0Z" fill="white"/>
</mask>
<g mask="url(#mask0)">
<path fill-rule="evenodd" clip-rule="evenodd" d="M96.9137 46.2659C99.0123 49.9377 101.459 54.6551 101.459 61.467C101.459 65.8963 99.8612 70.9928 97.6934 77.907C97.5519 78.3584 97.408 78.8175 97.2619 79.2847L91.7652 97.6562L71.8468 38.4064C75.163 38.2323 78.1552 37.8809 78.1552 37.8809C81.1243 37.5296 80.775 33.1656 77.8018 33.3408C77.8018 33.3408 68.8766 34.0403 63.1125 34.0403C57.6966 34.0403 48.5943 33.3408 48.5943 33.3408C45.6241 33.1656 45.2759 37.7068 48.2461 37.8809C48.2461 37.8809 51.0578 38.2323 54.0259 38.4064L62.6144 61.9337L50.5513 98.1093L30.4797 38.4074C33.8023 38.2333 36.7892 37.882 36.7892 37.882C39.7562 37.5306 39.4059 33.1667 36.4347 33.3418C36.4347 33.3418 27.5106 34.0413 21.7455 34.0413C20.7114 34.0413 19.4916 34.0151 18.1985 33.9763C28.0539 19.0123 44.9948 9.13281 64.2505 9.13281C78.5999 9.13281 91.6645 14.6179 101.472 23.6018C101.387 23.5969 101.302 23.59 101.218 23.583C101.066 23.5704 100.914 23.5577 100.756 23.5577C95.3436 23.5577 91.502 28.2741 91.502 33.3408C91.502 37.5309 93.7316 41.1287 96.2716 45.2275C96.4839 45.5699 96.6982 45.9159 96.9137 46.2659ZM40.1967 113.855C21.8116 104.919 9.13285 86.0661 9.13285 64.2483C9.12688 56.5187 10.753 48.8749 13.9048 41.817L40.1967 113.855Z" fill="#00749A"/>
<path fill-rule="evenodd" clip-rule="evenodd" d="M112.985 43.4721C112.985 41.4458 112.851 39.5601 112.614 37.8044C117.058 45.9089 119.381 55.0055 119.366 64.2484C119.366 84.5832 108.344 102.336 91.9581 111.891L108.794 63.2143C111.941 55.3526 112.985 49.0652 112.985 43.4721ZM48.6802 117.123L65.2173 69.0696L82.1614 115.486C82.2687 115.75 82.4 116.004 82.5537 116.245C76.8242 118.258 70.6689 119.369 64.2504 119.369C58.9796 119.369 53.736 118.613 48.6802 117.123Z" fill="#00749A"/>
<path fill-rule="evenodd" clip-rule="evenodd" d="M0 64.2483C0 28.8215 28.8236 0 64.2504 0C99.6761 0 128.503 28.8215 128.504 64.2483C128.504 99.6803 99.6761 128.501 64.2504 128.501C28.8226 128.501 0 99.6792 0 64.2483ZM2.94602 64.2483C2.94602 98.0526 30.4482 125.555 64.2504 125.555C98.0505 125.555 125.552 98.0526 125.552 64.2483C125.552 30.4471 98.0515 2.94707 64.2504 2.94707C30.4471 2.94707 2.94602 30.4471 2.94602 64.2483Z" fill="#00749A"/>
</g>
</svg>
