<svg width="143" height="74" viewBox="0 0 143 74" fill="none" xmlns="http://www.w3.org/2000/svg">
<path d="M71.9473 74C111.159 74 142.947 57.4345 142.947 37C142.947 16.5655 111.159 0 71.9473 0C32.7351 0 0.947266 16.5655 0.947266 37C0.947266 57.4345 32.7351 74 71.9473 74Z" fill="#8993BE"/>
<path fill-rule="evenodd" clip-rule="evenodd" d="M64.5299 9L56.7197 48.7058H65.9948L70.388 26.6468H77.7104C81.1269 26.6468 81.1269 28.1174 80.6391 30.5686L77.2221 48.7058H86.9849L90.402 28.6077C91.3781 23.7052 88.4493 19.784 80.6386 19.2937H71.8523L73.805 9H64.5299ZM20.9473 59L28.758 19.2937H46.8188C54.629 19.784 58.5343 23.7052 58.5343 30.5686C58.5343 42.3333 49.2598 49.1961 40.9607 48.7058H32.1751L30.2224 59H20.9473ZM34.1272 41.3532L36.5682 26.6468H42.914C46.331 26.6468 48.7715 28.1173 48.7715 31.0584C48.2837 39.3923 44.3783 40.8628 39.9852 41.3532H34.1277H34.1272ZM86.3596 59L94.1698 19.2937H112.231C120.042 19.784 123.947 23.7052 123.947 30.5686C123.947 42.3333 114.672 49.1961 106.374 48.7058H97.5869L95.6342 59H86.3596ZM101.98 26.6468L99.539 41.3532H99.5396H105.398C109.791 40.8628 113.696 39.3923 114.184 31.0584C114.184 28.1173 111.743 26.6468 108.326 26.6468H101.98Z" fill="#232531"/>
</svg>
