<svg width="133" height="132" viewBox="0 0 133 132" fill="none" xmlns="http://www.w3.org/2000/svg">
<path d="M53.9291 131.201C42.361 128.839 31.5816 123.459 23.1685 115.98C1.47835 96.7565 -5.29161 66.5112 6.21074 39.5463C9.03704 32.9199 13.638 26.2279 19.2906 20.3888L24.2859 15.2713L24.6145 45.3198C24.9431 74.1218 25.0089 75.5651 26.3892 79.1736C29.1497 86.4561 32.0417 91.0486 37.1028 96.0349C50.1169 108.96 69.1779 112.174 85.4127 104.236C100.661 96.7565 110.258 80.4201 109.14 63.8869C108.417 52.7991 104.671 44.6637 96.5864 36.594C90.4737 30.4924 83.3094 26.4903 75.5535 24.8501C67.6004 23.2099 67.9948 22.9475 67.9948 29.6395V35.413L72.3328 36.2003C89.1591 39.2839 100.333 55.8171 96.8493 72.4816C95.7319 77.7958 93.2343 82.5196 89.2249 86.8497C83.1122 93.4105 74.5019 96.5597 67.0089 96.5597C54.5864 96.5597 44.2671 89.474 39.2061 79.108C39.2061 79.108 37.8915 76.1556 37.4971 74.3186C34.9995 63.4933 36.577 40.7929 36.577 40.7929L36.3798 7.52959L38.3516 6.54547C39.4032 5.955 40.4549 5.56135 40.6521 5.56135C40.8493 5.56135 41.0464 20.848 41.1779 39.5463C41.1779 39.5463 38.8117 64.0181 41.7694 73.4001C42.1638 74.7778 43.0183 77.0741 43.0183 77.0741C45.5817 82.3228 49.7225 86.9809 55.1122 89.5396C59.1873 91.4423 61.2906 92.3608 67.3375 92.3608C71.2812 92.3608 74.7648 91.1143 78.8399 89.2772C83.5723 87.1122 89.0277 81.3386 91.0652 76.0244C96.5864 61.4594 88.8962 45.8447 73.976 41.449C67.8634 39.6775 67.9948 39.5463 67.9948 46.1727V51.9462L70.8868 52.7335C81.4033 55.5547 84.6239 69.6604 76.3422 76.8773C73.4502 79.436 70.8211 80.5514 66.2202 80.5514C61.2906 80.5514 56.5582 77.599 54.1263 73.0064C52.6802 70.2509 52.5488 67.6922 52.5488 66.5112C52.5488 55.5547 52.2859 35.7411 52.2859 35.7411L52.0887 1.82169L53.6004 1.42805C54.4549 1.23122 57.807 0.706358 61.0934 0.31271C72.2014 -1.13067 88.6333 2.54338 99.6756 8.84176C114.727 17.4364 126.098 32.1982 130.831 49.2563C132.474 55.0954 132.671 56.8668 132.671 66.2488C132.671 75.6307 132.474 77.4022 130.896 83.1757C124.455 106.401 108.023 122.934 84.5582 130.02C79.6286 131.529 77.3282 131.791 68.5864 131.988C61.5535 132.054 57.0183 131.857 53.9291 131.201Z" fill="#C60C30"/>
</svg>
