<svg width="30" height="30" viewBox="0 0 30 30" fill="none" xmlns="http://www.w3.org/2000/svg">
<rect width="30" height="30" rx="2" fill="#1B1B1B"/>
<path fill-rule="evenodd" clip-rule="evenodd" d="M21.3946 7C21.7728 7 22.1021 7.15554 22.322 7.43804C22.575 7.76296 22.659 8.22813 22.5588 8.74798L20.0623 21.6993C19.91 22.4894 19.3872 23 18.7306 23H18.7304C18.3944 22.9999 18.0504 22.8642 17.7352 22.6074L17.7277 22.6012L17.7008 22.5784L17.6998 22.5777L14.8644 20.179L12.9095 22.0701C12.5788 22.3898 12.201 22.5589 11.8169 22.5589C11.2077 22.5589 10.6846 22.1241 10.4516 21.424L8.74239 16.289L5.5819 15.3388L5.56707 15.3342C4.74228 15.0584 4.60728 14.5791 4.60028 14.318C4.59327 14.0568 4.70218 13.5703 5.51077 13.2461L20.7474 7.13534C20.9712 7.04545 21.189 7 21.3946 7ZM15.8972 12.8358L9.79968 16.1085L11.2404 20.4368L11.9725 17.3212C11.9942 17.2287 12.0383 17.1437 12.1005 17.0743L15.8972 12.8358ZM12.195 21.2549C12.1697 21.2793 12.1443 21.3011 12.1189 21.3211L12.7981 18.4309L14.0337 19.4762L12.195 21.2549ZM19.0286 21.4794L21.5251 8.52795C21.5693 8.2981 21.5336 8.17561 21.5056 8.13968C21.4843 8.11213 21.4269 8.10809 21.3946 8.10809C21.342 8.10809 21.2522 8.11891 21.1235 8.17056L5.89158 14.2795L9.09505 15.2424L18.1255 10.3954C18.3539 10.2727 18.6331 10.3406 18.7872 10.5561C18.9411 10.7717 18.9252 11.0722 18.7494 11.2684L13.2589 17.398L15.1706 19.0154C15.1712 19.0157 15.1717 19.0161 15.1721 19.0165L18.3851 21.7345C18.5104 21.8359 18.6329 21.8918 18.7304 21.8918C18.9278 21.8918 19.0046 21.6034 19.0286 21.4794Z" fill="white"/>
</svg>
