<svg width="148" height="147" viewBox="0 0 148 147" fill="none" xmlns="http://www.w3.org/2000/svg">
<path fill-rule="evenodd" clip-rule="evenodd" d="M140.354 83.2998H138.982L112.767 54.6935C112.302 54.1857 111.644 53.8976 110.954 53.8997H71.7545V48.9997C71.7545 47.6466 70.6576 46.5497 69.3045 46.5497H59.5045C58.1514 46.5497 57.0545 47.6466 57.0545 48.9997V63.6997H52.1545V40.214L57.0545 35.314L60.2223 38.4818C60.6817 38.9413 61.3047 39.1995 61.9545 39.1997H86.4545C87.4452 39.1995 88.3384 38.6025 88.7175 37.6872C89.0966 36.7718 88.8871 35.7182 88.1866 35.0175L72.7688 19.5996L77.6688 14.6996H81.5545V9.79958H76.6545C76.0047 9.79972 75.3817 10.0579 74.9223 10.5174L69.3045 16.1353L53.8866 0.717401C53.1859 0.0169241 52.1323 -0.192586 51.217 0.186538C50.3016 0.565662 49.7047 1.45878 49.7045 2.44956V26.9496C49.7046 27.5994 49.9628 28.2224 50.4223 28.6818L53.5902 31.8496L47.9723 37.4675C47.5128 37.9269 47.2546 38.5499 47.2545 39.1997V63.6997H42.3545V56.3497C42.3543 55.7 42.0961 55.0769 41.6366 54.6176L36.0188 48.9997L39.1866 45.8318C39.6461 45.3725 39.9043 44.7494 39.9045 44.0997V19.5996C39.9043 18.6088 39.3073 17.7157 38.392 17.3366C37.4766 16.9575 36.423 17.167 35.7223 17.8675L20.3045 33.2854L14.6866 27.6675C14.2273 27.208 13.6042 26.9498 12.9545 26.9496H8.05447V31.8496H11.9402L16.8402 36.7497L1.42232 52.1676C0.721843 52.8682 0.512334 53.9219 0.891457 54.8372C1.27058 55.7526 2.1637 56.3495 3.15447 56.3497H27.6545C28.3042 56.3496 28.9273 56.0914 29.3866 55.6319L32.5545 52.464L37.4545 57.364V63.6997H10.5045C9.15137 63.6997 8.05447 64.7966 8.05447 66.1497V83.2998C3.99517 83.2998 0.704468 86.5905 0.704468 90.6498V95.5498C0.716469 96.0298 0.872698 96.4951 1.15282 96.8851L1.11607 96.9096L10.9161 111.61C11.3706 112.291 12.1355 112.7 12.9545 112.7H30.1045V117.6H27.6545C19.5359 117.6 12.9545 124.181 12.9545 132.3C12.9545 140.419 19.5359 147 27.6545 147H47.2545C55.3731 147 61.9545 140.419 61.9545 132.3C61.9545 124.181 55.3731 117.6 47.2545 117.6H44.8045V112.7H103.604V117.6H101.154C93.0359 117.6 86.4545 124.181 86.4545 132.3C86.4545 140.419 93.0359 147 101.154 147H120.754C128.873 147 135.454 140.419 135.454 132.3C135.454 124.181 128.873 117.6 120.754 117.6H118.304V112.7H135.454C136.273 112.7 137.038 112.291 137.493 111.61L147.293 96.9096L147.256 96.8851C147.536 96.4951 147.692 96.0298 147.704 95.5498V90.6498C147.704 86.5905 144.414 83.2998 140.354 83.2998ZM54.6045 8.36387L80.5402 34.2997H62.9688L54.6045 25.9353V8.36387ZM26.6402 51.4497H9.06877L35.0045 25.5139V43.0854L26.6402 51.4497ZM109.879 58.7997L132.336 83.2998H71.7545V58.7997H109.879ZM61.9545 51.4497H66.8545V83.2998H61.9545V51.4497ZM12.9545 68.5998H57.0545V83.2998H12.9545V68.5998ZM5.60447 90.6498C5.60447 89.2967 6.70137 88.1998 8.05447 88.1998H140.354C141.708 88.1998 142.804 89.2967 142.804 90.6498V93.0998H5.60447V90.6498ZM57.0545 132.3C57.0545 137.712 52.6669 142.1 47.2545 142.1H27.6545C22.2421 142.1 17.8545 137.712 17.8545 132.3C17.8545 126.888 22.2421 122.5 27.6545 122.5H47.2545C52.6669 122.5 57.0545 126.888 57.0545 132.3ZM39.9045 117.6H35.0045V112.7H39.9045V117.6ZM130.554 132.3C130.554 137.712 126.167 142.1 120.754 142.1H101.154C95.7421 142.1 91.3545 137.712 91.3545 132.3C91.3545 126.888 95.7421 122.5 101.154 122.5H120.754C126.167 122.5 130.554 126.888 130.554 132.3ZM113.404 117.6H108.504V112.7H113.404V117.6ZM134.144 107.8H14.2652L7.73107 97.9998H140.678L134.144 107.8Z" fill="url(#paint0_linear)"/>
<defs>
<linearGradient id="paint0_linear" x1="0.704468" y1="0" x2="0.704468" y2="147" gradientUnits="userSpaceOnUse">
<stop stop-color="#EF0924"/>
<stop offset="1" stop-color="#A30000"/>
</linearGradient>
</defs>
</svg>
