<svg width="159" height="158" viewBox="0 0 159 158" fill="none" xmlns="http://www.w3.org/2000/svg">
<path fill-rule="evenodd" clip-rule="evenodd" d="M147.151 58.1165H107.195C106.153 53.144 103.896 48.51 100.627 44.6323C98.584 42.1546 95.2086 41.2385 92.2014 42.3455C89.0726 43.4567 86.9774 46.4242 86.968 49.7579C86.9379 51.5878 87.5596 53.3683 88.7212 54.7783C89.5484 55.7885 90.2269 56.9127 90.736 58.1165H67.0029C69.3316 54.3047 71.9564 50.6836 74.8529 47.2871C82.7029 37.325 85.712 20.7391 86.811 8.56908C86.9655 6.38274 86.207 4.23049 84.7177 2.62864C83.2505 0.98052 81.1619 0.0268581 78.961 0.000131551C74.8872 -0.0164731 71.4777 3.10022 71.111 7.17597C69.8812 21.0808 66.7674 32.0943 62.5545 37.4039C53.7102 48.4962 51.1197 53.4378 50.5179 58.0903H11.0847C5.30413 58.0903 0.618042 62.7976 0.618042 68.6043V147.486C0.618042 153.293 5.30413 158 11.0847 158H147.151C152.932 158 157.618 153.293 157.618 147.486V68.6306C157.618 62.8238 152.932 58.1165 147.151 58.1165ZM93.9545 47.3659C94.8826 47.0097 95.9334 47.2842 96.5712 48.0493C99.7114 51.781 101.711 56.3451 102.328 61.1919C102.541 62.3452 102.655 63.5149 102.668 64.6878C102.916 77.0775 93.9421 87.7142 81.7347 89.501V84.2439C91.0189 82.5044 97.6719 74.2507 97.4347 64.7667C97.4289 63.2549 97.2622 61.7481 96.9375 60.2719C96.2494 57.0688 94.7944 54.0825 92.6985 51.5715C92.1692 50.8951 92.0029 50.0013 92.2533 49.1786C92.5038 48.3558 93.1392 47.7082 93.9545 47.4448V47.3659ZM66.6104 40.7158C73.2305 32.3834 75.5332 16.4283 76.292 7.6491C76.4269 6.30093 77.5599 5.27665 78.9087 5.28344C79.6471 5.28519 80.3503 5.60023 80.845 6.15085C81.3234 6.68982 81.56 7.40274 81.4992 8.12223C80.0862 24.2876 76.2659 37.0359 70.6924 44.0014C64.36 51.887 62.0574 55.7246 61.2462 58.1165H55.7512C56.2745 55.2777 58.3679 51.0458 66.6104 40.7158ZM152.385 147.486C152.385 150.389 150.042 152.743 147.151 152.743H11.0847C8.19442 152.743 5.85138 150.389 5.85138 147.486V68.6306C5.85138 65.7272 8.19442 63.3736 11.0847 63.3736H92.2014C92.2274 63.8113 92.2274 64.2501 92.2014 64.6878C92.4128 71.2795 88.0765 77.1491 81.7347 78.8555V76.5161C81.7347 75.0644 80.5632 73.8876 79.118 73.8876C77.6729 73.8876 76.5014 75.0644 76.5014 76.5161V97.5442C76.5014 98.9959 77.6729 100.173 79.118 100.173C80.5632 100.173 81.7347 98.9959 81.7347 97.5442V94.9157C96.9077 93.1178 108.236 80.0314 107.901 64.6878C107.901 64.2147 107.901 63.8204 107.901 63.3736H147.151C150.042 63.3736 152.385 65.7272 152.385 68.6306V147.486Z" fill="url(#paint0_linear)"/>
<path fill-rule="evenodd" clip-rule="evenodd" d="M29.618 108H47.818C52.1259 108 55.618 104.45 55.618 100.071V78.9286C55.618 74.5497 52.1259 71 47.818 71H24.418C20.1102 71 16.618 74.5497 16.618 78.9286V100.071C16.618 104.45 20.1102 108 24.418 108H29.618ZM47.818 102.714H45.218V92.1429H50.418V100.071C50.418 101.531 49.254 102.714 47.818 102.714ZM50.418 78.9286V86.8571H45.218V76.2857H47.818C49.254 76.2857 50.418 77.469 50.418 78.9286ZM40.018 76.2857V102.714H32.218V76.2857H40.018ZM24.418 76.2857H27.018V86.8571H21.818V78.9286C21.818 77.469 22.9821 76.2857 24.418 76.2857ZM21.818 100.071V92.1429H27.018V102.714H24.418C22.9821 102.714 21.818 101.531 21.818 100.071Z" fill="url(#paint1_linear)"/>
<path fill-rule="evenodd" clip-rule="evenodd" d="M134.562 82.0008C130.452 82.0008 126.583 83.9272 124.117 87.2005C120.746 82.7243 114.876 80.8986 109.545 82.6679C104.214 84.4373 100.618 89.4047 100.618 94.9999C100.618 100.595 104.214 105.563 109.545 107.332C114.876 109.101 120.746 107.276 124.117 102.799C127.801 107.69 134.409 109.364 139.992 106.821C145.575 104.278 148.624 98.2058 147.318 92.2329C146.011 86.2601 140.701 82.0008 134.562 82.0008ZM113.673 102.799C109.347 102.799 105.84 99.3074 105.84 94.9999C105.84 90.6924 109.347 87.2005 113.673 87.2005C117.999 87.2005 121.506 90.6924 121.506 94.9999C121.506 99.3074 117.999 102.799 113.673 102.799ZM134.562 102.799C130.235 102.799 126.728 99.3074 126.728 94.9999C126.728 90.6924 130.235 87.2005 134.562 87.2005C138.888 87.2005 142.395 90.6924 142.395 94.9999C142.395 99.3074 138.888 102.799 134.562 102.799Z" fill="url(#paint2_linear)"/>
<path fill-rule="evenodd" clip-rule="evenodd" d="M19.618 115.5C19.618 116.881 20.8032 118 22.2651 118H61.971C63.4329 118 64.618 116.881 64.618 115.5C64.618 114.119 63.4329 113 61.971 113H22.2651C20.8032 113 19.618 114.119 19.618 115.5Z" fill="url(#paint3_linear)"/>
<path fill-rule="evenodd" clip-rule="evenodd" d="M136.971 127H97.2651C95.8032 127 94.618 128.119 94.618 129.5C94.618 130.881 95.8032 132 97.2651 132H136.971C138.433 132 139.618 130.881 139.618 129.5C139.618 128.119 138.433 127 136.971 127Z" fill="url(#paint4_linear)"/>
<path fill-rule="evenodd" clip-rule="evenodd" d="M61.971 140H22.2651C20.8032 140 19.618 141.119 19.618 142.5C19.618 143.881 20.8032 145 22.2651 145H61.971C63.4329 145 64.618 143.881 64.618 142.5C64.618 141.119 63.4329 140 61.971 140Z" fill="url(#paint5_linear)"/>
<path fill-rule="evenodd" clip-rule="evenodd" d="M137.003 140H74.2334C72.789 140 71.618 141.119 71.618 142.5C71.618 143.881 72.789 145 74.2334 145H137.003C138.447 145 139.618 143.881 139.618 142.5C139.618 141.119 138.447 140 137.003 140Z" fill="url(#paint6_linear)"/>
<path fill-rule="evenodd" clip-rule="evenodd" d="M19.618 129.5C19.618 130.881 20.789 132 22.2334 132H85.0027C86.4471 132 87.618 130.881 87.618 129.5C87.618 128.119 86.4471 127 85.0027 127H22.2334C20.789 127 19.618 128.119 19.618 129.5Z" fill="url(#paint7_linear)"/>
<defs>
<linearGradient id="paint0_linear" x1="0.618042" y1="0" x2="0.618042" y2="158" gradientUnits="userSpaceOnUse">
<stop stop-color="#EF0924"/>
<stop offset="1" stop-color="#A30000"/>
</linearGradient>
<linearGradient id="paint1_linear" x1="16.618" y1="71" x2="16.618" y2="108" gradientUnits="userSpaceOnUse">
<stop stop-color="#EF0924"/>
<stop offset="1" stop-color="#A30000"/>
</linearGradient>
<linearGradient id="paint2_linear" x1="100.618" y1="82" x2="100.618" y2="108" gradientUnits="userSpaceOnUse">
<stop stop-color="#EF0924"/>
<stop offset="1" stop-color="#A30000"/>
</linearGradient>
<linearGradient id="paint3_linear" x1="19.618" y1="113" x2="19.618" y2="118" gradientUnits="userSpaceOnUse">
<stop stop-color="#EF0924"/>
<stop offset="1" stop-color="#A30000"/>
</linearGradient>
<linearGradient id="paint4_linear" x1="94.618" y1="127" x2="94.618" y2="132" gradientUnits="userSpaceOnUse">
<stop stop-color="#EF0924"/>
<stop offset="1" stop-color="#A30000"/>
</linearGradient>
<linearGradient id="paint5_linear" x1="19.618" y1="140" x2="19.618" y2="145" gradientUnits="userSpaceOnUse">
<stop stop-color="#EF0924"/>
<stop offset="1" stop-color="#A30000"/>
</linearGradient>
<linearGradient id="paint6_linear" x1="71.618" y1="140" x2="71.618" y2="145" gradientUnits="userSpaceOnUse">
<stop stop-color="#EF0924"/>
<stop offset="1" stop-color="#A30000"/>
</linearGradient>
<linearGradient id="paint7_linear" x1="19.618" y1="127" x2="19.618" y2="132" gradientUnits="userSpaceOnUse">
<stop stop-color="#EF0924"/>
<stop offset="1" stop-color="#A30000"/>
</linearGradient>
</defs>
</svg>
