<svg width="153" height="152" viewBox="0 0 153 152" fill="none" xmlns="http://www.w3.org/2000/svg">
<path fill-rule="evenodd" clip-rule="evenodd" d="M48.029 89.7307C49.1067 91.3572 49.6751 93.2372 49.6751 95.1727C49.6751 100.624 45.2414 105.058 39.7891 105.058C37.8535 105.058 35.9733 104.489 34.3466 103.412L31.618 107.534C34.0557 109.147 36.8808 110 39.7891 110C47.9675 110 54.618 103.35 54.618 95.1727C54.618 92.2646 53.7649 89.4399 52.1514 87L48.029 89.7307Z" fill="url(#paint0_linear)"/>
<path fill-rule="evenodd" clip-rule="evenodd" d="M39.4469 85.9424C41.3826 85.9424 43.2652 86.5108 44.8871 87.5859L47.618 83.4664C45.1828 81.8531 42.3589 81 39.4469 81C31.2686 81 24.618 87.6499 24.618 95.8273C24.618 98.7354 25.4712 101.56 27.0847 104L31.2071 101.272C30.1294 99.6428 29.561 97.7628 29.561 95.8273C29.561 90.3757 33.9947 85.9424 39.4469 85.9424Z" fill="url(#paint1_linear)"/>
<path fill-rule="evenodd" clip-rule="evenodd" d="M88.618 103V118H98.618V113H93.618V103H88.618Z" fill="url(#paint2_linear)"/>
<path fill-rule="evenodd" clip-rule="evenodd" d="M90.6707 88C84.4709 88 78.4147 90.1603 73.618 94.0849L76.7245 97.878C80.0092 95.1878 84.0247 93.5263 88.2209 93.0538V97.799H93.1204V93.0443C103.324 94.1782 111.44 102.297 112.574 112.498H107.819V117.397H112.564C112.092 121.596 110.43 125.609 107.74 128.896L111.531 132C115.455 127.203 117.618 121.147 117.618 114.947C117.618 100.09 105.528 88 90.6707 88V88Z" fill="url(#paint3_linear)"/>
<path fill-rule="evenodd" clip-rule="evenodd" d="M93.0152 136.946V132.201H88.1157V136.956C77.9123 135.822 69.7963 127.703 68.6623 117.502H73.4171V112.603H68.6719C69.1444 108.404 70.8058 104.391 73.496 101.104L69.7054 98C65.7807 102.797 63.618 108.853 63.618 115.053C63.618 129.91 75.7078 142 90.5654 142C96.7652 142 102.821 139.84 107.618 135.915L104.512 132.122C101.227 134.812 97.2137 136.474 93.0152 136.946Z" fill="url(#paint4_linear)"/>
<path fill-rule="evenodd" clip-rule="evenodd" d="M137.908 112.923H133.005V44.5385H118.295V90.5416C116.798 88.9269 115.158 87.4518 113.392 86.1257V56.75H98.6826V79.4678C97.0869 79.1434 95.4421 78.9633 93.7793 78.8524V68.9615H79.0697V80.8678C76.6037 81.7395 74.2598 82.8653 72.0656 84.2164C71.5724 82.8557 71.0289 81.5201 70.3717 80.2453L74.2478 74.8372L60.9136 61.5488L55.4825 65.4126C53.8472 64.5802 52.139 63.8766 50.3733 63.3125L49.278 56.75H30.4121L29.3168 63.3125C27.5511 63.8766 25.8428 64.5802 24.2076 65.4126L18.7777 61.5488L5.44226 74.8372L9.31839 80.2453C8.48044 81.8719 7.77417 83.5736 7.20795 85.335L0.618042 86.431V105.223L7.20555 106.316C7.77177 108.078 8.48044 109.78 9.316 111.406L5.43987 116.813L18.7741 130.103L24.2052 126.239C25.8404 127.071 27.5487 127.775 29.3144 128.339L30.4097 134.904H49.2756L50.3709 128.341C52.1366 127.777 53.8449 127.074 55.4801 126.241L56.4605 126.939C61.3421 141.478 75.1133 152 91.3277 152C110.779 152 126.707 136.87 127.977 117.808H152.618V25H137.908V112.923ZM123.199 49.4231H128.102V112.923H127.977C127.597 107.216 125.912 101.867 123.199 97.1673V49.4231ZM103.586 61.6346H108.489V82.9905C106.922 82.1617 105.277 81.4688 103.586 80.8702V61.6346ZM83.9729 73.8462H88.8761V78.8548C87.2134 78.9657 85.5686 79.1458 83.9729 79.4713V73.8462ZM54.4434 121.247C52.3006 122.47 49.9891 123.422 47.5638 124.077L46.0459 124.487L45.1194 130.019H34.5659L33.6394 124.487L32.1215 124.077C29.6986 123.422 27.3847 122.47 25.2419 121.247L23.876 120.467L19.3044 123.723L11.8394 116.288L15.1075 111.729L14.3246 110.369C13.0988 108.239 12.1411 105.936 11.4839 103.518L11.0745 102.005L5.52127 101.085V90.569L11.0745 89.6484L11.4863 88.1363C12.1483 85.7154 13.1012 83.4103 14.327 81.2852L15.1099 79.9245L11.8418 75.3654L19.3068 67.9312L23.8784 71.1868L25.2443 70.4069C27.3871 69.1833 29.6986 68.2317 32.1239 67.577L33.6418 67.1668L34.5683 61.6346H45.1218L46.0483 67.1668L47.5662 67.577C49.9891 68.2317 52.303 69.1833 54.4458 70.4069L55.8117 71.1868L60.3833 67.9312L67.8483 75.3654L64.5802 79.9245L65.3631 81.2852C66.4213 83.1217 67.2354 85.112 67.8758 87.1739C66.4417 88.3605 65.1249 89.677 63.8871 91.0616C61.6534 79.8684 51.7248 71.4038 39.8438 71.4038C26.3253 71.4038 15.3277 82.3596 15.3277 95.8269C15.3277 109.294 26.3253 120.25 39.8438 120.25C45.1984 120.25 50.3494 118.446 54.5559 115.3C54.5559 115.321 54.5535 115.344 54.5535 115.365C54.5535 117.258 54.7427 119.102 55.0216 120.917L54.4434 121.247ZM59.3957 97.2651C57.5498 100.487 56.1672 103.999 55.3675 107.733C51.665 112.513 45.907 115.365 39.8438 115.365C29.0295 115.365 20.2309 106.6 20.2309 95.8269C20.2309 85.0536 29.0295 76.2885 39.8438 76.2885C50.6582 76.2885 59.4568 85.0536 59.4568 95.8269C59.4568 96.3135 59.4292 96.7893 59.3957 97.2651ZM91.3277 147.115C73.7546 147.115 59.4568 132.872 59.4568 115.365C59.4568 97.859 73.7546 83.6154 91.3277 83.6154C108.901 83.6154 123.199 97.859 123.199 115.365C123.199 132.872 108.901 147.115 91.3277 147.115ZM142.812 29.8846H147.715V112.923H142.812V29.8846Z" fill="url(#paint5_linear)"/>
<path fill-rule="evenodd" clip-rule="evenodd" d="M137.908 0V4.88H143.177L125.832 18.6908L118.295 11.1897L106.736 22.6939C105.778 22.2352 104.718 21.96 103.586 21.96C99.5313 21.96 96.2309 25.2447 96.2309 29.28C96.2309 30.5417 96.5841 31.7129 97.1503 32.7494L84.3356 46.9212C83.4677 46.5625 82.5196 46.36 81.5213 46.36C81.4746 46.36 81.4327 46.3719 81.386 46.3743L71.5281 20.2086C73.1274 18.8659 74.1664 16.8822 74.1664 14.64C74.1664 10.6047 70.8661 7.32 66.8116 7.32C62.7571 7.32 59.4568 10.6047 59.4568 14.64C59.4568 15.1666 59.5178 15.6789 59.6255 16.1769L39.5278 28.4841C38.2673 27.4714 36.6836 26.84 34.9406 26.84C31.7492 26.84 29.0522 28.8868 28.0371 31.72H14.8764C13.8613 28.8868 11.1643 26.84 7.97288 26.84C3.91838 26.84 0.618042 30.1247 0.618042 34.16C0.618042 38.1953 3.91838 41.48 7.97288 41.48C11.1643 41.48 13.8613 39.4332 14.8764 36.6H28.0395C29.0546 39.4332 31.7516 41.48 34.943 41.48C38.9975 41.48 42.2979 38.1953 42.2979 34.16C42.2979 33.6334 42.2368 33.1211 42.1291 32.6231L62.2268 20.3159C63.4849 21.3286 65.0686 21.96 66.8116 21.96C66.8583 21.96 66.9002 21.9481 66.9469 21.9457L76.8048 48.109C75.2055 49.4541 74.1664 51.4378 74.1664 53.68C74.1664 57.7153 77.4668 61 81.5213 61C85.5758 61 88.8761 57.7153 88.8761 53.68C88.8761 52.4183 88.5254 51.2471 87.9567 50.2106L100.771 36.0388C101.639 36.3975 102.587 36.6 103.586 36.6C107.64 36.6 110.941 33.3153 110.941 29.28C110.941 28.1529 110.664 27.0985 110.203 26.1442L118.295 18.0903L125.468 25.2292L147.715 7.51777V14.64H152.618V0H137.908ZM7.97288 36.6C6.62018 36.6 5.52127 35.5039 5.52127 34.16C5.52127 32.8161 6.62018 31.72 7.97288 31.72C9.32558 31.72 10.4245 32.8161 10.4245 34.16C10.4245 35.5039 9.32558 36.6 7.97288 36.6ZM34.9406 36.6C33.5879 36.6 32.489 35.5039 32.489 34.16C32.489 32.8161 33.5879 31.72 34.9406 31.72C36.2933 31.72 37.3922 32.8161 37.3922 34.16C37.3922 35.5039 36.2933 36.6 34.9406 36.6ZM64.36 14.64C64.36 13.2961 65.4589 12.2 66.8116 12.2C68.1643 12.2 69.2632 13.2961 69.2632 14.64C69.2632 15.9839 68.1643 17.08 66.8116 17.08C65.4589 17.08 64.36 15.9839 64.36 14.64ZM81.5213 56.12C80.1686 56.12 79.0697 55.0239 79.0697 53.68C79.0697 52.3361 80.1686 51.24 81.5213 51.24C82.874 51.24 83.9729 52.3361 83.9729 53.68C83.9729 55.0239 82.874 56.12 81.5213 56.12ZM103.586 31.72C102.233 31.72 101.134 30.6239 101.134 29.28C101.134 27.9361 102.233 26.84 103.586 26.84C104.938 26.84 106.037 27.9361 106.037 29.28C106.037 30.6239 104.938 31.72 103.586 31.72Z" fill="url(#paint6_linear)"/>
<defs>
<linearGradient id="paint0_linear" x1="31.618" y1="87" x2="31.618" y2="110" gradientUnits="userSpaceOnUse">
<stop stop-color="#EF0924"/>
<stop offset="1" stop-color="#A30000"/>
</linearGradient>
<linearGradient id="paint1_linear" x1="24.618" y1="81" x2="24.618" y2="104" gradientUnits="userSpaceOnUse">
<stop stop-color="#EF0924"/>
<stop offset="1" stop-color="#A30000"/>
</linearGradient>
<linearGradient id="paint2_linear" x1="88.618" y1="103" x2="88.618" y2="118" gradientUnits="userSpaceOnUse">
<stop stop-color="#EF0924"/>
<stop offset="1" stop-color="#A30000"/>
</linearGradient>
<linearGradient id="paint3_linear" x1="73.618" y1="88" x2="73.618" y2="132" gradientUnits="userSpaceOnUse">
<stop stop-color="#EF0924"/>
<stop offset="1" stop-color="#A30000"/>
</linearGradient>
<linearGradient id="paint4_linear" x1="63.618" y1="98" x2="63.618" y2="142" gradientUnits="userSpaceOnUse">
<stop stop-color="#EF0924"/>
<stop offset="1" stop-color="#A30000"/>
</linearGradient>
<linearGradient id="paint5_linear" x1="0.618042" y1="25" x2="0.618042" y2="152" gradientUnits="userSpaceOnUse">
<stop stop-color="#EF0924"/>
<stop offset="1" stop-color="#A30000"/>
</linearGradient>
<linearGradient id="paint6_linear" x1="0.618042" y1="0" x2="0.618042" y2="61" gradientUnits="userSpaceOnUse">
<stop stop-color="#EF0924"/>
<stop offset="1" stop-color="#A30000"/>
</linearGradient>
</defs>
</svg>
