<svg width="30" height="30" viewBox="0 0 30 30" fill="none" xmlns="http://www.w3.org/2000/svg">
<path fill-rule="evenodd" clip-rule="evenodd" d="M27.8364 0H2.16362C0.968628 0 0 0.968628 0 2.16362V27.8364C0 29.0314 0.968628 30 2.16362 30H27.8364C29.0314 30 30 29.0314 30 27.8364V2.16362C30 0.968628 29.0314 0 27.8364 0ZM15.3179 23.7334H15.3143C13.8116 23.7328 12.3351 23.356 11.0239 22.641L6.26472 23.8891L7.53845 19.2382C6.7527 17.8773 6.33934 16.3332 6.34003 14.7514C6.34209 9.80301 10.3695 5.77721 15.3179 5.77721C17.7193 5.77812 19.9736 6.71288 21.6685 8.40912C23.3636 10.1056 24.2965 12.3605 24.2956 14.7585C24.2935 19.7072 20.2657 23.7334 15.3179 23.7334ZM15.5032 7C11.3663 7 8.00184 10.363 8 14.4968C7.99954 15.9134 8.39614 17.2929 9.14679 18.4866L9.32507 18.7702L8.5673 21.5369L11.4058 20.7925L11.6798 20.9549C12.8312 21.6381 14.1512 21.9995 15.497 22H15.5C19.6337 22 22.9982 18.6368 23 14.5028C23.0007 12.4993 22.2213 10.6158 20.8053 9.19872C19.3894 7.78168 17.5062 7.00069 15.5032 7ZM19.9146 17.7201C19.7267 18.2464 18.826 18.727 18.3928 18.7919C18.0043 18.8498 17.5129 18.874 16.9728 18.7026C16.6452 18.5986 16.2253 18.4599 15.6873 18.2278C13.5739 17.3155 12.1455 15.2679 11.8754 14.8806C11.8564 14.8534 11.8432 14.8344 11.8358 14.8246L11.8338 14.822C11.714 14.6621 10.9152 13.5961 10.9152 12.4929C10.9152 11.4545 11.4256 10.9102 11.6603 10.6599C11.6763 10.6429 11.691 10.6272 11.7042 10.6128C11.911 10.3871 12.1553 10.3308 12.3056 10.3308C12.4558 10.3308 12.6062 10.3321 12.7376 10.3386C12.7538 10.3394 12.7707 10.3393 12.7881 10.3392C12.9196 10.3384 13.0834 10.3374 13.2448 10.7255C13.3071 10.875 13.3982 11.0967 13.4943 11.3304L13.4943 11.3305L13.4943 11.3306C13.6883 11.8025 13.9024 12.3234 13.9401 12.3988C13.9964 12.5118 14.0339 12.6433 13.9589 12.7938C13.8837 12.9442 13.529 13.3974 13.3953 13.5647C13.3846 13.5779 13.3736 13.5911 13.3626 13.6042C13.2707 13.7138 13.1789 13.8232 13.2964 14.0247C13.4277 14.2502 13.8805 14.9884 14.5506 15.586C15.2707 16.228 15.8966 16.4995 16.2142 16.6373L16.2142 16.6373C16.2765 16.6643 16.3269 16.6862 16.3638 16.7047C16.589 16.8174 16.7206 16.7986 16.8522 16.6483C16.9836 16.4979 17.4158 15.9902 17.5661 15.7645C17.7163 15.5389 17.8667 15.5766 18.0733 15.6518C18.2801 15.7268 19.3885 16.2722 19.6139 16.3849C19.6581 16.4071 19.6993 16.427 19.7375 16.4455C19.8946 16.5214 20.0006 16.5727 20.046 16.6483C20.1026 16.7424 20.1026 17.1935 19.9146 17.7201Z" fill="#1B1B1B"/>
</svg>
