<svg width="60" height="71" viewBox="0 0 60 71" fill="none" xmlns="http://www.w3.org/2000/svg">
<path d="M53.2151 0.362308C52.3194 0.362308 51.426 0.359952 50.5312 0.359952C48.409 0.355241 46.4508 1.97846 44.9532 3.26548C43.4949 4.51882 42.2455 6.03791 41.0527 7.54615C40.6249 6.37244 40.0625 5.21947 39.479 4.16661C38.714 2.6652 37.2138 1.2175 35.5343 0.867649C34.6838 0.6886 33.7306 0.776004 32.8674 0.776004C32.1182 0.773648 29.992 0.776004 29.992 0.776004C29.992 0.776004 27.8628 0.773648 27.115 0.776004C26.2504 0.776004 25.2998 0.688836 24.4481 0.867649C22.7684 1.2175 21.2684 2.6652 20.5043 4.16661C19.9201 5.21947 19.357 6.37244 18.9301 7.54639C17.7376 6.03791 16.4875 4.51906 15.0292 3.26548C13.5309 1.97822 11.5745 0.355241 9.45046 0.359952C8.55593 0.359952 7.66116 0.362308 6.76662 0.362308C5.48831 0.364193 4.21165 0.365842 2.9324 0.368198C2.00182 0.372439 -0.0595962 0.127425 0.428075 1.6425C0.546341 2.00955 0.962864 2.33891 1.19893 2.64376C1.4682 2.99338 1.73725 3.34582 1.97025 3.72088C2.34292 4.31883 2.70345 4.92426 3.0516 5.53681C3.8896 7.01584 4.5959 8.57615 5.428 10.0627C7.25924 13.3421 9.21794 16.5462 11.5847 19.4722C13.3328 21.6302 15.4436 23.8094 18.0556 24.8804C16.0837 28.5452 14.1199 32.2155 12.1546 35.8831C10.452 39.0554 8.75053 42.2109 6.95604 45.3322C6.86981 45.4844 6.78005 45.6337 6.69924 45.7866C6.46365 46.231 6.12676 46.8517 6.12912 47.3627C6.131 48.3762 7.63454 48.4064 8.35473 48.4111C9.13077 48.4158 9.90916 48.3946 10.6857 48.3868C12.0356 48.3715 13.3855 48.3539 14.7347 48.3402C15.5339 48.3312 16.3459 48.3626 17.1415 48.2865C19.1657 48.0917 21.017 47.0796 22.2114 45.4217C22.5985 44.8825 26.2282 38.9296 27.6969 36.5247C28.2517 35.6141 29.992 32.8928 29.992 32.8928C29.992 32.8928 31.73 35.6141 32.286 36.5247C33.7537 38.9296 37.3841 44.8824 37.771 45.4219C38.9666 47.0796 40.8162 48.0917 42.8409 48.2865C43.6372 48.3626 44.4478 48.3312 45.2469 48.3402C46.5955 48.3539 47.9459 48.3715 49.2967 48.3868C50.0732 48.3944 50.8512 48.4158 51.6284 48.4111C52.3464 48.4064 53.8526 48.3762 53.8538 47.3627C53.8568 46.8517 53.5209 46.231 53.282 45.7866C53.2005 45.6337 53.1119 45.4844 53.0259 45.3322C51.233 42.2109 49.5309 39.0554 47.8295 35.8831C45.8618 32.2155 43.898 28.5452 41.9244 24.8804C44.5376 23.8092 46.6487 21.6304 48.3965 19.4722C50.7654 16.5462 52.722 13.3421 54.5544 10.0627C55.3853 8.57615 56.0916 7.01584 56.9315 5.53704C57.2791 4.92416 57.6396 4.31864 58.0126 3.72088C58.2444 3.34558 58.5144 2.99338 58.7828 2.644C59.0212 2.33891 59.4349 2.00955 59.5548 1.6425C60.041 0.127661 57.9825 0.372439 57.0519 0.368198C55.7717 0.365842 54.4934 0.364193 53.2153 0.362308H53.2151Z" fill="#F9C638"/>
<path fill-rule="evenodd" clip-rule="evenodd" d="M34.8348 8.7307C34.6994 8.75771 34.5632 8.78096 34.4265 8.80044C34.1078 8.84402 33.7259 8.88595 33.7341 8.82211C33.8104 7.99307 33.9261 7.58244 34.0847 7.60647C34.6677 7.65193 35.55 7.65853 36.7351 7.63662C36.6922 7.7252 36.5668 7.86915 36.4005 7.99613C36.1828 8.17 35.8801 8.39923 35.3891 8.5705C35.2086 8.63758 35.0233 8.69113 34.8348 8.7307ZM28.4211 14.386C28.4211 14.3635 28.4293 14.3417 28.4442 14.3248C28.4603 14.3062 28.4831 14.2949 28.5076 14.2934C28.5321 14.2919 28.5562 14.3003 28.5745 14.3168L28.5856 14.3263C28.6329 14.3669 28.6815 14.4086 28.7339 14.444C28.7356 14.444 28.7368 14.444 28.7368 14.4447C29.052 14.6631 29.4457 14.7781 29.9011 14.7856C30.3656 14.7781 30.735 14.6702 31.0696 14.444H31.0712C31.13 14.4045 31.1866 14.362 31.2409 14.3165C31.3016 14.273 31.3594 14.2836 31.3923 14.3196C31.4249 14.358 31.4041 14.4157 31.3594 14.4534C31.2974 14.5097 31.2326 14.5545 31.1699 14.5945C30.8057 14.8419 30.4057 14.9604 29.9011 14.9675C29.4054 14.9604 28.9811 14.8341 28.6359 14.5948C28.5702 14.5543 28.5136 14.5049 28.4588 14.457L28.4588 14.457L28.4548 14.4534C28.4344 14.4368 28.4222 14.4123 28.4211 14.386ZM33.6363 13.5341C33.6334 13.5301 33.6307 13.5214 33.6285 13.5143L33.6272 13.5101C33.6298 13.5167 33.6343 13.5276 33.6387 13.5346L33.6363 13.5341ZM33.625 13.5045L33.6272 13.5101C33.6263 13.5075 33.6256 13.5055 33.625 13.5045ZM35.9743 9.62901C36.1374 9.74892 36.2891 9.94776 36.4271 10.2217V10.2215C36.5628 10.4936 36.6519 10.8223 36.6816 11.1234C36.7351 11.6692 36.6036 12.2276 36.4625 12.7496C36.3515 13.1551 36.1828 13.6496 35.7814 13.8663C35.4332 14.051 34.9988 13.9926 34.6265 13.916C34.2512 13.8397 33.8623 13.7271 33.5925 13.4401C33.3671 13.2057 33.2561 12.8735 33.2332 12.5531C33.1878 11.8445 33.3937 11.1149 33.6691 10.4717C33.7925 10.1874 33.9541 9.92231 34.1756 9.70439C34.6508 9.23793 35.4492 9.24075 35.9743 9.62901Z" fill="#2A2D2C"/>
<path fill-rule="evenodd" clip-rule="evenodd" d="M35.6907 11.3818C35.6049 11.3884 35.4108 11.4442 35.1135 11.5438V11.5441C34.9724 11.6018 34.8944 11.9104 34.8862 12.4817C34.8635 12.3949 34.8369 12.2402 34.7984 12.0157C34.7849 11.937 34.7699 11.8496 34.753 11.7535C34.716 11.5095 34.486 11.3916 34.0615 11.4177C34.1235 11.4092 34.1923 11.3887 34.2609 11.3684C34.2718 11.3651 34.2828 11.3619 34.2936 11.3587L34.5438 11.2797C34.6152 11.2484 34.6748 11.1782 34.7464 11.0771C34.8555 10.9148 34.9099 10.6005 34.9335 10.1082L35.012 10.8743C35.0508 11.2418 35.2685 11.4131 35.6907 11.3818ZM34.0062 11.4218C34.025 11.4202 34.0435 11.4188 34.0615 11.4177C34.0424 11.4203 34.0239 11.4218 34.0062 11.4218ZM35.6287 12.2084L35.6754 12.6824H35.6751C35.6985 12.8987 35.8326 13.009 36.0805 12.9974C36.0212 13.0035 35.91 13.0412 35.7449 13.0978C35.6521 13.1303 35.6049 13.3157 35.6049 13.6674C35.5892 13.6048 35.5571 13.4495 35.526 13.2224C35.4963 13.072 35.3497 13.002 35.0904 13.0177C35.1206 13.0136 35.1524 13.0046 35.185 12.9953C35.2024 12.9903 35.2201 12.9853 35.2379 12.9809L35.3854 12.9362C35.4332 12.9107 35.4805 12.8648 35.5189 12.8087C35.5821 12.7067 35.6127 12.5123 35.6287 12.2084ZM35.0586 13.02C35.0694 13.0191 35.08 13.0184 35.0904 13.0177C35.0796 13.0192 35.069 13.02 35.0586 13.02ZM36.0959 12.9965C36.0907 12.9968 36.0856 12.9971 36.0805 12.9974C36.0861 12.9968 36.0912 12.9965 36.0959 12.9965Z" fill="white"/>
<path fill-rule="evenodd" clip-rule="evenodd" d="M26.057 8.82237C25.9762 7.9931 25.8614 7.58246 25.7045 7.60673C25.1198 7.65196 24.2392 7.65856 23.0525 7.63665C23.0949 7.72523 23.2231 7.86918 23.3866 7.99616C23.6061 8.17026 23.9058 8.39902 24.3987 8.57029C24.5792 8.63682 24.7642 8.69044 24.9523 8.73073C24.9912 8.74015 25.1646 8.77078 25.3617 8.80046C25.6793 8.84405 26.061 8.88598 26.0567 8.82237H26.057ZM26.1507 13.5346C26.1554 13.524 26.1632 13.5045 26.1632 13.5045C26.1604 13.5146 26.1568 13.5245 26.1526 13.5342C26.1526 13.5342 26.152 13.5342 26.1515 13.5343C26.1511 13.5343 26.1507 13.5344 26.1507 13.5346ZM23.3262 12.7499C23.1835 12.2276 23.0525 11.6692 23.1069 11.1234H23.1067C23.1371 10.8097 23.2243 10.5041 23.3639 10.2215C23.4999 9.94779 23.6502 9.74895 23.8137 9.62903C24.3414 9.24055 25.1386 9.23772 25.6112 9.70466C25.8343 9.92234 25.9962 10.1874 26.1178 10.4717C26.395 11.1151 26.6005 11.8445 26.555 12.5532C26.5319 12.8738 26.421 13.206 26.1957 13.4402C25.9253 13.7271 25.5351 13.8397 25.1605 13.9158C24.7911 13.9926 24.3555 14.0511 24.0062 13.8664C23.6042 13.6498 23.4356 13.1551 23.3262 12.7499Z" fill="#2A2D2C"/>
<path fill-rule="evenodd" clip-rule="evenodd" d="M6.85541 45.9156L6.87522 45.8781C6.94261 45.755 7.01434 45.6306 7.08676 45.505C7.10042 45.4813 7.11409 45.4576 7.12777 45.4338C8.3109 43.3747 9.45399 41.2985 10.5825 39.2159C11.0138 38.6003 11.5161 37.8876 12.1067 37.0513C13.6642 34.8475 15.1562 32.9548 16.5636 31.3721C17.7232 30.0875 18.3873 29.3934 18.5266 29.2511C19.1332 28.7512 20.1837 27.8093 21.6745 26.4509C24.8225 23.5472 29.718 21.022 36.3805 18.8449C43.2878 16.5912 48.2165 14.2836 51.1174 11.9461C53.3232 10.1631 55.0206 8.34839 56.1802 6.50537C55.9567 6.93161 55.7394 7.36028 55.5224 7.78812C55.1504 8.52184 54.7795 9.25311 54.3815 9.96548C52.5519 13.2409 50.6021 16.4336 48.242 19.3483C46.5029 21.4948 44.4096 23.6493 41.85 24.6957C41.7976 24.7168 41.7571 24.7596 41.739 24.8131C41.7193 24.8659 41.7234 24.9247 41.7503 24.9742C42.9858 27.2678 44.2169 29.5652 45.4479 31.8623C46.1832 33.2344 46.9185 34.6065 47.6547 35.9777C49.3551 39.1499 51.0599 42.3089 52.8541 45.4335L52.8745 45.4688C52.9543 45.6069 53.0333 45.7435 53.1067 45.8812L53.1107 45.8886C53.2283 46.1075 53.367 46.3656 53.4735 46.6221C53.5805 46.8827 53.6549 47.1458 53.6549 47.3571V47.363C53.6514 47.5652 53.5845 47.6947 53.4667 47.8102C53.2914 47.9803 52.9679 48.0941 52.6157 48.1478C52.2645 48.2057 51.8934 48.2104 51.6272 48.2121C51.5476 48.214 51.4672 48.214 51.3888 48.214C50.9755 48.214 50.5611 48.207 50.1458 48.2001C49.8641 48.1954 49.582 48.1906 49.2995 48.1881C48.6054 48.1802 47.9116 48.1721 47.2181 48.1641C46.5616 48.1565 45.9054 48.1489 45.2498 48.1414C45.1789 48.1414 45.1082 48.1411 45.0377 48.1408C44.9676 48.1405 44.8977 48.1402 44.8281 48.1402C44.7444 48.1402 44.661 48.1405 44.5778 48.1408C44.4949 48.1411 44.4121 48.1414 44.3293 48.1414C43.8348 48.1414 43.3403 48.1343 42.8597 48.0877C40.8876 47.8988 39.0917 46.9149 37.9326 45.3033C37.8445 45.1848 37.542 44.7044 37.1259 44.0356C35.963 42.1677 33.8819 38.7574 32.7098 36.8366C32.6195 36.6887 32.5347 36.5497 32.456 36.4208C31.8982 35.5056 30.1586 32.7868 30.1579 32.7861C30.1225 32.7308 30.0594 32.6936 29.992 32.6936C29.9238 32.6942 29.8605 32.729 29.8233 32.7861L29.8187 32.7934C29.7202 32.9477 28.07 35.5327 27.5282 36.4208C27.3191 36.7628 27.0661 37.1772 26.7848 37.6378C26.0788 38.7941 25.1948 40.2418 24.3803 41.5682C23.8113 42.4972 23.2737 43.3665 22.8565 44.0358C22.4404 44.7044 22.1384 45.1848 22.0503 45.3033C20.8883 46.9149 19.0936 47.8988 17.1227 48.0877C16.6414 48.1343 16.1483 48.1414 15.6519 48.1414C15.5699 48.1414 15.4876 48.1411 15.405 48.1408C15.3217 48.1405 15.238 48.1402 15.1538 48.1402C15.084 48.1402 15.0141 48.1405 14.944 48.1408C14.8736 48.1411 14.8031 48.1414 14.7324 48.1414L10.6833 48.1881C10.4006 48.1906 10.1181 48.1954 9.83615 48.2001C9.42067 48.207 9.00615 48.214 8.59314 48.214C8.51445 48.214 8.43435 48.214 8.35472 48.2121C7.99875 48.2104 7.4576 48.1973 7.02741 48.0747C6.81444 48.0121 6.63256 47.923 6.51453 47.8102C6.39697 47.6947 6.32983 47.5654 6.32629 47.363V47.3595C6.32629 47.1482 6.40074 46.8843 6.51029 46.6247C6.61177 46.3772 6.74183 46.1308 6.85541 45.9156ZM24.6743 11.5439C24.3774 11.4443 24.1831 11.3884 24.0976 11.3818C24.519 11.4132 24.7384 11.2419 24.7763 10.8744L24.854 10.1082C24.8771 10.6006 24.9315 10.9149 25.043 11.0772C25.1127 11.1783 25.1747 11.2485 25.2432 11.2798L25.4939 11.3588L25.5357 11.371C25.6016 11.3904 25.6662 11.4095 25.7257 11.4177C25.3023 11.3919 25.072 11.5098 25.0354 11.7536L25.0044 11.9328L25.0044 11.933C24.9578 12.2027 24.9264 12.3847 24.9014 12.4818C24.8936 11.9105 24.8152 11.6019 24.6743 11.5442V11.5439ZM25.7825 11.4219C25.7632 11.4202 25.7443 11.4188 25.7257 11.4177C25.7452 11.4204 25.7642 11.4219 25.7825 11.4219ZM24.1124 12.6825L24.1602 12.2085C24.1755 12.5124 24.208 12.7068 24.27 12.8088C24.3082 12.8649 24.3555 12.9108 24.4015 12.9363L24.5496 12.981C24.5673 12.9854 24.5849 12.9904 24.6022 12.9953C24.635 13.0046 24.6671 13.0137 24.6976 13.0178C24.4362 13.0021 24.2905 13.0721 24.2618 13.2225C24.2304 13.4496 24.1981 13.6049 24.1831 13.6675C24.1831 13.3158 24.1355 13.1304 24.0427 13.0979C23.8789 13.0413 23.7667 13.0036 23.7066 12.9975C23.9546 13.009 24.0905 12.8988 24.1124 12.6825ZM23.6909 12.9966L23.7066 12.9975C23.7009 12.9969 23.6957 12.9966 23.6909 12.9966ZM24.7296 13.0201C24.7188 13.0192 24.7081 13.0185 24.6976 13.0178C24.7085 13.0193 24.7192 13.0201 24.7296 13.0201Z" fill="white"/>
<path fill-rule="evenodd" clip-rule="evenodd" d="M58.8548 0.083283C59.178 0.150426 59.5003 0.266101 59.7359 0.535851C59.8923 0.714664 59.983 0.962505 59.9795 1.22684C59.9795 1.39293 59.9482 1.56632 59.8893 1.75102C59.7995 2.01889 59.6339 2.22079 59.4761 2.40078C59.4157 2.46806 59.3553 2.53246 59.2983 2.59327C59.2047 2.69303 59.1202 2.78314 59.06 2.86042L59.0619 2.85806C58.7945 3.20697 58.5325 3.55093 58.3129 3.9062L58.3111 3.90926C57.9402 4.50179 57.5825 5.10246 57.2382 5.71082C56.8097 6.46487 56.4144 7.24543 56.0165 8.03122C55.6439 8.76708 55.269 9.50753 54.8623 10.2351C53.0251 13.5216 51.0582 16.7433 48.6705 19.694C46.9855 21.7708 44.9496 23.8847 42.4113 25.0391C43.7081 27.4508 45.0019 29.8638 46.2955 32.2765C46.9104 33.4234 47.5253 34.5702 48.1404 35.7167C49.8407 38.8887 51.5416 42.0414 53.3314 45.1568L53.3321 45.158C53.3552 45.1987 53.3787 45.2397 53.4024 45.281C53.4653 45.3908 53.5297 45.5031 53.5922 45.62L53.602 45.6382C53.719 45.8558 53.863 46.1233 53.983 46.4109C54.1041 46.7072 54.205 47.0234 54.2054 47.3556V47.3627C54.2101 47.7052 54.0643 48.0096 53.8492 48.2084C53.636 48.411 53.3733 48.526 53.1071 48.6033C52.5794 48.7536 52.0062 48.7591 51.6398 48.7627L51.63 48.7628C51.6087 48.7629 51.5873 48.763 51.5658 48.7631C51.4981 48.7635 51.4299 48.7639 51.3628 48.7639C50.9383 48.7639 50.5157 48.7573 50.095 48.7506C49.8267 48.7464 49.5592 48.7421 49.2924 48.7397C48.8071 48.7342 48.3219 48.7282 47.837 48.7223C46.9715 48.7116 46.1067 48.701 45.2429 48.693C45.1237 48.6918 45.0049 48.6911 44.8841 48.6911C44.79 48.6911 44.6957 48.6913 44.6009 48.6915C44.5053 48.6917 44.4093 48.6919 44.3128 48.6919C43.8183 48.6919 43.3129 48.686 42.8059 48.637C40.6873 48.4334 38.7423 47.3704 37.4847 45.6266C37.4251 45.5434 37.3275 45.3929 37.1867 45.1717C37.0472 44.9509 36.8674 44.664 36.6585 44.3275C36.2401 43.6554 35.7036 42.7854 35.1335 41.8572C34.0819 40.1424 33.0328 38.426 31.9862 36.7081C31.7099 36.2572 31.1369 35.3497 30.6328 34.556C30.5379 34.4067 30.4458 34.2617 30.3587 34.1246C30.2212 33.9081 30.0961 33.7112 29.992 33.5479C29.8847 33.7158 29.7553 33.9194 29.613 34.1432C29.5293 34.2748 29.4412 34.4135 29.3505 34.556C28.8465 35.3497 28.2724 36.2572 27.9975 36.7081C27.8712 36.9148 27.729 37.1478 27.5743 37.4012C26.1538 39.7279 23.6786 43.782 22.7956 45.1717C22.6541 45.3929 22.5572 45.5439 22.4964 45.6271C21.2405 47.3704 19.2948 48.4334 17.1749 48.637C16.6694 48.686 16.1635 48.6919 15.669 48.6919C15.5726 48.6919 15.4766 48.6917 15.3809 48.6915C15.2861 48.6913 15.1917 48.6911 15.0977 48.6911C14.9779 48.6912 14.8581 48.6918 14.7382 48.693C13.875 48.701 13.0111 48.7116 12.1463 48.7222C11.6609 48.7282 11.1751 48.7342 10.6891 48.7397C10.4228 48.7421 10.1556 48.7464 9.88748 48.7506C9.46656 48.7573 9.04358 48.7639 8.61902 48.7639C8.55269 48.7639 8.48489 48.7635 8.41734 48.7631C8.39539 48.763 8.37346 48.7629 8.35162 48.7628C8.07834 48.7613 7.6816 48.7566 7.27875 48.693C6.87706 48.624 6.45536 48.5095 6.1326 48.208C5.9208 48.0108 5.77686 47.7092 5.77804 47.3704H5.77733V47.3558C5.77851 47.0234 5.88028 46.7072 6.00043 46.4116C6.11431 46.1362 6.25108 45.8796 6.36373 45.6683C6.37203 45.6527 6.3802 45.6374 6.38822 45.6223C6.45308 45.4993 6.52031 45.3828 6.58519 45.2703C6.60703 45.2324 6.6286 45.195 6.64972 45.158L6.65019 45.1568C8.44138 42.0414 10.1421 38.8887 11.8435 35.7167C12.1948 35.0613 12.546 34.4057 12.8972 33.7501C14.4529 30.8464 16.0092 27.9416 17.5698 25.0389C15.0315 23.8847 12.9956 21.7708 11.3102 19.6933C8.92411 16.7433 6.95575 13.5216 5.12051 10.2351C4.71242 9.50552 4.33631 8.76299 3.96255 8.02512C3.56557 7.24139 3.17125 6.46292 2.74411 5.71082C2.39977 5.10188 2.04182 4.50074 1.67053 3.90785L1.66982 3.90738C1.44931 3.55022 1.18898 3.20697 0.920408 2.85995C0.859132 2.77982 0.770967 2.68604 0.673015 2.58186C0.619197 2.52462 0.562425 2.46424 0.505534 2.40125C0.348631 2.22126 0.182069 2.01889 0.0918381 1.74985C0.0341186 1.56609 0.00207835 1.39269 0.00207835 1.22684C-0.000748725 0.962505 0.090189 0.713722 0.245914 0.535851C0.402346 0.355861 0.601184 0.244191 0.808974 0.16998C1.22314 0.0241499 1.69244 0.00459592 2.12192 0.00341797C2.28454 0.00341797 2.44154 0.00713572 2.58421 0.010514C2.703 0.0133268 2.81185 0.0159042 2.90572 0.0159042H2.93164C3.57121 0.0147266 4.21001 0.0138433 4.84875 0.0129601C5.48785 0.0120764 6.12689 0.0111928 6.76657 0.0100145C7.21169 0.0100145 7.6574 0.0094259 8.10325 0.00883712C8.5494 0.00824795 8.9957 0.00765859 9.4417 0.00765859L9.46054 0.00695182C10.6119 0.00812977 11.6883 0.444442 12.661 1.02871C13.6328 1.61415 14.5088 2.35343 15.2589 2.9973C16.5921 4.14415 17.7396 5.49667 18.8234 6.85225C19.221 5.86018 19.6967 4.89639 20.1903 4.00656H20.1895C20.9993 2.42717 22.5462 0.912324 24.3755 0.522658C24.8453 0.424182 25.324 0.402507 25.7942 0.402507C26.0286 0.402507 26.2605 0.407891 26.4867 0.41314C26.7018 0.418133 26.9116 0.423004 27.1133 0.423004C27.3635 0.422532 27.7666 0.422532 28.1932 0.422532L29.9915 0.423004L31.7891 0.422532C32.2157 0.422532 32.6188 0.422532 32.8673 0.423004C33.0692 0.423004 33.2794 0.418134 33.4948 0.413142C33.7214 0.407892 33.9538 0.402507 34.1885 0.402507C34.6583 0.402507 35.1375 0.424182 35.6049 0.522187C37.431 0.911382 38.9753 2.42081 39.7862 3.99525C40.2825 4.88885 40.7589 5.85665 41.1582 6.85225C42.2426 5.49667 43.3902 4.14532 44.7234 2.9973C45.4742 2.35343 46.3499 1.61415 47.322 1.02871C48.2938 0.444442 49.3709 0.00812977 50.5218 0.00695182L50.5328 0.00765859H50.5312C50.9788 0.00765859 51.426 0.00824756 51.8732 0.00883654C52.3204 0.00942551 52.7676 0.0100145 53.2153 0.0100145C53.8548 0.0111934 54.4946 0.0120774 55.1346 0.0129616C55.7735 0.0138443 56.4126 0.0147273 57.0518 0.0159042H57.0785C57.1714 0.0159042 57.2795 0.013342 57.3976 0.0105388C57.5404 0.00715398 57.6979 0.00341797 57.8616 0.00341797C58.1843 0.00341797 58.5283 0.0163754 58.8548 0.083283ZM58.9497 1.93219C59.0885 1.77929 59.1886 1.63229 59.2183 1.53428C59.2595 1.40588 59.2749 1.30223 59.2749 1.22684C59.2725 1.1048 59.2459 1.05085 59.2006 0.994309C59.1545 0.938946 59.0671 0.880991 58.9361 0.833873C58.6753 0.737045 58.2616 0.706418 57.8616 0.708068C57.7147 0.708068 57.5697 0.711309 57.4319 0.714391C57.3069 0.717184 57.1878 0.719847 57.0785 0.719847H57.0511C56.4123 0.718671 55.7737 0.717789 55.1355 0.716907C54.495 0.716022 53.8548 0.715137 53.2152 0.713957C52.767 0.713957 52.3193 0.713545 51.8718 0.713132C51.4248 0.71272 50.978 0.712308 50.5312 0.712308H50.5218C49.5544 0.711601 48.5944 1.08525 47.6855 1.63229C46.7773 2.17815 45.928 2.89175 45.1819 3.53256C43.7556 4.75833 42.5185 6.25974 41.33 7.76516C41.2509 7.8656 41.1235 7.91513 40.9973 7.8945C40.871 7.87448 40.7653 7.78755 40.7217 7.66716C40.3021 6.51654 39.7485 5.37911 39.1708 4.33757L39.1649 4.32649C38.4454 2.90235 36.9914 1.52321 35.461 1.2127C35.0692 1.13001 34.6347 1.10716 34.1885 1.10716C33.9706 1.10716 33.7501 1.11244 33.5293 1.11773C33.3077 1.12304 33.0857 1.12836 32.8657 1.12836C32.6176 1.12765 32.2152 1.12765 31.7891 1.12765C30.9799 1.12765 30.0879 1.12829 29.9988 1.12835L29.9915 1.12836L29.9842 1.12835C29.895 1.12829 29.0023 1.12765 28.1932 1.12765C27.7671 1.12765 27.3635 1.12765 27.1149 1.12836C26.8954 1.12836 26.6737 1.12304 26.4525 1.11773C26.2319 1.11244 26.0117 1.10716 25.7942 1.10716C25.3471 1.10716 24.9143 1.13024 24.5202 1.2127C22.9898 1.52297 21.5369 2.90235 20.8181 4.32649L20.8115 4.33757C20.2338 5.37911 19.6786 6.51654 19.2601 7.66716C19.2166 7.78755 19.112 7.87448 18.9857 7.8945C18.8594 7.91571 18.7324 7.86553 18.6528 7.76516C17.4635 6.25974 16.2267 4.75904 14.7985 3.53256C14.0543 2.89175 13.205 2.17815 12.297 1.63229C11.3874 1.08525 10.4283 0.711601 9.46054 0.712308H9.45041C9.00382 0.712308 8.55659 0.71272 8.10926 0.713133C7.66176 0.713545 7.21416 0.713957 6.76704 0.713957C6.12771 0.715136 5.48885 0.716019 4.84993 0.716903C4.21136 0.717786 3.57274 0.718669 2.93352 0.719847H2.90572C2.79588 0.719847 2.67661 0.717181 2.55154 0.714385C2.41373 0.711305 2.26889 0.708068 2.12192 0.708068C1.82154 0.708068 1.51527 0.72291 1.2679 0.773562C1.01912 0.822093 0.847846 0.911146 0.781174 0.994309C0.736883 1.05109 0.709084 1.1048 0.706728 1.22684C0.706728 1.30246 0.722277 1.40471 0.764683 1.53428C0.792247 1.63229 0.894493 1.77859 1.03184 1.93102C1.07767 1.98223 1.12658 2.03409 1.17667 2.08721C1.27773 2.19438 1.38361 2.30666 1.47876 2.42905C1.74898 2.77937 2.02438 3.14077 2.2694 3.53562L2.26822 3.53444C2.64449 4.13605 3.00754 4.74582 3.35712 5.36333C3.798 6.14025 4.20022 6.93409 4.60007 7.72326C4.97112 8.45558 5.34013 9.18388 5.7361 9.89089C7.56192 13.1628 9.5112 16.3477 11.8584 19.2502C13.5923 21.3931 15.6707 23.5247 18.1896 24.5538C18.2818 24.592 18.3537 24.6672 18.3878 24.7611C18.421 24.8549 18.4132 24.9588 18.3661 25.0469C17.0779 27.4413 15.7936 29.8382 14.5093 32.2351C13.8281 33.5065 13.1468 34.7779 12.465 36.0489C10.7631 39.2223 9.05816 42.3813 7.26155 45.5079L7.26273 45.5055C7.23245 45.5591 7.20221 45.6117 7.17247 45.6634C7.11541 45.7626 7.0602 45.8586 7.01017 45.9524L7.00067 45.9703C6.88553 46.1874 6.75365 46.436 6.65255 46.6806C6.547 46.9303 6.48151 47.1782 6.48269 47.3558V47.3617C6.4874 47.5287 6.53051 47.6065 6.62004 47.6979C6.71097 47.7872 6.87047 47.8703 7.07095 47.9264C7.47122 48.0433 8.00248 48.0574 8.35586 48.0593H8.61902C9.03259 48.0593 9.44816 48.0527 9.8653 48.0461C10.1368 48.0418 10.4089 48.0375 10.6816 48.035C10.9324 48.032 11.1832 48.0289 11.434 48.0258C12.5329 48.0121 13.6316 47.9985 14.7307 47.9884C14.8539 47.986 14.9755 47.9853 15.0977 47.9853C15.1931 47.9853 15.2885 47.9856 15.3837 47.9859C15.4789 47.9862 15.574 47.9865 15.669 47.9865C16.1588 47.9865 16.6404 47.9799 17.1078 47.9351C19.037 47.7493 20.7927 46.7873 21.9244 45.2164C21.9624 45.1634 22.0634 45.0105 22.2001 44.7938C22.3769 44.5151 22.552 44.2354 22.7254 43.9546C23.1422 43.2848 23.6786 42.416 24.2481 41.4877C25.3864 39.6322 26.6624 37.5433 27.3953 36.341C27.9565 35.4222 29.6928 32.7052 29.6947 32.7028C29.7594 32.6018 29.8718 32.5403 29.992 32.5403C30.1122 32.5403 30.2241 32.6015 30.2888 32.7028C30.2889 32.7032 30.3374 32.7794 30.4208 32.9102C30.8368 33.5628 32.1198 35.5757 32.5863 36.341C32.7674 36.6374 32.9814 36.9878 33.2182 37.3754C34.6611 39.7379 36.9481 43.4823 37.7815 44.794C37.9189 45.0105 38.0195 45.1634 38.0572 45.2157C39.1908 46.7873 40.946 47.7493 42.874 47.9354C43.3419 47.9801 43.8242 47.9865 44.3128 47.9865C44.363 47.9865 44.4132 47.9864 44.4635 47.9863C44.6033 47.986 44.7434 47.9853 44.8841 47.9853C45.0062 47.9852 45.1283 47.9862 45.2504 47.9884C46.3462 47.9985 47.4414 48.0121 48.5375 48.0256C48.7917 48.0288 49.0459 48.0319 49.3002 48.035C49.5733 48.0375 49.8456 48.0418 50.1171 48.0461C50.534 48.0527 50.9492 48.0593 51.3626 48.0593H51.6264C51.8915 48.0569 52.2545 48.0503 52.5914 47.9966C52.9283 47.9455 53.2282 47.8331 53.3634 47.6981C53.453 47.6065 53.4968 47.5276 53.5015 47.3629V47.3558C53.5027 47.1782 53.436 46.9303 53.3314 46.6811C53.2306 46.4373 53.0984 46.1898 52.9825 45.9727L52.9716 45.9524C52.9247 45.867 52.8754 45.7803 52.8248 45.6914C52.7902 45.6306 52.755 45.5687 52.7196 45.5055L52.72 45.5079C50.9253 42.3813 49.2199 39.2223 47.5196 36.0501C46.8041 34.7173 46.0894 33.3842 45.3747 32.0512C44.1224 29.7154 42.8702 27.3799 41.6143 25.0466C41.5679 24.959 41.5597 24.8549 41.5931 24.7611C41.627 24.6673 41.6989 24.5921 41.791 24.554C44.3104 23.5247 46.3888 21.3931 48.1223 19.2504C50.472 16.3484 52.419 13.1628 54.2469 9.89042C54.6387 9.18944 55.0046 8.46741 55.3726 7.74123C55.7755 6.94619 56.1809 6.14617 56.6256 5.36333C56.9748 4.74536 57.3379 4.13534 57.7145 3.53373L57.7127 3.53609C57.953 3.14653 58.2254 2.79139 58.4899 2.44668L58.5031 2.42952L58.5054 2.42717C58.5972 2.31014 58.6987 2.20225 58.796 2.09886C58.8493 2.04221 58.9013 1.9869 58.9497 1.93219Z" fill="#2A2D2C"/>
<path d="M33.4976 51.9733C32.5387 52.476 32.1808 53.3246 32.1808 55.6687C32.1808 55.6687 32.6666 55.199 33.3871 54.9382C33.9117 54.7474 34.3603 54.4583 34.6199 54.2684C35.4303 53.6747 35.5552 52.9097 35.5552 51.6232C35.5552 51.6232 34.234 51.5874 33.4976 51.9733Z" fill="#F9C638"/>
<path fill-rule="evenodd" clip-rule="evenodd" d="M54.2054 51.7058L47.9143 61.0632H47.9145L54.189 70.3926C54.189 70.3926 51.4719 70.7412 50.1571 69.5444C49.3155 68.779 48.4533 67.5337 48.4533 67.5337L46.1386 64.1965C46.0265 64.0229 45.879 63.834 45.6448 63.834C45.4099 63.834 45.2629 64.0229 45.1508 64.1965L42.8356 67.5337C42.8356 67.5337 42.0212 68.7788 41.1797 69.5444C39.8653 70.7412 37.1 70.3926 37.1 70.3926L43.3749 61.0634L37.0832 51.7058C37.0832 51.7058 39.7383 51.2537 41.0534 52.4505C41.8949 53.2166 42.8356 54.5934 42.8356 54.5934L45.1508 57.9308C45.2629 58.1042 45.4099 58.2931 45.6448 58.2931C45.879 58.2931 46.0265 58.1042 46.1386 57.9308L48.4533 54.5934C48.4533 54.5934 49.3945 53.2166 50.2355 52.4505C51.5503 51.2537 54.2054 51.7058 54.2054 51.7058ZM27.8097 52.5226C27.0276 53.2119 26.7988 54.3107 26.7988 54.3107L24.2097 64.3428L22.0557 56.1325C21.846 55.2597 21.4679 54.1804 20.8699 53.4508C20.1076 52.5207 18.5583 52.463 18.3939 52.463C18.2285 52.463 16.6793 52.5207 15.9174 53.4508C15.319 54.1804 14.9408 55.2597 14.7312 56.1325L12.5779 64.3428L9.98804 54.3107C9.98804 54.3107 9.75975 53.2119 8.97783 52.5226C7.70965 51.4043 5.8075 51.6438 5.8075 51.6438L10.766 70.3926C10.766 70.3926 12.4019 70.5099 13.2203 70.0927C14.2958 69.5449 14.8073 69.122 15.4584 66.5713C15.7076 65.5942 16.149 63.8041 16.5835 62.0421L16.5835 62.042C17.1604 59.7024 17.7251 57.4124 17.8113 57.1411C17.8211 57.1104 17.8312 57.0742 17.8423 57.0343L17.8423 57.0343C17.9164 56.769 18.035 56.3443 18.3937 56.3443C18.7592 56.3443 18.8733 56.7658 18.9452 57.0315C18.9563 57.0724 18.9664 57.1097 18.9763 57.1411C19.06 57.4094 19.6118 59.6455 20.1815 61.954L20.1815 61.9542C20.6233 63.7443 21.0758 65.5779 21.3291 66.5713C21.9793 69.1218 22.4917 69.5449 23.5665 70.0927C24.3849 70.5099 26.0209 70.3926 26.0209 70.3926L30.9793 51.6438C30.9793 51.6438 29.0779 51.4043 27.8097 52.5226ZM35.5543 54.7049C35.5543 54.7049 35.2438 55.1843 34.5363 55.5801C34.2349 55.7484 33.9418 55.8808 33.642 56.0163C33.4896 56.0851 33.3355 56.1548 33.1776 56.2303C32.3934 56.6073 32.1811 57.0261 32.1811 57.6658V70.3923C32.1811 70.3923 33.4321 70.5506 34.2505 70.1332C35.3045 69.5963 35.5465 69.0787 35.5554 66.747V55.3836H35.5543V54.7051V54.7049Z" fill="#2A2D2C"/>
</svg>
