<svg width="134" height="134" viewBox="0 0 134 134" fill="none" xmlns="http://www.w3.org/2000/svg">
<g filter="url(#filter0_d)">
<path fill-rule="evenodd" clip-rule="evenodd" d="M87.1471 41.6034C89.0342 44.9052 91.2345 49.1472 91.2345 55.2726C91.2345 59.2555 89.7976 63.8385 87.8483 70.0559C87.721 70.4618 87.5916 70.8746 87.4602 71.2947L82.5175 87.8148L64.6063 34.5359C67.5884 34.3794 70.279 34.0634 70.279 34.0634C72.9489 33.7475 72.6349 29.8233 69.9612 29.9808C69.9612 29.9808 61.9355 30.6098 56.7523 30.6098C51.8822 30.6098 43.6971 29.9808 43.6971 29.9808C41.0263 29.8233 40.7132 33.9069 43.384 34.0634C43.384 34.0634 45.9124 34.3794 48.5814 34.5359L56.3043 55.6922L45.4569 88.2222L27.4081 34.5369C30.3958 34.3803 33.0817 34.0644 33.0817 34.0644C35.7497 33.7484 35.4347 29.8242 32.7629 29.9817C32.7629 29.9817 24.7382 30.6108 19.554 30.6108C18.6241 30.6108 17.5273 30.5872 16.3645 30.5523C25.2267 17.0963 40.4604 8.2124 57.7755 8.2124C70.6789 8.2124 82.427 13.1448 91.2458 21.2233C91.1693 21.2189 91.0935 21.2126 91.0179 21.2063C90.8809 21.195 90.7441 21.1837 90.6026 21.1837C85.7353 21.1837 82.2808 25.4247 82.2808 29.9808C82.2808 33.7486 84.2857 36.9839 86.5698 40.6696C86.7606 40.9775 86.9534 41.2886 87.1471 41.6034ZM36.1458 102.381C19.6134 94.3457 8.21242 77.3927 8.21242 57.7736C8.20706 50.823 9.6693 43.9495 12.5035 37.6028L36.1458 102.381Z" fill="#FCFCFC"/>
<path fill-rule="evenodd" clip-rule="evenodd" d="M101.599 39.0911C101.599 37.269 101.478 35.5734 101.265 33.9946C105.261 41.2823 107.35 49.4622 107.337 57.7737C107.337 76.0592 97.4259 92.0229 82.691 100.615L97.8304 56.8438C100.66 49.7744 101.599 44.1206 101.599 39.0911ZM43.7744 105.32L58.6451 62.1091L73.8816 103.847C73.9781 104.085 74.0961 104.314 74.2343 104.53C69.0822 106.341 63.5473 107.34 57.7755 107.34C53.0359 107.34 48.3208 106.659 43.7744 105.32Z" fill="#FCFCFC"/>
<path fill-rule="evenodd" clip-rule="evenodd" d="M0 57.7737C0 25.917 25.9189 0 57.7755 0C89.6312 0 115.553 25.917 115.554 57.7737C115.554 89.635 89.6312 115.551 57.7755 115.551C25.918 115.551 0 89.634 0 57.7737ZM2.64914 57.7737C2.64914 88.1713 27.3798 112.902 57.7755 112.902C88.1694 112.902 112.899 88.1713 112.899 57.7737C112.899 27.3788 88.1704 2.65008 57.7755 2.65008C27.3788 2.65008 2.64914 27.3788 2.64914 57.7737Z" fill="#FCFCFC"/>
</g>
<defs>
<filter id="filter0_d" x="0" y="0" width="133.554" height="133.551" filterUnits="userSpaceOnUse" color-interpolation-filters="sRGB">
<feFlood flood-opacity="0" result="BackgroundImageFix"/>
<feColorMatrix in="SourceAlpha" type="matrix" values="0 0 0 0 0 0 0 0 0 0 0 0 0 0 0 0 0 0 127 0"/>
<feOffset dx="16" dy="16"/>
<feGaussianBlur stdDeviation="1"/>
<feColorMatrix type="matrix" values="0 0 0 0 0 0 0 0 0 0 0 0 0 0 0 0 0 0 0.115275 0"/>
<feBlend mode="normal" in2="BackgroundImageFix" result="effect1_dropShadow"/>
<feBlend mode="normal" in="SourceGraphic" in2="effect1_dropShadow" result="shape"/>
</filter>
</defs>
</svg>
